999
dxflib 2.0.2.1
  0
SECTION
  2
HEADER
  9
$ACADVER
  1
AC1015
  9
$HANDSEED
  5
FFFF
  9
$DIMASZ
 40
2.5
  9
$GRIDUNIT
 10
0.001
 20
0.001
  9
$DIMADEC
 70
2
  9
$DIMGAP
 40
0.625
  9
$DIMALT
 70
4
  9
$AUPREC
 70
2
  9
$LUNITS
 70
2
  9
$DIMRND
 40
1.0
  9
$DIMEXO
 40
0.625
  9
$INSUNITS
 70
4
  9
$DIMLUNIT
 70
2
  9
$DIMTXT
 40
2.5
  9
$GRIDMODE
 70
1
  9
$LUPREC
 70
1
  9
$DIMSTYLE
  2
Standard
  9
$PLIMMAX
 10
210.0
 20
297.0
  9
$PLIMMIN
 10
0.0
 20
0.0
  9
$DIMEXE
 40
1.25
  9
$DIMAUNIT
 70
0
  9
$AUNITS
 70
0
  0
ENDSEC
  0
SECTION
  2
TABLES
  0
TABLE
  2
VPORT
  5
8
100
AcDbSymbolTable
 70
1
  0
VPORT
  5
30
100
AcDbSymbolTableRecord
100
AcDbViewportTableRecord
  2
*Active
 70
0
 10
0.0
 20
0.0
 11
1.0
 21
1.0
 12
286.3055555555554861
 22
148.5
 13
0.0
 23
0.0
 14
10.0
 24
10.0
 15
10.0
 25
10.0
 16
0.0
 26
0.0
 36
1.0
 17
0.0
 27
0.0
 37
0.0
 40
297.0
 41
1.92798353909465
 42
50.0
 43
0.0
 44
0.0
 50
0.0
 51
0.0
 71
0
 72
100
 73
1
 74
3
 75
1
 76
1
 77
0
 78
0
281
0
 65
1
110
0.0
120
0.0
130
0.0
111
1.0
121
0.0
131
0.0
112
0.0
122
1.0
132
0.0
 79
0
146
0.0
  0
ENDTAB
  0
TABLE
  2
LTYPE
  5
5
100
AcDbSymbolTable
 70
3
  0
LTYPE
  5
14
100
AcDbSymbolTableRecord
100
AcDbLinetypeTableRecord
  2
ByBlock
 70
0
  3

 72
65
 73
0
 40
0.0
  0
LTYPE
  5
15
100
AcDbSymbolTableRecord
100
AcDbLinetypeTableRecord
  2
ByLayer
 70
0
  3

 72
65
 73
0
 40
0.0
  0
LTYPE
  5
16
100
AcDbSymbolTableRecord
100
AcDbLinetypeTableRecord
  2
CONTINUOUS
 70
0
  3
Solid line
 72
65
 73
0
 40
0.0
  0
LTYPE
  5
31
100
AcDbSymbolTableRecord
100
AcDbLinetypeTableRecord
  2
DOT
 70
0
  3
Dot . . . . . . . . . . . . . . . . . . . . . .
 72
65
 73
2
 40
6.3499999999999996
 49
0.0
 74
0
 49
-6.3499999999999996
 74
0
  0
LTYPE
  5
32
100
AcDbSymbolTableRecord
100
AcDbLinetypeTableRecord
  2
DOT2
 70
0
  3
Dot (.5x) .....................................
 72
65
 73
2
 40
3.1749999999999998
 49
0.0
 74
0
 49
-3.1749999999999998
 74
0
  0
LTYPE
  5
33
100
AcDbSymbolTableRecord
100
AcDbLinetypeTableRecord
  2
DOTX2
 70
0
  3
Dot (2x) .  .  .  .  .  .  .  .  .  .  .  .  .
 72
65
 73
2
 40
12.6999999999999993
 49
0.0
 74
0
 49
-12.6999999999999993
 74
0
  0
LTYPE
  5
34
100
AcDbSymbolTableRecord
100
AcDbLinetypeTableRecord
  2
DASHED
 70
0
  3
Dashed __ __ __ __ __ __ __ __ __ __ __ __ __ _
 72
65
 73
2
 40
19.0500000000000007
 49
12.6999999999999993
 74
0
 49
-6.3499999999999996
 74
0
  0
LTYPE
  5
35
100
AcDbSymbolTableRecord
100
AcDbLinetypeTableRecord
  2
DASHED2
 70
0
  3
Dashed (.5x) _ _ _ _ _ _ _ _ _ _ _ _ _ _ _ _ _
 72
65
 73
2
 40
9.5250000000000004
 49
6.3499999999999996
 74
0
 49
-3.1749999999999998
 74
0
  0
LTYPE
  5
36
100
AcDbSymbolTableRecord
100
AcDbLinetypeTableRecord
  2
DASHEDX2
 70
0
  3
Dashed (2x) ____  ____  ____  ____  ____  ___
 72
65
 73
2
 40
38.1000000000000014
 49
25.3999999999999986
 74
0
 49
-12.6999999999999993
 74
0
  0
LTYPE
  5
37
100
AcDbSymbolTableRecord
100
AcDbLinetypeTableRecord
  2
DASHDOT
 70
0
  3
Dash dot __ . __ . __ . __ . __ . __ . __ . __
 72
65
 73
4
 40
25.3999999999999986
 49
12.6999999999999993
 74
0
 49
-6.3499999999999996
 74
0
 49
0.0
 74
0
 49
-6.3499999999999996
 74
0
  0
LTYPE
  5
38
100
AcDbSymbolTableRecord
100
AcDbLinetypeTableRecord
  2
DASHDOT2
 70
0
  3
Dash dot (.5x) _._._._._._._._._._._._._._._.
 72
65
 73
4
 40
12.6999999999999993
 49
6.3499999999999996
 74
0
 49
-3.1749999999999998
 74
0
 49
0.0
 74
0
 49
-3.1749999999999998
 74
0
  0
LTYPE
  5
39
100
AcDbSymbolTableRecord
100
AcDbLinetypeTableRecord
  2
DASHDOTX2
 70
0
  3
Dash dot (2x) ____  .  ____  .  ____  .  ___
 72
65
 73
4
 40
50.7999999999999972
 49
25.3999999999999986
 74
0
 49
-12.6999999999999993
 74
0
 49
0.0
 74
0
 49
-12.6999999999999993
 74
0
  0
LTYPE
  5
3A
100
AcDbSymbolTableRecord
100
AcDbLinetypeTableRecord
  2
DIVIDE
 70
0
  3
Divide ____ . . ____ . . ____ . . ____ . . ____
 72
65
 73
6
 40
31.75
 49
12.6999999999999993
 74
0
 49
-6.3499999999999996
 74
0
 49
0.0
 74
0
 49
-6.3499999999999996
 74
0
 49
0.0
 74
0
 49
-6.3499999999999996
 74
0
  0
LTYPE
  5
3B
100
AcDbSymbolTableRecord
100
AcDbLinetypeTableRecord
  2
DIVIDE2
 70
0
  3
Divide (.5x) __..__..__..__..__..__..__..__.._
 72
65
 73
6
 40
15.875
 49
6.3499999999999996
 74
0
 49
-3.1749999999999998
 74
0
 49
0.0
 74
0
 49
-3.1749999999999998
 74
0
 49
0.0
 74
0
 49
-3.1749999999999998
 74
0
  0
LTYPE
  5
3C
100
AcDbSymbolTableRecord
100
AcDbLinetypeTableRecord
  2
DIVIDEX2
 70
0
  3
Divide (2x) ________  .  .  ________  .  .  _
 72
65
 73
6
 40
63.5
 49
25.3999999999999986
 74
0
 49
-12.6999999999999993
 74
0
 49
0.0
 74
0
 49
-12.6999999999999993
 74
0
 49
0.0
 74
0
 49
-12.6999999999999993
 74
0
  0
LTYPE
  5
3D
100
AcDbSymbolTableRecord
100
AcDbLinetypeTableRecord
  2
CENTER
 70
0
  3
Center ____ _ ____ _ ____ _ ____ _ ____ _ ____
 72
65
 73
4
 40
50.7999999999999972
 49
31.75
 74
0
 49
-6.3499999999999996
 74
0
 49
6.3499999999999996
 74
0
 49
-6.3499999999999996
 74
0
  0
LTYPE
  5
3E
100
AcDbSymbolTableRecord
100
AcDbLinetypeTableRecord
  2
CENTER2
 70
0
  3
Center (.5x) ___ _ ___ _ ___ _ ___ _ ___ _ ___
 72
65
 73
4
 40
28.5749999999999993
 49
19.0500000000000007
 74
0
 49
-3.1749999999999998
 74
0
 49
3.1749999999999998
 74
0
 49
-3.1749999999999998
 74
0
  0
LTYPE
  5
3F
100
AcDbSymbolTableRecord
100
AcDbLinetypeTableRecord
  2
CENTERX2
 70
0
  3
Center (2x) ________  __  ________  __  _____
 72
65
 73
4
 40
101.5999999999999943
 49
63.5
 74
0
 49
-12.6999999999999993
 74
0
 49
12.6999999999999993
 74
0
 49
-12.6999999999999993
 74
0
  0
LTYPE
  5
40
100
AcDbSymbolTableRecord
100
AcDbLinetypeTableRecord
  2
BORDER
 70
0
  3
Border __ __ . __ __ . __ __ . __ __ . __ __ .
 72
65
 73
6
 40
44.4500000000000028
 49
12.6999999999999993
 74
0
 49
-6.3499999999999996
 74
0
 49
12.6999999999999993
 74
0
 49
-6.3499999999999996
 74
0
 49
0.0
 74
0
 49
-6.3499999999999996
 74
0
  0
LTYPE
  5
41
100
AcDbSymbolTableRecord
100
AcDbLinetypeTableRecord
  2
BORDER2
 70
0
  3
Border (.5x) __.__.__.__.__.__.__.__.__.__.__.
 72
65
 73
6
 40
22.2250000000000014
 49
6.3499999999999996
 74
0
 49
-3.1749999999999998
 74
0
 49
6.3499999999999996
 74
0
 49
-3.1749999999999998
 74
0
 49
0.0
 74
0
 49
-3.1749999999999998
 74
0
  0
LTYPE
  5
42
100
AcDbSymbolTableRecord
100
AcDbLinetypeTableRecord
  2
BORDERX2
 70
0
  3
Border (2x) ____  ____  .  ____  ____  .  ___
 72
65
 73
6
 40
88.9000000000000057
 49
25.3999999999999986
 74
0
 49
-12.6999999999999993
 74
0
 49
25.3999999999999986
 74
0
 49
-12.6999999999999993
 74
0
 49
0.0
 74
0
 49
-12.6999999999999993
 74
0
  0
ENDTAB
  0
TABLE
  2
LAYER
  5
2
100
AcDbSymbolTable
 70
2
  0
LAYER
  5
10
100
AcDbSymbolTableRecord
100
AcDbLayerTableRecord
  2
0
 70
0
 62
7
  6
CONTINUOUS
390
F
  0
LAYER
  5
43
100
AcDbSymbolTableRecord
100
AcDbLayerTableRecord
  2
NULL
 70
0
 62
7
  6
CONTINUOUS
370
0
390
F
  0
ENDTAB
  0
TABLE
  2
STYLE
  5
3
100
AcDbSymbolTable
 70
1
  0
STYLE
  5
11
100
AcDbSymbolTableRecord
100
AcDbTextStyleTableRecord
  2
Standard
 70
0
 40
0.0
 41
1.0
 50
0.0
 71
0
 42
2.5
  3
txt
  4

  0
ENDTAB
  0
TABLE
  2
VIEW
  5
6
100
AcDbSymbolTable
 70
0
  0
ENDTAB
  0
TABLE
  2
UCS
  5
7
100
AcDbSymbolTable
 70
0
  0
ENDTAB
  0
TABLE
  2
APPID
  5
9
100
AcDbSymbolTable
 70
1
  0
APPID
  5
12
100
AcDbSymbolTableRecord
100
AcDbRegAppTableRecord
  2
ACAD
 70
0
  0
ENDTAB
  0
TABLE
  2
DIMSTYLE
  5
A
100
AcDbSymbolTable
 70
1
100
AcDbDimStyleTable
 71
0
  0
DIMSTYLE
105
27
100
AcDbSymbolTableRecord
100
AcDbDimStyleTableRecord
  2
Standard
 41
2.5
 42
0.625
 43
3.75
 44
1.25
 70
0
 73
0
 74
0
 77
1
 78
8
140
2.5
141
2.5
143
0.03937007874016
147
0.625
171
3
172
1
271
2
272
2
274
3
278
44
283
0
284
8
340
11
  0
ENDTAB
  0
TABLE
  2
BLOCK_RECORD
  5
1
100
AcDbSymbolTable
 70
1
  0
BLOCK_RECORD
  5
1F
100
AcDbSymbolTableRecord
100
AcDbBlockTableRecord
  2
*Model_Space
340
22
  0
BLOCK_RECORD
  5
1B
100
AcDbSymbolTableRecord
100
AcDbBlockTableRecord
  2
*Paper_Space
340
1E
  0
BLOCK_RECORD
  5
23
100
AcDbSymbolTableRecord
100
AcDbBlockTableRecord
  2
*Paper_Space0
340
26
  0
ENDTAB
  0
ENDSEC
  0
SECTION
  2
BLOCKS
  0
BLOCK
  5
20
100
AcDbEntity
  8
0
100
AcDbBlockBegin
  2
*Model_Space
 70
0
 10
0.0
 20
0.0
 30
0.0
  3
*Model_Space
  1

  0
ENDBLK
  5
21
100
AcDbEntity
  8
0
100
AcDbBlockEnd
  0
BLOCK
  5
1C
100
AcDbEntity
 67
1
  8
0
100
AcDbBlockBegin
  2
*Paper_Space
 70
0
 10
0.0
 20
0.0
 30
0.0
  3
*Paper_Space
  1

  0
ENDBLK
  5
1D
100
AcDbEntity
 67
1
  8
0
100
AcDbBlockEnd
  0
BLOCK
  5
24
100
AcDbEntity
  8
0
100
AcDbBlockBegin
  2
*Paper_Space0
 70
0
 10
0.0
 20
0.0
 30
0.0
  3
*Paper_Space0
  1

  0
ENDBLK
  5
25
100
AcDbEntity
  8
0
100
AcDbBlockEnd
  0
ENDSEC
  0
SECTION
  2
ENTITIES
  0
LINE
  5
44
100
AcDbEntity
100
AcDbLine
  8
0
 62
0
370
0
  6
CONTINUOUS
 10
400.0
 20
127.9999839999999836
 30
0.0
 11
400.0
 21
0.0
 31
0.0
  0
LINE
  5
45
100
AcDbEntity
100
AcDbLine
  8
0
 62
0
370
0
  6
CONTINUOUS
 10
397.4399839999999813
 20
125.4399840000000097
 30
0.0
 11
397.4399839999999813
 21
57.5999999999999943
 31
0.0
  0
POINT
  5
46
100
AcDbEntity
100
AcDbPoint
  8
0
 62
0
370
0
  6
CONTINUOUS
 10
397.4399839999999813
 20
55.039999999999992
 30
0.0
  0
POINT
  5
47
100
AcDbEntity
100
AcDbPoint
  8
0
 62
0
370
0
  6
CONTINUOUS
 10
397.4399839999999813
 20
2.5599999999999987
 30
0.0
  0
LINE
  5
48
100
AcDbEntity
100
AcDbLine
  8
0
 62
0
370
0
  6
CONTINUOUS
 10
397.4399839999999813
 20
2.5599999999999987
 30
0.0
 11
397.4399839999999813
 21
55.039999999999992
 31
0.0
  0
MTEXT
  5
49
100
AcDbEntity
100
AcDbMText
  8
0
 62
0
370
0
  6
CONTINUOUS
 10
364.1599840000000086
 20
30.7200000000000024
 30
0.0
 40
3.8399999999999999
 41
100.0
 71
7
 72
2
  1
PLANO\~No:
  7
Normal_fix
 50
0.0
 73
0
 44
1.0
  0
LINE
  5
4A
100
AcDbEntity
100
AcDbLine
  8
0
 62
0
370
0
  6
CONTINUOUS
 10
361.5999679999999898
 20
37.1200000000000045
 30
0.0
 11
361.5999679999999898
 21
2.5599999999999987
 31
0.0
  0
LINE
  5
4B
100
AcDbEntity
100
AcDbLine
  8
0
 62
0
370
0
  6
CONTINUOUS
 10
128.0
 20
127.9999839999999836
 30
0.0
 11
400.0
 21
127.9999839999999836
 31
0.0
  0
LINE
  5
4C
100
AcDbEntity
100
AcDbLine
  8
0
 62
0
370
0
  6
CONTINUOUS
 10
128.0
 20
0.0
 30
0.0
 11
128.0
 21
127.9999839999999836
 31
0.0
  0
LINE
  5
4D
100
AcDbEntity
100
AcDbLine
  8
0
 62
0
370
0
  6
CONTINUOUS
 10
397.4399839999999813
 20
125.4399840000000097
 30
0.0
 11
319.9999840000000404
 21
125.4399840000000097
 31
0.0
  0
LINE
  5
4E
100
AcDbEntity
100
AcDbLine
  8
0
 62
0
370
0
  6
CONTINUOUS
 10
319.9999840000000404
 20
125.4399840000000097
 30
0.0
 11
319.9999840000000404
 21
57.5999999999999943
 31
0.0
  0
LINE
  5
4F
100
AcDbEntity
100
AcDbLine
  8
0
 62
0
370
0
  6
CONTINUOUS
 10
317.4399839999999813
 20
87.039999999999992
 30
0.0
 11
317.4399839999999813
 21
57.5999999999999943
 31
0.0
  0
POINT
  5
50
100
AcDbEntity
100
AcDbPoint
  8
0
 62
0
370
0
  6
CONTINUOUS
 10
130.5600000000000023
 20
87.039999999999992
 30
0.0
  0
LINE
  5
51
100
AcDbEntity
100
AcDbLine
  8
0
 62
0
370
0
  6
CONTINUOUS
 10
130.5600000000000023
 20
87.039999999999992
 30
0.0
 11
317.4399839999999813
 21
87.039999999999992
 31
0.0
  0
LINE
  5
52
100
AcDbEntity
100
AcDbLine
  8
0
 62
0
370
0
  6
CONTINUOUS
 10
317.4399839999999813
 20
125.4399840000000097
 30
0.0
 11
317.4399839999999813
 21
89.5999999999999943
 31
0.0
  0
LINE
  5
53
100
AcDbEntity
100
AcDbLine
  8
0
 62
0
370
0
  6
CONTINUOUS
 10
130.5600000000000023
 20
125.4399840000000097
 30
0.0
 11
317.4399839999999813
 21
125.4399840000000097
 31
0.0
  0
LINE
  5
54
100
AcDbEntity
100
AcDbLine
  8
0
 62
0
370
0
  6
CONTINUOUS
 10
317.4399839999999813
 20
89.5999999999999943
 30
0.0
 11
130.5600000000000023
 21
89.5999999999999943
 31
0.0
  0
LINE
  5
55
100
AcDbEntity
100
AcDbLine
  8
0
 62
0
370
0
  6
CONTINUOUS
 10
130.5600000000000023
 20
89.5999999999999943
 30
0.0
 11
130.5600000000000023
 21
125.4399840000000097
 31
0.0
  0
LINE
  5
56
100
AcDbEntity
100
AcDbLine
  8
0
 62
0
370
0
  6
CONTINUOUS
 10
130.5599839999999858
 20
57.5999999999999943
 30
0.0
 11
317.4399839999999813
 21
57.5999999999999943
 31
0.0
  0
MTEXT
  5
57
100
AcDbEntity
100
AcDbMText
  8
0
 62
0
370
0
  6
CONTINUOUS
 10
134.4000000000000057
 20
64.0
 30
0.0
 40
3.8399999999999999
 41
100.0
 71
7
 72
2
  1
EMPLAZAMIENTO:
  7
Normal
 50
0.0
 73
0
 44
1.0
  0
LINE
  5
58
100
AcDbEntity
100
AcDbLine
  8
0
 62
0
370
0
  6
CONTINUOUS
 10
397.4399839999999813
 20
57.5999839999999921
 30
0.0
 11
319.9999840000000404
 21
57.5999839999999921
 31
0.0
  0
LINE
  5
59
100
AcDbEntity
100
AcDbLine
  8
0
 62
0
370
0
  6
CONTINUOUS
 10
130.5599839999999858
 20
87.039999999999992
 30
0.0
 11
130.5599839999999858
 21
57.5999999999999943
 31
0.0
  0
POINT
  5
5A
100
AcDbEntity
100
AcDbPoint
  8
0
 62
0
370
0
  6
CONTINUOUS
 10
130.5600000000000023
 20
55.039999999999992
 30
0.0
  0
POINT
  5
5B
100
AcDbEntity
100
AcDbPoint
  8
0
 62
0
370
0
  6
CONTINUOUS
 10
130.5600000000000023
 20
2.5599999999999987
 30
0.0
  0
POINT
  5
5C
100
AcDbEntity
100
AcDbPoint
  8
0
 62
0
370
0
  6
CONTINUOUS
 10
294.3999840000000177
 20
55.039999999999992
 30
0.0
  0
LINE
  5
5D
100
AcDbEntity
100
AcDbLine
  8
0
 62
0
370
0
  6
CONTINUOUS
 10
296.9599839999999631
 20
55.039999999999992
 30
0.0
 11
296.9599839999999631
 21
2.5599999999999987
 31
0.0
  0
LINE
  5
5E
100
AcDbEntity
100
AcDbLine
  8
0
 62
0
370
0
  6
CONTINUOUS
 10
294.3999999999999773
 20
55.039999999999992
 30
0.0
 11
294.3999999999999773
 21
2.5599999999999987
 31
0.0
  0
LINE
  5
5F
100
AcDbEntity
100
AcDbLine
  8
0
 62
0
370
0
  6
CONTINUOUS
 10
296.9599839999999631
 20
2.5599999999999987
 30
0.0
 11
397.4399839999999813
 21
2.5599999999999987
 31
0.0
  0
LINE
  5
60
100
AcDbEntity
100
AcDbLine
  8
0
 62
0
370
0
  6
CONTINUOUS
 10
397.4399839999999813
 20
55.039999999999992
 30
0.0
 11
296.9599839999999631
 21
55.039999999999992
 31
0.0
  0
MTEXT
  5
61
100
AcDbEntity
100
AcDbMText
  8
0
 62
0
370
0
  6
CONTINUOUS
 10
134.4000000000000057
 20
47.3599999999999994
 30
0.0
 40
3.8399999999999999
 41
100.0
 71
7
 72
2
  1
PLANO:
  7
Normal
 50
0.0
 73
0
 44
1.0
  0
LINE
  5
62
100
AcDbEntity
100
AcDbLine
  8
0
 62
0
370
0
  6
CONTINUOUS
 10
130.5600000000000023
 20
43.519999999999996
 30
0.0
 11
294.3999999999999773
 21
43.2251360000000062
 31
0.0
  0
LINE
  5
63
100
AcDbEntity
100
AcDbLine
  8
0
 62
0
370
0
  6
CONTINUOUS
 10
212.4799999999999898
 20
43.3725600000000071
 30
0.0
 11
212.4799999999999898
 21
2.5599999999999987
 31
0.0
  0
MTEXT
  5
64
100
AcDbEntity
100
AcDbMText
  8
0
 62
0
370
0
  6
CONTINUOUS
 10
299.5199999999999818
 20
39.6800000000000068
 30
0.0
 40
3.8399999999999999
 41
100.0
 71
7
 72
2
  1
FECHA:
  7
Normal_fix
 50
0.0
 73
0
 44
1.0
  0
LINE
  5
65
100
AcDbEntity
100
AcDbLine
  8
0
 62
0
370
0
  6
CONTINUOUS
 10
296.9599839999999631
 20
37.1200000000000045
 30
0.0
 11
397.4399839999999813
 21
37.1200000000000045
 31
0.0
  0
MTEXT
  5
66
100
AcDbEntity
100
AcDbMText
  8
0
 62
0
370
0
  6
CONTINUOUS
 10
299.5199999999999818
 20
30.7200000000000024
 30
0.0
 40
3.8399999999999999
 41
100.0
 71
7
 72
2
  1
REF:
  7
Normal_fix
 50
0.0
 73
0
 44
1.0
  0
LINE
  5
67
100
AcDbEntity
100
AcDbLine
  8
0
 62
0
370
0
  6
CONTINUOUS
 10
296.9599839999999631
 20
46.0799999999999983
 30
0.0
 11
397.4399839999999813
 21
46.0799999999999983
 31
0.0
  0
LINE
  5
68
100
AcDbEntity
100
AcDbLine
  8
0
 62
0
370
0
  6
CONTINUOUS
 10
369.5041599999999562
 20
95.9748000000000019
 30
0.0
 11
369.5041599999999562
 21
57.5999839999999921
 31
0.0
  0
LINE
  5
69
100
AcDbEntity
100
AcDbLine
  8
0
 62
0
370
0
  6
CONTINUOUS
 10
369.5041599999999562
 20
95.9748000000000019
 30
0.0
 11
397.4399839999999813
 21
95.9748000000000019
 31
0.0
  0
ARC
  5
6A
100
AcDbEntity
  8
0
 62
0
370
0
  6
CONTINUOUS
100
AcDbCircle
 10
383.4548320000000103
 20
81.6547359999999998
 30
0.0
 40
3.1455039999999999
100
AcDbArc
 50
105.1414259999999956
 51
177.1518250000000023
  0
ARC
  5
6B
100
AcDbEntity
  8
0
 62
0
370
0
  6
CONTINUOUS
100
AcDbCircle
 10
383.5755679999999757
 20
80.9344799999999935
 30
0.0
 40
3.8729439999999999
100
AcDbArc
 50
39.7507739999999998
 51
104.082335999999998
  0
ARC
  5
6C
100
AcDbEntity
  8
0
 62
0
370
0
  6
CONTINUOUS
100
AcDbCircle
 10
379.8370879999999943
 20
79.688447999999994
 30
0.0
 40
7.6787999999999998
100
AcDbArc
 50
1.511741
 51
28.9984949999999984
  0
ARC
  5
6D
100
AcDbEntity
  8
0
 62
0
370
0
  6
CONTINUOUS
100
AcDbCircle
 10
390.3882240000000365
 20
79.1860319999999973
 30
0.0
 40
2.9601760000000001
100
AcDbArc
 50
166.2219540000000109
 51
199.2306670000000111
  0
ARC
  5
6E
100
AcDbEntity
  8
0
 62
0
370
0
  6
CONTINUOUS
100
AcDbCircle
 10
395.9466400000000021
 20
80.3945920000000029
 30
0.0
 40
8.6340959999999995
100
AcDbArc
 50
194.649169999999998
 51
215.9062649999999906
  0
ARC
  5
6F
100
AcDbEntity
  8
0
 62
0
370
0
  6
CONTINUOUS
100
AcDbCircle
 10
384.7212160000000267
 20
69.9790399999999977
 30
0.0
 40
6.8230240000000002
100
AcDbArc
 50
27.1358870000000003
 51
51.6654359999999997
  0
ARC
  5
70
100
AcDbEntity
  8
0
 62
0
370
0
  6
CONTINUOUS
100
AcDbCircle
 10
381.4732159999999794
 20
69.1310399999999987
 30
0.0
 40
10.1264000000000003
100
AcDbArc
 50
7.4899529999999999
 51
23.0202850000000012
  0
ARC
  5
71
100
AcDbEntity
  8
0
 62
0
370
0
  6
CONTINUOUS
100
AcDbCircle
 10
388.2953280000000404
 20
69.4881439999999913
 30
0.0
 40
3.3588640000000001
100
AcDbArc
 50
310.4211429999999723
 51
16.6588290000000008
  0
ARC
  5
72
100
AcDbEntity
  8
0
 62
0
370
0
  6
CONTINUOUS
100
AcDbCircle
 10
389.5961439999999811
 20
68.0754239999999982
 30
0.0
 40
1.44184
100
AcDbArc
 50
218.8475039999999865
 51
307.4669489999999996
  0
ARC
  5
73
100
AcDbEntity
  8
0
 62
0
370
0
  6
CONTINUOUS
100
AcDbCircle
 10
389.7792640000000119
 20
67.4920159999999925
 30
0.0
 40
1.3449120000000001
100
AcDbArc
 50
50.583835999999998
 51
193.8076320000000123
  0
ARC
  5
74
100
AcDbEntity
  8
0
 62
0
370
0
  6
CONTINUOUS
100
AcDbCircle
 10
393.6182240000000547
 20
67.1610399999999998
 30
0.0
 40
1.8791359999999999
100
AcDbArc
 50
187.0304720000000032
 51
222.5198059999999884
  0
ARC
  5
75
100
AcDbEntity
  8
0
 62
0
370
0
  6
CONTINUOUS
100
AcDbCircle
 10
396.0532160000000204
 20
69.7810399999999902
 30
0.0
 40
5.4520160000000004
100
AcDbArc
 50
225.5201869999999928
 51
239.3426360000000273
  0
ARC
  5
76
100
AcDbEntity
  8
0
 62
0
370
0
  6
CONTINUOUS
100
AcDbCircle
 10
392.9832159999999703
 20
64.5310399999999902
 30
0.0
 40
0.63064
100
AcDbArc
 50
297.3777160000000208
 51
62.6222950000000012
  0
ARC
  5
77
100
AcDbEntity
  8
0
 62
0
370
0
  6
CONTINUOUS
100
AcDbCircle
 10
395.3632159999999658
 20
56.1160319999999899
 30
0.0
 40
7.827312
100
AcDbArc
 50
119.4634250000000009
 51
136.6306610000000035
  0
ARC
  5
78
100
AcDbEntity
  8
0
 62
0
370
0
  6
CONTINUOUS
100
AcDbCircle
 10
388.4388320000000476
 20
62.8503359999999986
 30
0.0
 40
1.836144
100
AcDbArc
 50
211.4970399999999984
 51
312.2427670000000148
  0
ARC
  5
79
100
AcDbEntity
  8
0
 62
0
370
0
  6
CONTINUOUS
100
AcDbCircle
 10
389.8946240000000216
 20
62.9045600000000036
 30
0.0
 40
3.1868639999999999
100
AcDbArc
 50
157.3653260000000103
 51
198.5438540000000103
  0
ARC
  5
7A
100
AcDbEntity
  8
0
 62
0
370
0
  6
CONTINUOUS
100
AcDbCircle
 10
375.8332159999999931
 20
66.2910399999999953
 30
0.0
 40
11.3278400000000001
100
AcDbArc
 50
349.0074769999999944
 51
5.2676970000000001
  0
ARC
  5
7B
100
AcDbEntity
  8
0
 62
0
370
0
  6
CONTINUOUS
100
AcDbCircle
 10
387.5532160000000204
 20
67.6110400000000027
 30
0.0
 40
0.521536
100
AcDbArc
 50
57.5288090000000096
 51
212.4711910000000046
  0
ARC
  5
7C
100
AcDbEntity
  8
0
 62
0
370
0
  6
CONTINUOUS
100
AcDbCircle
 10
378.1132159999999658
 20
65.6110400000000027
 30
0.0
 40
4.0733280000000001
100
AcDbArc
 50
162.2767639999999858
 51
187.3343810000000076
  0
ARC
  5
7D
100
AcDbEntity
  8
0
 62
0
370
0
  6
CONTINUOUS
100
AcDbCircle
 10
377.1802400000000262
 20
67.7118079999999907
 30
0.0
 40
0.821952
100
AcDbArc
 50
37.3985860000000017
 51
149.33433500000001
  0
ARC
  5
7E
100
AcDbEntity
  8
0
 62
0
370
0
  6
CONTINUOUS
100
AcDbCircle
 10
363.2732160000000476
 20
55.731039999999993
 30
0.0
 40
19.1766560000000013
100
AcDbArc
 50
26.7788390000000014
 51
40.6012950000000004
  0
ARC
  5
7F
100
AcDbEntity
  8
0
 62
0
370
0
  6
CONTINUOUS
100
AcDbCircle
 10
379.480831999999964
 20
62.8415040000000005
 30
0.0
 40
1.7809759999999999
100
AcDbArc
 50
321.4263310000000047
 51
59.1833719999999985
  0
ARC
  5
80
100
AcDbEntity
  8
0
 62
0
370
0
  6
CONTINUOUS
100
AcDbCircle
 10
379.5456000000000358
 20
62.7862719999999968
 30
0.0
 40
1.6959040000000001
100
AcDbArc
 50
234.1855319999999665
 51
321.5210880000000202
  0
ARC
  5
81
100
AcDbEntity
  8
0
 62
0
370
0
  6
CONTINUOUS
100
AcDbCircle
 10
381.6932160000000067
 20
67.0810400000000016
 30
0.0
 40
5.7578240000000003
100
AcDbArc
 50
140.143462999999997
 51
156.9974060000000122
  0
ARC
  5
82
100
AcDbEntity
  8
0
 62
0
370
0
  6
CONTINUOUS
100
AcDbCircle
 10
370.2332159999999703
 20
74.075648000000001
 30
0.0
 40
7.7770239999999999
100
AcDbArc
 50
334.8543700000000172
 51
350.9401550000000043
  0
ARC
  5
83
100
AcDbEntity
  8
0
 62
0
370
0
  6
CONTINUOUS
100
AcDbCircle
 10
381.7065599999999677
 20
71.797696000000002
 30
0.0
 40
3.9368639999999999
100
AcDbArc
 50
136.0291599999999903
 51
164.481078999999994
  0
ARC
  5
84
100
AcDbEntity
  8
0
 62
0
370
0
  6
CONTINUOUS
100
AcDbCircle
 10
371.6732160000000249
 20
81.3443680000000029
 30
0.0
 40
9.9126879999999993
100
AcDbArc
 50
316.5805359999999951
 51
328.811554000000001
  0
ARC
  5
85
100
AcDbEntity
  8
0
 62
0
370
0
  6
CONTINUOUS
100
AcDbCircle
 10
378.4232160000000249
 20
77.4110399999999998
 30
0.0
 40
2.1054400000000002
100
AcDbArc
 50
325.2532039999999824
 51
13.178191
  0
ARC
  5
86
100
AcDbEntity
  8
0
 62
0
370
0
  6
CONTINUOUS
100
AcDbCircle
 10
1558.3532000000000153
 20
127.9310399999999959
 30
0.0
 40
1178.9424799999999323
100
AcDbArc
 50
182.241973999999999
 51
182.4326320000000123
  0
ARC
  5
87
100
AcDbEntity
  8
0
 62
0
370
0
  6
CONTINUOUS
100
AcDbCircle
 10
382.5309919999999693
 20
68.9532639999999901
 30
0.0
 40
5.6952800000000003
100
AcDbArc
 50
289.0853579999999852
 51
323.5682980000000271
  0
ARC
  5
88
100
AcDbEntity
  8
0
 62
0
370
0
  6
CONTINUOUS
100
AcDbCircle
 10
394.987824000000046
 20
84.7058719999999994
 30
0.0
 40
23.2995839999999994
100
AcDbArc
 50
220.5095829999999921
 51
232.2182620000000099
  0
ARC
  5
89
100
AcDbEntity
  8
0
 62
0
370
0
  6
CONTINUOUS
100
AcDbCircle
 10
385.9532159999999976
 20
70.3310400000000016
 30
0.0
 40
3.8052640000000002
100
AcDbArc
 50
3.012788
 51
56.1428909999999988
  0
ARC
  5
8A
100
AcDbEntity
  8
0
 62
0
370
0
  6
CONTINUOUS
100
AcDbCircle
 10
381.7532159999999521
 20
76.8510399999999976
 30
0.0
 40
0.8
100
AcDbArc
 50
143.1300960000000089
 51
216.8699039999999911
  0
ARC
  5
8B
100
AcDbEntity
  8
0
 62
0
370
0
  6
CONTINUOUS
100
AcDbCircle
 10
388.3951200000000199
 20
70.6776959999999974
 30
0.0
 40
9.2433920000000001
100
AcDbArc
 50
141.9800419999999974
 51
155.3625790000000109
  0
ARC
  5
8C
100
AcDbEntity
  8
0
 62
0
370
0
  6
CONTINUOUS
100
AcDbCircle
 10
380.7132159999999885
 20
74.0110399999999942
 30
0.0
 40
0.888144
100
AcDbArc
 50
144.1623539999999934
 51
215.8376460000000066
  0
ARC
  5
8D
100
AcDbEntity
  8
0
 62
0
370
0
  6
CONTINUOUS
100
AcDbCircle
 10
384.2532159999999521
 20
69.2710399999999993
 30
0.0
 40
5.9963360000000003
100
AcDbArc
 50
135.2702639999999974
 51
187.8598479999999995
  0
ARC
  5
8E
100
AcDbEntity
  8
0
 62
0
370
0
  6
CONTINUOUS
100
AcDbCircle
 10
379.0287680000000137
 20
72.2332639999999913
 30
0.0
 40
8.1584640000000004
100
AcDbArc
 50
11.1507780000000007
 51
32.4520419999999987
  0
ARC
  5
8F
100
AcDbEntity
  8
0
 62
0
370
0
  6
CONTINUOUS
100
AcDbCircle
 10
385.3932160000000522
 20
76.8510399999999976
 30
0.0
 40
0.57272
100
AcDbArc
 50
335.2248539999999934
 51
77.9052429999999987
  0
ARC
  5
90
100
AcDbEntity
  8
0
 62
0
370
0
  6
CONTINUOUS
100
AcDbCircle
 10
399.2668959999999743
 20
69.0299839999999989
 30
0.0
 40
17.5162720000000007
100
AcDbArc
 50
172.1873779999999954
 51
185.5660100000000057
  0
ARC
  5
91
100
AcDbEntity
  8
0
 62
0
370
0
  6
CONTINUOUS
100
AcDbCircle
 10
383.5711519999999837
 20
68.2882719999999921
 30
0.0
 40
5.5612959999999996
100
AcDbArc
 50
44.8593219999999988
 51
78.1493990000000025
  0
ARC
  5
92
100
AcDbEntity
  8
0
 62
0
370
0
  6
CONTINUOUS
100
AcDbCircle
 10
386.8412160000000313
 20
66.8830399999999941
 30
0.0
 40
7.1710240000000001
100
AcDbArc
 50
91.6621319999999997
 51
107.262512000000001
  0
ARC
  5
93
100
AcDbEntity
  8
0
 62
0
370
0
  6
CONTINUOUS
100
AcDbCircle
 10
381.6376639999999725
 20
80.4376960000000025
 30
0.0
 40
0.761296
100
AcDbArc
 50
7.0420389999999999
 51
154.0333100000000002
  0
ARC
  5
94
100
AcDbEntity
  8
0
 62
0
370
0
  6
CONTINUOUS
100
AcDbCircle
 10
381.1111200000000281
 20
74.8426079999999985
 30
0.0
 40
1.034848
100
AcDbArc
 50
202.2343140000000119
 51
274.5506899999999746
  0
ARC
  5
95
100
AcDbEntity
  8
0
 62
0
370
0
  6
CONTINUOUS
100
AcDbCircle
 10
385.3132160000000113
 20
63.5710399999999964
 30
0.0
 40
11.0377600000000005
100
AcDbArc
 50
111.9170840000000027
 51
121.2130200000000002
  0
ARC
  5
96
100
AcDbEntity
  8
0
 62
0
370
0
  6
CONTINUOUS
100
AcDbCircle
 10
380.5288000000000466
 20
65.6195359999999965
 30
0.0
 40
0.696368
100
AcDbArc
 50
278.6243590000000268
 51
74.6427000000000049
  0
ARC
  5
97
100
AcDbEntity
  8
0
 62
0
370
0
  6
CONTINUOUS
100
AcDbCircle
 10
377.2598880000000463
 20
68.9310399999999959
 30
0.0
 40
0.954528
100
AcDbArc
 50
155.2248539999999934
 51
224.0770870000000059
  0
ARC
  5
98
100
AcDbEntity
  8
0
 62
0
370
0
  6
CONTINUOUS
100
AcDbCircle
 10
372.5323519999999462
 20
64.5553759999999954
 30
0.0
 40
1.6313120000000001
100
AcDbArc
 50
314.2632449999999835
 51
19.1689760000000007
  0
ARC
  5
99
100
AcDbEntity
  8
0
 62
0
370
0
  6
CONTINUOUS
100
AcDbCircle
 10
374.2217920000000504
 20
63.2510400000000033
 30
0.0
 40
0.567408
100
AcDbArc
 50
166.1223300000000052
 51
279.2726139999999759
  0
ARC
  5
9A
100
AcDbEntity
  8
0
 62
0
370
0
  6
CONTINUOUS
100
AcDbCircle
 10
385.4886079999999993
 20
91.6110400000000027
 30
0.0
 40
31.0041280000000015
100
AcDbArc
 50
248.8722689999999886
 51
256.9222720000000209
  0
ARC
  5
9B
100
AcDbEntity
  8
0
 62
0
370
0
  6
CONTINUOUS
100
AcDbCircle
 10
375.4903679999999895
 20
68.1367520000000013
 30
0.0
 40
0.98288
100
AcDbArc
 50
261.5655820000000062
 51
359.6669009999999957
  0
ARC
  5
9C
100
AcDbEntity
  8
0
 62
0
370
0
  6
CONTINUOUS
100
AcDbCircle
 10
375.5448000000000093
 20
64.326831999999996
 30
0.0
 40
2.844624
100
AcDbArc
 50
94.0034409999999951
 51
117.4563749999999942
  0
ARC
  5
9D
100
AcDbEntity
  8
0
 62
0
370
0
  6
CONTINUOUS
100
AcDbCircle
 10
383.9932159999999612
 20
50.0010400000000033
 30
0.0
 40
12.3710400000000007
100
AcDbArc
 50
76.9185939999999988
 51
103.7120359999999977
  0
ARC
  5
9E
100
AcDbEntity
  8
0
 62
0
370
0
  6
CONTINUOUS
100
AcDbCircle
 10
382.9539680000000317
 20
67.7665119999999916
 30
0.0
 40
4.4354719999999999
100
AcDbArc
 50
243.6871949999999742
 51
288.9343870000000152
  0
ARC
  5
9F
100
AcDbEntity
  8
0
 62
0
370
0
  6
CONTINUOUS
100
AcDbCircle
 10
390.8132160000000113
 20
67.191040000000001
 30
0.0
 40
0.9752960000000001
100
AcDbArc
 50
344.5387880000000109
 51
58.7759480000000067
  0
ARC
  5
A0
100
AcDbEntity
  8
0
 62
0
370
0
  6
CONTINUOUS
100
AcDbCircle
 10
382.6232159999999567
 20
71.2260320000000036
 30
0.0
 40
7.1637919999999999
100
AcDbArc
 50
339.9261169999999765
 51
354.4326479999999719
  0
ARC
  5
A1
100
AcDbEntity
  8
0
 62
0
370
0
  6
CONTINUOUS
100
AcDbCircle
 10
381.8128000000000384
 20
69.9199679999999972
 30
0.0
 40
6.5110080000000004
100
AcDbArc
 50
341.8895259999999894
 51
36.6991420000000019
  0
ARC
  5
A2
100
AcDbEntity
  8
0
 62
0
370
0
  6
CONTINUOUS
100
AcDbCircle
 10
388.6610239999999976
 20
68.7797439999999938
 30
0.0
 40
1.1028640000000001
100
AcDbArc
 50
221.3573000000000093
 51
258.9743040000000178
  0
ARC
  5
A3
100
AcDbEntity
  8
0
 62
0
370
0
  6
CONTINUOUS
100
AcDbCircle
 10
382.7688640000000078
 20
69.5536479999999955
 30
0.0
 40
5.0956799999999998
100
AcDbArc
 50
138.4866330000000119
 51
185.2003170000000125
  0
ARC
  5
A4
100
AcDbEntity
  8
0
 62
0
370
0
  6
CONTINUOUS
100
AcDbCircle
 10
384.2100000000000364
 20
79.9787839999999903
 30
0.0
 40
1.5507200000000001
100
AcDbArc
 50
311.9663699999999835
 51
62.0284580000000076
  0
ARC
  5
A5
100
AcDbEntity
  8
0
 62
0
370
0
  6
CONTINUOUS
100
AcDbCircle
 10
382.9532159999999976
 20
78.691040000000001
 30
0.0
 40
0.963328
100
AcDbArc
 50
30.362410999999998
 51
138.366455000000002
  0
ARC
  5
A6
100
AcDbEntity
  8
0
 62
0
370
0
  6
CONTINUOUS
100
AcDbCircle
 10
381.5798879999999826
 20
77.9691359999999918
 30
0.0
 40
0.790528
100
AcDbArc
 50
116.2053449999999941
 51
233.8203739999999584
  0
ARC
  5
A7
100
AcDbEntity
  8
0
 62
0
370
0
  6
CONTINUOUS
100
AcDbCircle
 10
383.1732160000000249
 20
76.7910399999999953
 30
0.0
 40
2.7083520000000001
100
AcDbArc
 50
110.308441000000002
 51
135.8235019999999906
  0
ARC
  5
A8
100
AcDbEntity
  8
0
 62
0
370
0
  6
CONTINUOUS
100
AcDbCircle
 10
380.7532159999999521
 20
80.2510400000000033
 30
0.0
 40
1.6637280000000001
100
AcDbArc
 50
324.2603760000000079
 51
9.6887869999999996
  0
ARC
  5
A9
100
AcDbEntity
  8
0
 62
0
370
0
  6
CONTINUOUS
100
AcDbCircle
 10
383.2577119999999695
 20
79.7763679999999908
 30
0.0
 40
2.5099999999999998
100
AcDbArc
 50
156.6539919999999881
 51
208.8717800000000011
  0
ARC
  5
AA
100
AcDbEntity
  8
0
 62
0
370
0
  6
CONTINUOUS
100
AcDbCircle
 10
383.8473279999999477
 20
76.2502240000000029
 30
0.0
 40
2.9284159999999999
100
AcDbArc
 50
62.6389619999999994
 51
91.2309800000000024
  0
ARC
  5
AB
100
AcDbEntity
  8
0
 62
0
370
0
  6
CONTINUOUS
100
AcDbCircle
 10
385.4849120000000084
 20
80.4285599999999903
 30
0.0
 40
2.0659360000000002
100
AcDbArc
 50
188.8350680000000068
 51
217.2301030000000139
  0
ARC
  5
AC
100
AcDbEntity
  8
0
 62
0
370
0
  6
CONTINUOUS
100
AcDbCircle
 10
384.565311999999949
 20
80.277087999999992
 30
0.0
 40
1.1340159999999999
100
AcDbArc
 50
70.8492889999999989
 51
190.299209999999988
  0
ARC
  5
AD
100
AcDbEntity
  8
0
 62
0
370
0
  6
CONTINUOUS
100
AcDbCircle
 10
381.5260319999999865
 20
80.0913599999999946
 30
0.0
 40
0.24
100
AcDbArc
 50
63.3159940000000034
 51
150.1225589999999954
  0
ARC
  5
AE
100
AcDbEntity
  8
0
 62
0
370
0
  6
CONTINUOUS
100
AcDbCircle
 10
381.319535999999971
 20
79.6805119999999931
 30
0.0
 40
0.699824
100
AcDbArc
 50
344.2913510000000201
 51
63.3159940000000034
  0
ARC
  5
AF
100
AcDbEntity
  8
0
 62
0
370
0
  6
CONTINUOUS
100
AcDbCircle
 10
382.1532160000000431
 20
79.731039999999993
 30
0.0
 40
0.963328
100
AcDbArc
 50
150.1225589999999954
 51
232.2633209999999906
  0
ARC
  5
B0
100
AcDbEntity
  8
0
 62
0
370
0
  6
CONTINUOUS
100
AcDbCircle
 10
384.6435199999999668
 20
80.1994720000000001
 30
0.0
 40
0.24
100
AcDbArc
 50
46.3694460000000035
 51
103.1804280000000063
  0
ARC
  5
B1
100
AcDbEntity
  8
0
 62
0
370
0
  6
CONTINUOUS
100
AcDbCircle
 10
384.7532159999999521
 20
79.731039999999993
 30
0.0
 40
0.721104
100
AcDbArc
 50
103.1804280000000063
 51
235.6251679999999737
  0
ARC
  5
B2
100
AcDbEntity
  8
0
 62
0
370
0
  6
CONTINUOUS
100
AcDbCircle
 10
384.2732160000000476
 20
79.8110399999999913
 30
0.0
 40
0.776656
100
AcDbArc
 50
291.8327939999999785
 51
46.3694460000000035
  0
ARC
  5
B3
100
AcDbEntity
  8
0
 62
0
370
0
  6
CONTINUOUS
100
AcDbCircle
 10
385.2296320000000378
 20
77.6987840000000034
 30
0.0
 40
0.24
100
AcDbArc
 50
294.0325930000000199
 51
308.9663090000000238
  0
ARC
  5
B4
100
AcDbEntity
  8
0
 62
0
370
0
  6
CONTINUOUS
100
AcDbCircle
 10
384.8846559999999499
 20
78.1253279999999961
 30
0.0
 40
0.788592
100
AcDbArc
 50
308.9663090000000238
 51
66.9649579999999958
  0
ARC
  5
B5
100
AcDbEntity
  8
0
 62
0
370
0
  6
CONTINUOUS
100
AcDbCircle
 10
382.0635039999999663
 20
77.4030079999999998
 30
0.0
 40
0.24
100
AcDbArc
 50
244.8093409999999892
 51
261.6190189999999802
  0
ARC
  5
B6
100
AcDbEntity
  8
0
 62
0
370
0
  6
CONTINUOUS
100
AcDbCircle
 10
383.502303999999981
 20
80.4619519999999966
 30
0.0
 40
3.6204160000000001
100
AcDbArc
 50
225.2441560000000038
 51
244.8093409999999892
  0
ARC
  5
B7
100
AcDbEntity
  8
0
 62
0
370
0
  6
CONTINUOUS
100
AcDbCircle
 10
383.7776320000000396
 20
77.2739839999999987
 30
0.0
 40
0.24
100
AcDbArc
 50
110.9201199999999972
 51
120.3219600000000042
  0
ARC
  5
B8
100
AcDbEntity
  8
0
 62
0
370
0
  6
CONTINUOUS
100
AcDbCircle
 10
382.3932160000000522
 20
79.6410400000000038
 30
0.0
 40
2.502176
100
AcDbArc
 50
261.6190189999999802
 51
300.32195999999999
  0
ARC
  5
B9
100
AcDbEntity
  8
0
 62
0
370
0
  6
CONTINUOUS
100
AcDbCircle
 10
381.1760799999999563
 20
84.0795999999999992
 30
0.0
 40
7.0459199999999997
100
AcDbArc
 50
290.9201350000000161
 51
304.7597959999999944
  0
ARC
  5
BA
100
AcDbEntity
  8
0
 62
0
370
0
  6
CONTINUOUS
100
AcDbCircle
 10
382.3768320000000358
 20
77.1618879999999905
 30
0.0
 40
0.8
100
AcDbArc
 50
218.7462920000000111
 51
251.5650789999999688
  0
ARC
  5
BB
100
AcDbEntity
  8
0
 62
0
370
0
  6
CONTINUOUS
100
AcDbCircle
 10
382.8332159999999931
 20
78.5310399999999902
 30
0.0
 40
2.2432159999999999
100
AcDbArc
 50
251.5650789999999688
 51
291.9911190000000261
  0
ARC
  5
BC
100
AcDbEntity
  8
0
 62
0
370
0
  6
CONTINUOUS
100
AcDbCircle
 10
377.5532160000000204
 20
73.2910399999999953
 30
0.0
 40
5.3847199999999997
100
AcDbArc
 50
38.7462919999999968
 51
48.6138800000000018
  0
ARC
  5
BD
100
AcDbEntity
  8
0
 62
0
370
0
  6
CONTINUOUS
100
AcDbCircle
 10
388.4725439999999708
 20
70.5769760000000019
 30
0.0
 40
7.5853919999999997
100
AcDbArc
 50
114.4963300000000004
 51
129.2501070000000141
  0
ARC
  5
BE
100
AcDbEntity
  8
0
 62
0
370
0
  6
CONTINUOUS
100
AcDbCircle
 10
380.4276479999999765
 20
67.8855679999999921
 30
0.0
 40
2.9616799999999999
100
AcDbArc
 50
263.5004579999999805
 51
273.9800420000000258
  0
ARC
  5
BF
100
AcDbEntity
  8
0
 62
0
370
0
  6
CONTINUOUS
100
AcDbCircle
 10
396.4258399999999938
 20
56.6265920000000023
 30
0.0
 40
7.9924799999999996
100
AcDbArc
 50
113.2315830000000005
 51
127.926872000000003
  0
ARC
  5
C0
100
AcDbEntity
  8
0
 62
0
370
0
  6
CONTINUOUS
100
AcDbCircle
 10
380.5588000000000193
 20
79.7309759999999983
 30
0.0
 40
1.4543520000000001
100
AcDbArc
 50
337.9531559999999786
 51
350.5036929999999984
  0
MTEXT
  5
C1
100
AcDbEntity
100
AcDbMText
  8
0
 62
0
370
0
  6
CONTINUOUS
 10
383.5113119999999753
 20
90.9583200000000005
 30
0.0
 40
2.5600000000000001
 41
100.0
 71
8
 72
2
  1
Powered\~by
  7
Normal
 50
0.0
 73
0
 44
1.0
  0
MTEXT
  5
C2
100
AcDbEntity
100
AcDbMText
  8
0
 62
0
370
0
  6
CONTINUOUS
 10
383.5113119999999753
 20
87.3743199999999973
 30
0.0
 40
2.5600000000000001
 41
100.0
 71
8
 72
2
  1
LINUX
  7
Normal
 50
0.0
 73
0
 44
1.0
  0
LINE
  5
C3
100
AcDbEntity
100
AcDbLine
  8
0
 62
0
370
0
  6
CONTINUOUS
 10
130.5600000000000023
 20
55.039999999999992
 30
0.0
 11
294.3999840000000177
 21
55.039999999999992
 31
0.0
  0
LINE
  5
C4
100
AcDbEntity
100
AcDbLine
  8
0
 62
0
370
0
  6
CONTINUOUS
 10
130.5600000000000023
 20
2.5599999999999987
 30
0.0
 11
294.3999840000000177
 21
2.5599999999999987
 31
0.0
  0
LINE
  5
C5
100
AcDbEntity
100
AcDbLine
  8
0
 62
0
370
0
  6
CONTINUOUS
 10
130.5600000000000023
 20
55.039999999999992
 30
0.0
 11
130.5600000000000023
 21
2.5599999999999987
 31
0.0
  0
LINE
  5
C6
100
AcDbEntity
100
AcDbLine
  8
0
 62
0
370
0
  6
CONTINUOUS
 10
400.0
 20
0.0
 30
0.0
 11
128.0
 21
0.0
 31
0.0
  0
LINE
  5
C7
100
AcDbEntity
100
AcDbLine
  8
0
 62
0
370
0
  6
CONTINUOUS
 10
0.0
 20
0.0
 30
0.0
 11
368.8523020000000088
 21
0.0
 31
0.0
  0
LINE
  5
C8
100
AcDbEntity
100
AcDbLine
  8
0
 62
0
370
0
  6
CONTINUOUS
 10
0.0
 20
566.0
 30
0.0
 11
0.0
 21
0.0
 31
0.0
  0
LINE
  5
C9
100
AcDbEntity
100
AcDbLine
  8
0
 62
0
370
0
  6
CONTINUOUS
 10
0.0
 20
566.0
 30
0.0
 11
400.0
 21
566.0
 31
0.0
  0
LINE
  5
CA
100
AcDbEntity
100
AcDbLine
  8
0
 62
0
370
0
  6
CONTINUOUS
 10
400.0
 20
566.0
 30
0.0
 11
400.0
 21
0.0
 31
0.0
  0
MTEXT
  5
CB
100
AcDbEntity
100
AcDbMText
  8
0
 62
0
370
0
  6
CONTINUOUS
 10
171.4133199999999988
 20
112.6056359999999898
 30
0.0
 40
6.4000000000000004
 41
100.0
 71
7
 72
2
  1
PROYECTO\~CUBE\~3.0
  7
Normal_fix
 50
0.0
 73
0
 44
1.0
  0
MTEXT
  5
CC
100
AcDbEntity
100
AcDbMText
  8
0
 62
0
370
0
  6
CONTINUOUS
 10
161.3830440000000124
 20
99.2867820000000023
 30
0.0
 40
6.4000000000000004
 41
100.0
 71
7
 72
2
  1
MODULOS\~Y1.\~Primera\~generacion
  7
Normal
 50
0.0
 73
0
 44
1.0
  0
CIRCLE
  5
CD
100
AcDbEntity
100
AcDbCircle
  8
0
 62
0
370
0
  6
CONTINUOUS
 10
326.0
 20
114.0
 30
0.0
 40
2.0
  0
CIRCLE
  5
CE
100
AcDbEntity
100
AcDbCircle
  8
0
 62
0
370
0
  6
CONTINUOUS
 10
329.9662100000000464
 20
109.4978699999999918
 30
0.0
 40
2.0
  0
CIRCLE
  5
CF
100
AcDbEntity
100
AcDbCircle
  8
0
 62
0
370
0
  6
CONTINUOUS
 10
335.5642400000000407
 20
107.3386899999999997
 30
0.0
 40
2.0
  0
CIRCLE
  5
D0
100
AcDbEntity
100
AcDbCircle
  8
0
 62
0
370
0
  6
CONTINUOUS
 10
341.5434559999999919
 20
107.8376859999999908
 30
0.0
 40
2.0
  0
CIRCLE
  5
D1
100
AcDbEntity
100
AcDbCircle
  8
0
 62
0
370
0
  6
CONTINUOUS
 10
345.7917059999999765
 20
112.0747099999999961
 30
0.0
 40
2.0
  0
CIRCLE
  5
D2
100
AcDbEntity
100
AcDbCircle
  8
0
 62
0
370
0
  6
CONTINUOUS
 10
355.6503679999999576
 20
117.8790459999999882
 30
0.0
 40
2.0
  0
CIRCLE
  5
D3
100
AcDbEntity
100
AcDbCircle
  8
0
 62
0
370
0
  6
CONTINUOUS
 10
360.7685279999999466
 20
114.7478399999999965
 30
0.0
 40
2.0
  0
CIRCLE
  5
D4
100
AcDbEntity
100
AcDbCircle
  8
0
 62
0
370
0
  6
CONTINUOUS
 10
364.9910680000000411
 20
110.4851939999999928
 30
0.0
 40
2.0
  0
CIRCLE
  5
D5
100
AcDbEntity
100
AcDbCircle
  8
0
 62
0
370
0
  6
CONTINUOUS
 10
369.8280240000000276
 20
106.9350019999999972
 30
0.0
 40
2.0
  0
CIRCLE
  5
D6
100
AcDbEntity
100
AcDbCircle
  8
0
 62
0
370
0
  6
CONTINUOUS
 10
375.6334739999999783
 20
105.4194959999999952
 30
0.0
 40
2.0
  0
CIRCLE
  5
D7
100
AcDbEntity
100
AcDbCircle
  8
0
 62
0
370
0
  6
CONTINUOUS
 10
381.475467999999978
 20
106.7873739999999998
 30
0.0
 40
2.0
  0
CIRCLE
  5
D8
100
AcDbEntity
100
AcDbCircle
  8
0
 62
0
370
0
  6
CONTINUOUS
 10
385.892468000000008
 20
110.8481779999999901
 30
0.0
 40
2.0
  0
LINE
  5
D9
100
AcDbEntity
100
AcDbLine
  8
0
 62
0
370
0
  6
CONTINUOUS
 10
327.3220700000000534
 20
112.499290000000002
 30
0.0
 11
328.6441399999999931
 21
110.9985799999999898
 31
0.0
  0
LINE
  5
DA
100
AcDbEntity
100
AcDbLine
  8
0
 62
0
370
0
  6
CONTINUOUS
 10
331.8322200000000066
 20
108.7781439999999975
 30
0.0
 11
333.6982299999999668
 21
108.0584180000000032
 31
0.0
  0
LINE
  5
DB
100
AcDbEntity
100
AcDbLine
  8
0
 62
0
370
0
  6
CONTINUOUS
 10
337.5573120000000245
 20
107.5050219999999968
 30
0.0
 11
339.5503840000000082
 21
107.6713539999999938
 31
0.0
  0
LINE
  5
DC
100
AcDbEntity
100
AcDbLine
  8
0
 62
0
370
0
  6
CONTINUOUS
 10
342.9595379999999523
 20
109.2500280000000004
 30
0.0
 11
344.3756220000000212
 21
110.6623680000000007
 31
0.0
  0
LINE
  5
DD
100
AcDbEntity
100
AcDbLine
  8
0
 62
0
370
0
  6
CONTINUOUS
 10
347.1285719999999628
 20
113.5622539999999958
 30
0.0
 11
348.4654399999999441
 21
115.0497980000000098
 31
0.0
  0
LINE
  5
DE
100
AcDbEntity
100
AcDbLine
  8
0
 62
0
370
0
  6
CONTINUOUS
 10
351.7516600000000153
 20
116.9845760000000041
 30
0.0
 11
353.7010139999999865
 21
117.4318099999999845
 31
0.0
  0
LINE
  5
DF
100
AcDbEntity
100
AcDbLine
  8
0
 62
0
370
0
  6
CONTINUOUS
 10
357.3564219999999523
 20
116.8353099999999927
 30
0.0
 11
359.062473999999952
 21
115.7915759999999921
 31
0.0
  0
LINE
  5
E0
100
AcDbEntity
100
AcDbLine
  8
0
 62
0
370
0
  6
CONTINUOUS
 10
362.1760399999999436
 20
113.3269579999999905
 30
0.0
 11
363.5835540000000492
 21
111.9060759999999988
 31
0.0
  0
LINE
  5
E1
100
AcDbEntity
100
AcDbLine
  8
0
 62
0
370
0
  6
CONTINUOUS
 10
366.6033860000000004
 20
109.301795999999996
 30
0.0
 11
368.2157059999999547
 21
108.1183999999999941
 31
0.0
  0
LINE
  5
E2
100
AcDbEntity
100
AcDbLine
  8
0
 62
0
370
0
  6
CONTINUOUS
 10
371.7631740000000491
 20
106.4298339999999996
 30
0.0
 11
373.6983239999999569
 21
105.924666000000002
 31
0.0
  0
LINE
  5
E3
100
AcDbEntity
100
AcDbLine
  8
0
 62
0
370
0
  6
CONTINUOUS
 10
377.5808039999999437
 20
105.8754559999999998
 30
0.0
 11
379.5281360000000177
 21
106.3314159999999902
 31
0.0
  0
LINE
  5
E4
100
AcDbEntity
100
AcDbLine
  8
0
 62
0
370
0
  6
CONTINUOUS
 10
382.9478020000000242
 20
108.1409759999999949
 30
0.0
 11
384.4201339999999618
 21
109.494575999999995
 31
0.0
  0
CIRCLE
  5
E5
100
AcDbEntity
100
AcDbCircle
  8
0
 62
0
370
0
  6
CONTINUOUS
 10
349.8023060000000442
 20
116.5373400000000004
 30
0.0
 40
2.0
  0
ARC
  5
E6
100
AcDbEntity
  8
0
 62
0
370
0
  6
CONTINUOUS
100
AcDbCircle
 10
342.3612419999999474
 20
82.6918220000000019
 30
0.0
 40
6.4000000000000004
100
AcDbArc
 50
26.5650520000000014
 51
180.0
  0
ARC
  5
E7
100
AcDbEntity
  8
0
 62
0
370
0
  6
CONTINUOUS
100
AcDbCircle
 10
342.0412420000000111
 20
80.4518139999999988
 30
0.0
 40
6.0800080000000003
100
AcDbArc
 50
180.0
 51
0.0
  0
LINE
  5
E8
100
AcDbEntity
100
AcDbLine
  8
0
 62
0
370
0
  6
CONTINUOUS
 10
348.1212259999999787
 20
85.5718140000000034
 30
0.0
 11
350.0412420000000111
 21
85.5718140000000034
 31
0.0
  0
LINE
  5
E9
100
AcDbEntity
100
AcDbLine
  8
0
 62
0
370
0
  6
CONTINUOUS
 10
334.0412420000000111
 20
82.6918220000000019
 30
0.0
 11
334.0412420000000111
 21
80.4518139999999988
 31
0.0
  0
LINE
  5
EA
100
AcDbEntity
100
AcDbLine
  8
0
 62
0
370
0
  6
CONTINUOUS
 10
335.9612419999999702
 20
82.6918220000000019
 30
0.0
 11
335.9612419999999702
 21
80.4518139999999988
 31
0.0
  0
LINE
  5
EB
100
AcDbEntity
100
AcDbLine
  8
0
 62
0
370
0
  6
CONTINUOUS
 10
349.8028659999999945
 20
86.4126299999999929
 30
0.0
 11
350.0412420000000111
 21
85.5718140000000034
 31
0.0
  0
LINE
  5
EC
100
AcDbEntity
100
AcDbLine
  8
0
 62
0
370
0
  6
CONTINUOUS
 10
348.1212259999999787
 20
80.4518139999999988
 30
0.0
 11
342.3612419999999474
 21
80.4518139999999988
 31
0.0
  0
LINE
  5
ED
100
AcDbEntity
100
AcDbLine
  8
0
 62
0
370
0
  6
CONTINUOUS
 10
342.3612419999999474
 20
80.4518139999999988
 30
0.0
 11
342.3612419999999474
 21
82.3718140000000005
 31
0.0
  0
LINE
  5
EE
100
AcDbEntity
100
AcDbLine
  8
0
 62
0
370
0
  6
CONTINUOUS
 10
342.3612419999999474
 20
82.3718140000000005
 30
0.0
 11
350.0412420000000111
 21
82.3718140000000005
 31
0.0
  0
LINE
  5
EF
100
AcDbEntity
100
AcDbLine
  8
0
 62
0
370
0
  6
CONTINUOUS
 10
350.0412420000000111
 20
82.3718140000000005
 30
0.0
 11
350.0412420000000111
 21
80.4518139999999988
 31
0.0
  0
LINE
  5
F0
100
AcDbEntity
100
AcDbLine
  8
0
 62
0
370
0
  6
CONTINUOUS
 10
348.1212259999999787
 20
73.4118139999999926
 30
0.0
 11
350.0412420000000111
 21
73.4118139999999926
 31
0.0
  0
LINE
  5
F1
100
AcDbEntity
100
AcDbLine
  8
0
 62
0
370
0
  6
CONTINUOUS
 10
350.0412420000000111
 20
73.4118139999999926
 30
0.0
 11
350.0412420000000111
 21
80.4518139999999988
 31
0.0
  0
LINE
  5
F2
100
AcDbEntity
100
AcDbLine
  8
0
 62
0
370
0
  6
CONTINUOUS
 10
348.1212500000000318
 20
75.2524300000000039
 30
0.0
 11
348.1212259999999787
 21
73.4118139999999926
 31
0.0
  0
ARC
  5
F3
100
AcDbEntity
  8
0
 62
0
370
0
  6
CONTINUOUS
100
AcDbCircle
 10
342.0412420000000111
 20
80.4518139999999988
 30
0.0
 40
8.0
100
AcDbArc
 50
180.0
 51
319.4642029999999977
  0
ARC
  5
F4
100
AcDbEntity
  8
0
 62
0
370
0
  6
CONTINUOUS
100
AcDbCircle
 10
346.4106100000000197
 20
71.6388379999999927
 30
0.0
 40
6.4000000000000004
100
AcDbArc
 50
26.5650520000000014
 51
180.0
  0
ARC
  5
F5
100
AcDbEntity
  8
0
 62
0
370
0
  6
CONTINUOUS
100
AcDbCircle
 10
346.0906099999999697
 20
69.3988379999999978
 30
0.0
 40
6.0800080000000003
100
AcDbArc
 50
180.0
 51
0.0
  0
LINE
  5
F6
100
AcDbEntity
100
AcDbLine
  8
0
 62
0
370
0
  6
CONTINUOUS
 10
352.170594000000051
 20
74.5188299999999941
 30
0.0
 11
354.0906099999999697
 21
74.5188299999999941
 31
0.0
  0
LINE
  5
F7
100
AcDbEntity
100
AcDbLine
  8
0
 62
0
370
0
  6
CONTINUOUS
 10
338.0906099999999697
 20
71.6388379999999927
 30
0.0
 11
338.0906099999999697
 21
69.3988379999999978
 31
0.0
  0
LINE
  5
F8
100
AcDbEntity
100
AcDbLine
  8
0
 62
0
370
0
  6
CONTINUOUS
 10
340.0106100000000424
 20
71.6388379999999927
 30
0.0
 11
340.0106100000000424
 21
69.3988379999999978
 31
0.0
  0
LINE
  5
F9
100
AcDbEntity
100
AcDbLine
  8
0
 62
0
370
0
  6
CONTINUOUS
 10
353.8522339999999531
 20
75.3596539999999919
 30
0.0
 11
354.0906099999999697
 21
74.5188299999999941
 31
0.0
  0
LINE
  5
FA
100
AcDbEntity
100
AcDbLine
  8
0
 62
0
370
0
  6
CONTINUOUS
 10
352.170594000000051
 20
69.3988379999999978
 30
0.0
 11
346.4106100000000197
 21
69.3988379999999978
 31
0.0
  0
LINE
  5
FB
100
AcDbEntity
100
AcDbLine
  8
0
 62
0
370
0
  6
CONTINUOUS
 10
346.4106100000000197
 20
69.3988379999999978
 30
0.0
 11
346.4106100000000197
 21
71.3188299999999913
 31
0.0
  0
LINE
  5
FC
100
AcDbEntity
100
AcDbLine
  8
0
 62
0
370
0
  6
CONTINUOUS
 10
346.4106100000000197
 20
71.3188299999999913
 30
0.0
 11
354.0906099999999697
 21
71.3188299999999913
 31
0.0
  0
LINE
  5
FD
100
AcDbEntity
100
AcDbLine
  8
0
 62
0
370
0
  6
CONTINUOUS
 10
354.0906099999999697
 20
71.3188299999999913
 30
0.0
 11
354.0906099999999697
 21
69.3988379999999978
 31
0.0
  0
LINE
  5
FE
100
AcDbEntity
100
AcDbLine
  8
0
 62
0
370
0
  6
CONTINUOUS
 10
352.170594000000051
 20
62.3588379999999916
 30
0.0
 11
354.0906099999999697
 21
62.3588379999999916
 31
0.0
  0
LINE
  5
FF
100
AcDbEntity
100
AcDbLine
  8
0
 62
0
370
0
  6
CONTINUOUS
 10
354.0906099999999697
 20
62.3588379999999916
 30
0.0
 11
354.0906099999999697
 21
69.3988379999999978
 31
0.0
  0
LINE
  5
100
100
AcDbEntity
100
AcDbLine
  8
0
 62
0
370
0
  6
CONTINUOUS
 10
352.1706179999999904
 20
64.1994459999999947
 30
0.0
 11
352.170594000000051
 21
62.3588379999999916
 31
0.0
  0
ARC
  5
101
100
AcDbEntity
  8
0
 62
0
370
0
  6
CONTINUOUS
100
AcDbCircle
 10
346.0906099999999697
 20
69.3988379999999978
 30
0.0
 40
8.0
100
AcDbArc
 50
180.0
 51
319.4642029999999977
  0
ARC
  5
102
100
AcDbEntity
  8
0
 62
0
370
0
  6
CONTINUOUS
100
AcDbCircle
 10
342.3612419999999474
 20
82.6918220000000019
 30
0.0
 40
8.3200000000000003
100
AcDbArc
 50
26.5650520000000014
 51
180.0
  0
ARC
  5
103
100
AcDbEntity
  8
0
 62
0
370
0
  6
CONTINUOUS
100
AcDbCircle
 10
346.4106100000000197
 20
71.6388379999999927
 30
0.0
 40
8.3200000000000003
100
AcDbArc
 50
26.5650520000000014
 51
180.0
  0
MTEXT
  5
104
100
AcDbEntity
100
AcDbMText
  8
0
 62
0
370
0
  6
CONTINUOUS
 10
134.4000000000000057
 20
76.7999999999999972
 30
0.0
 40
3.8399999999999999
 41
100.0
 71
7
 72
2
  1
PIEZA:
  7
Normal_fix
 50
0.0
 73
0
 44
1.0
  0
MTEXT
  5
105
100
AcDbEntity
100
AcDbMText
  8
0
 62
0
370
0
  6
CONTINUOUS
 10
299.5199999999999818
 20
48.6400000000000006
 30
0.0
 40
3.8399999999999999
 41
100.0
 71
7
 72
2
  1
ESCALA:
  7
Normal_fix
 50
0.0
 73
0
 44
1.0
  0
MTEXT
  5
106
100
AcDbEntity
100
AcDbMText
  8
0
 62
0
370
0
  6
CONTINUOUS
 10
134.4000000000000057
 20
38.4000000000000057
 30
0.0
 40
2.5600000000000001
 41
100.0
 71
7
 72
2
  1
AUTOR:
  7
Normal
 50
0.0
 73
0
 44
1.0
  0
MTEXT
  5
107
100
AcDbEntity
100
AcDbMText
  8
0
 62
0
370
0
  6
CONTINUOUS
 10
215.039999999999992
 20
38.4000000000000057
 30
0.0
 40
2.5600000000000001
 41
100.0
 71
7
 72
2
  1
Version:
  7
Normal
 50
0.0
 73
0
 44
1.0
  0
LINE
  5
108
100
AcDbEntity
100
AcDbLine
  8
0
 62
0
370
0
  6
CONTINUOUS
 10
319.9999840000000404
 20
95.9748000000000019
 30
0.0
 11
397.4399839999999813
 21
95.9748000000000019
 31
0.0
  0
LINE
  5
109
100
AcDbEntity
100
AcDbLine
  8
0
 62
0
370
0
  6
CONTINUOUS
 10
130.5600000000000023
 20
22.9662800000000011
 30
0.0
 11
212.4799999999999898
 21
22.9662800000000011
 31
0.0
  0
MTEXT
  5
10A
100
AcDbEntity
100
AcDbMText
  8
0
 62
0
370
0
  6
CONTINUOUS
 10
138.0613559999999893
 20
25.7555020000000034
 30
0.0
 40
3.2000000000000002
 41
100.0
 71
7
 72
2
  1
Juan\~Gonzalez\~Gomez
  7
Normal
 50
0.0
 73
0
 44
1.0
  0
MTEXT
  5
10B
100
AcDbEntity
100
AcDbMText
  8
0
 62
0
370
0
  6
CONTINUOUS
 10
137.3138099999999895
 20
10.1289739999999995
 30
0.0
 40
6.4000000000000004
 41
100.0
 71
7
 72
2
  1
LICENCIA\~GPL
  7
Normal
 50
0.0
 73
0
 44
1.0
  0
MTEXT
  5
10C
100
AcDbEntity
100
AcDbMText
  8
0
 62
0
370
0
  6
CONTINUOUS
 10
229.58014399999999
 20
21.8319700000000019
 30
0.0
 40
6.4000000000000004
 41
100.0
 71
7
 72
2
  1
----
  7
Normal
 50
0.0
 73
0
 44
1.0
  0
MTEXT
  5
10D
100
AcDbEntity
100
AcDbMText
  8
0
 62
0
370
0
  6
CONTINUOUS
 10
344.9599839999999631
 20
39.6800000000000068
 30
0.0
 40
3.8399999999999999
 41
100.0
 71
7
 72
2
  1
Abril\~de\~2003
  7
Normal
 50
0.0
 73
0
 44
1.0
  0
MTEXT
  5
10E
100
AcDbEntity
100
AcDbMText
  8
0
 62
0
370
0
  6
CONTINUOUS
 10
344.7601600000000417
 20
48.8718839999999943
 30
0.0
 40
3.8399999999999999
 41
100.0
 71
7
 72
2
  1
1:2
  7
Normal
 50
0.0
 73
0
 44
1.0
  0
MTEXT
  5
10F
100
AcDbEntity
100
AcDbMText
  8
0
 62
0
370
0
  6
CONTINUOUS
 10
323.1999839999999722
 20
12.8000000000000007
 30
0.0
 40
6.4000000000000004
 41
100.0
 71
7
 72
2
  1
11-04-03
  7
Normal
 50
0.0
 73
0
 44
1.0
  0
LINE
  5
110
100
AcDbEntity
100
AcDbLine
  8
0
 62
0
370
0
  6
CONTINUOUS
 10
53.016807
 20
464.9781510000000253
 30
0.0
 11
105.016807
 21
464.9781510000000253
 31
0.0
  0
LINE
  5
111
100
AcDbEntity
100
AcDbLine
  8
0
 62
0
370
0
  6
CONTINUOUS
 10
53.016807
 20
412.9781510000000253
 30
0.0
 11
65.913802000000004
 21
412.9781510000000253
 31
0.0
  0
ARC
  5
112
100
AcDbEntity
  8
0
 62
0
370
0
  6
CONTINUOUS
100
AcDbCircle
 10
71.9242090000000047
 20
418.9885590000000093
 30
0.0
 40
1.0
100
AcDbArc
 50
225.0
 51
315.0
  0
CIRCLE
  5
113
100
AcDbEntity
100
AcDbCircle
  8
0
 62
0
370
0
  6
CONTINUOUS
 10
86.2784769999999952
 20
446.0707490000000348
 30
0.0
 40
1.3999999999999999
  0
ARC
  5
114
100
AcDbEntity
  8
0
 62
0
370
0
  6
CONTINUOUS
100
AcDbCircle
 10
86.2784769999999952
 20
458.798671000000013
 30
0.0
 40
1.0
100
AcDbArc
 50
45.0
 51
135.0
  0
LINE
  5
115
100
AcDbEntity
100
AcDbLine
  8
0
 62
0
370
0
  6
CONTINUOUS
 10
119.3710749999999905
 20
412.809078999999997
 30
0.0
 11
119.3710749999999905
 21
464.809078999999997
 31
0.0
  0
ARC
  5
116
100
AcDbEntity
  8
0
 62
0
370
0
  6
CONTINUOUS
100
AcDbCircle
 10
86.2784769999999952
 20
446.0707490000000348
 30
0.0
 40
10.5
100
AcDbArc
 50
103.4925929999999994
 51
237.7855440000000158
  0
LINE
  5
117
100
AcDbEntity
100
AcDbLine
  8
0
 62
0
370
0
  6
CONTINUOUS
 10
105.016807
 20
461.3648870000000102
 30
0.0
 11
105.016807
 21
464.9781510000000253
 31
0.0
  0
LINE
  5
118
100
AcDbEntity
100
AcDbLine
  8
0
 62
0
370
0
  6
CONTINUOUS
 10
122.3710749999999905
 20
412.809078999999997
 30
0.0
 11
122.3710749999999905
 21
464.809078999999997
 31
0.0
  0
LINE
  5
119
100
AcDbEntity
100
AcDbLine
  8
0
 62
0
370
0
  6
CONTINUOUS
 10
50.016807
 20
412.9781510000000253
 30
0.0
 11
50.016807
 21
464.9781510000000253
 31
0.0
  0
LINE
  5
11A
100
AcDbEntity
100
AcDbLine
  8
0
 62
0
370
0
  6
CONTINUOUS
 10
53.016807
 20
412.9781510000000253
 30
0.0
 11
53.016807
 21
464.9781510000000253
 31
0.0
  0
LINE
  5
11B
100
AcDbEntity
100
AcDbLine
  8
0
 62
0
370
0
  6
CONTINUOUS
 10
50.016807
 20
464.9781510000000253
 30
0.0
 11
53.016807
 21
464.9781510000000253
 31
0.0
  0
LINE
  5
11C
100
AcDbEntity
100
AcDbLine
  8
0
 62
0
370
0
  6
CONTINUOUS
 10
50.016807
 20
412.9781510000000253
 30
0.0
 11
53.016807
 21
412.9781510000000253
 31
0.0
  0
LINE
  5
11D
100
AcDbEntity
100
AcDbLine
  8
0
 62
0
370
0
  6
CONTINUOUS
 10
119.3710749999999905
 20
412.809078999999997
 30
0.0
 11
122.3710749999999905
 21
412.809078999999997
 31
0.0
  0
LINE
  5
11E
100
AcDbEntity
100
AcDbLine
  8
0
 62
0
370
0
  6
CONTINUOUS
 10
122.3710749999999905
 20
464.809078999999997
 30
0.0
 11
119.3710749999999905
 21
464.809078999999997
 31
0.0
  0
LINE
  5
11F
100
AcDbEntity
100
AcDbLine
  8
0
 62
0
370
0
  6
CONTINUOUS
 10
71.2171029999999945
 20
418.2814529999999991
 30
0.0
 11
65.913802000000004
 21
412.9781510000000253
 31
0.0
  0
ARC
  5
120
100
AcDbEntity
  8
0
 62
0
370
0
  6
CONTINUOUS
100
AcDbCircle
 10
92.8545699999999954
 20
459.4350670000000036
 30
0.0
 40
1.5
100
AcDbArc
 50
333.6444720000000075
 51
233.3407140000000197
  0
LINE
  5
121
100
AcDbEntity
100
AcDbLine
  8
0
 62
0
370
0
  6
CONTINUOUS
 10
71.2171029999999945
 20
418.2814529999999991
 30
0.0
 11
67.5636209999999977
 21
421.9349350000000527
 31
0.0
  0
LINE
  5
122
100
AcDbEntity
100
AcDbLine
  8
0
 62
0
370
0
  6
CONTINUOUS
 10
72.6313159999999982
 20
418.2814520000000016
 30
0.0
 11
87.3407830000000018
 21
432.9909190000000194
 31
0.0
  0
LINE
  5
123
100
AcDbEntity
100
AcDbLine
  8
0
 62
0
370
0
  6
CONTINUOUS
 10
53.016807
 20
412.809078999999997
 30
0.0
 11
67.5636209999999977
 21
421.9349350000000527
 31
0.0
  0
LINE
  5
124
100
AcDbEntity
100
AcDbLine
  8
0
 62
0
370
0
  6
CONTINUOUS
 10
67.5636209999999977
 20
421.9349350000000527
 30
0.0
 11
86.2662890000000004
 21
433.6679420000000391
 31
0.0
  0
LINE
  5
125
100
AcDbEntity
100
AcDbLine
  8
0
 62
0
370
0
  6
CONTINUOUS
 10
119.3710749999999905
 20
412.809078999999997
 30
0.0
 11
87.3407830000000018
 21
432.9909190000000194
 31
0.0
  0
LINE
  5
126
100
AcDbEntity
100
AcDbLine
  8
0
 62
0
370
0
  6
CONTINUOUS
 10
87.3407830000000018
 20
432.9909190000000194
 30
0.0
 11
86.2662890000000004
 21
433.6679420000000391
 31
0.0
  0
LINE
  5
127
100
AcDbEntity
100
AcDbLine
  8
0
 62
0
370
0
  6
CONTINUOUS
 10
86.2662890000000004
 20
433.6679420000000391
 30
0.0
 11
80.6810339999999968
 21
437.1871330000000171
 31
0.0
  0
LINE
  5
128
100
AcDbEntity
100
AcDbLine
  8
0
 62
0
370
0
  6
CONTINUOUS
 10
119.3710749999999905
 20
464.809078999999997
 30
0.0
 11
88.9754669999999948
 21
457.5158950000000004
 31
0.0
  0
LINE
  5
129
100
AcDbEntity
100
AcDbLine
  8
0
 62
0
370
0
  6
CONTINUOUS
 10
53.016807
 20
464.809078999999997
 30
0.0
 11
83.5767720000000054
 21
457.5111800000000244
 31
0.0
  0
LINE
  5
12A
100
AcDbEntity
100
AcDbLine
  8
0
 62
0
370
0
  6
CONTINUOUS
 10
83.5767720000000054
 20
457.5111800000000244
 30
0.0
 11
86.2726760000000041
 21
456.8673820000000205
 31
0.0
  0
LINE
  5
12B
100
AcDbEntity
100
AcDbLine
  8
0
 62
0
370
0
  6
CONTINUOUS
 10
88.9754669999999948
 20
457.5158950000000004
 30
0.0
 11
86.2726760000000041
 21
456.8673820000000205
 31
0.0
  0
LINE
  5
12C
100
AcDbEntity
100
AcDbLine
  8
0
 62
0
370
0
  6
CONTINUOUS
 10
86.2726760000000041
 20
456.8673820000000205
 30
0.0
 11
83.8286200000000008
 21
456.2809500000000185
 31
0.0
  0
LINE
  5
12D
100
AcDbEntity
100
AcDbLine
  8
0
 62
0
370
0
  6
CONTINUOUS
 10
86.2784769999999952
 20
460.2128850000000284
 30
0.0
 11
83.5767720000000054
 21
457.5111800000000244
 31
0.0
  0
LINE
  5
12E
100
AcDbEntity
100
AcDbLine
  8
0
 62
0
370
0
  6
CONTINUOUS
 10
88.9754669999999948
 20
457.5158950000000004
 30
0.0
 11
86.2784769999999952
 21
460.2128850000000284
 31
0.0
  0
LINE
  5
12F
100
AcDbEntity
100
AcDbLine
  8
0
 62
0
370
0
  6
CONTINUOUS
 10
53.016807
 20
378.7575710000000413
 30
0.0
 11
53.016807
 21
381.3575710000000072
 31
0.0
  0
LINE
  5
130
100
AcDbEntity
100
AcDbLine
  8
0
 62
0
370
0
  6
CONTINUOUS
 10
53.016807
 20
375.7575710000000413
 30
0.0
 11
53.016807
 21
378.7575710000000413
 31
0.0
  0
LINE
  5
131
100
AcDbEntity
100
AcDbLine
  8
0
 62
0
370
0
  6
CONTINUOUS
 10
119.3710749999999905
 20
394.3575710000000072
 30
0.0
 11
119.3710749999999905
 21
342.3575710000000072
 31
0.0
  0
LINE
  5
132
100
AcDbEntity
100
AcDbLine
  8
0
 62
0
370
0
  6
CONTINUOUS
 10
122.3710749999999905
 20
394.3575710000000072
 30
0.0
 11
122.3710749999999905
 21
342.3575710000000072
 31
0.0
  0
LINE
  5
133
100
AcDbEntity
100
AcDbLine
  8
0
 62
0
370
0
  6
CONTINUOUS
 10
119.3710749999999905
 20
342.3575710000000072
 30
0.0
 11
122.3710749999999905
 21
342.3575710000000072
 31
0.0
  0
LINE
  5
134
100
AcDbEntity
100
AcDbLine
  8
0
 62
0
370
0
  6
CONTINUOUS
 10
119.3710749999999905
 20
394.3575710000000072
 30
0.0
 11
122.3710749999999905
 21
394.3575710000000072
 31
0.0
  0
LINE
  5
135
100
AcDbEntity
100
AcDbLine
  8
0
 62
0
370
0
  6
CONTINUOUS
 10
75.7784769999999952
 20
345.3575710000000072
 30
0.0
 11
119.3710749999999905
 21
345.3575710000000072
 31
0.0
  0
LINE
  5
136
100
AcDbEntity
100
AcDbLine
  8
0
 62
0
370
0
  6
CONTINUOUS
 10
75.7784769999999952
 20
342.3575710000000072
 30
0.0
 11
75.7784769999999952
 21
345.3575710000000072
 31
0.0
  0
LINE
  5
137
100
AcDbEntity
100
AcDbLine
  8
0
 62
0
370
0
  6
CONTINUOUS
 10
119.3710749999999905
 20
342.3575710000000072
 30
0.0
 11
119.3710749999999905
 21
345.3575710000000072
 31
0.0
  0
LINE
  5
138
100
AcDbEntity
100
AcDbLine
  8
0
 62
0
370
0
  6
CONTINUOUS
 10
75.7784769999999952
 20
342.3575710000000072
 30
0.0
 11
119.3710749999999905
 21
342.3575710000000072
 31
0.0
  0
LINE
  5
139
100
AcDbEntity
100
AcDbLine
  8
0
 62
0
370
0
  6
CONTINUOUS
 10
50.016807
 20
342.3575710000000072
 30
0.0
 11
50.016807
 21
394.3575710000000072
 31
0.0
  0
LINE
  5
13A
100
AcDbEntity
100
AcDbLine
  8
0
 62
0
370
0
  6
CONTINUOUS
 10
50.016807
 20
394.3575710000000072
 30
0.0
 11
53.016807
 21
394.3575710000000072
 31
0.0
  0
LINE
  5
13B
100
AcDbEntity
100
AcDbLine
  8
0
 62
0
370
0
  6
CONTINUOUS
 10
50.016807
 20
342.3575710000000072
 30
0.0
 11
53.016807
 21
342.3575710000000072
 31
0.0
  0
LINE
  5
13C
100
AcDbEntity
100
AcDbLine
  8
0
 62
0
370
0
  6
CONTINUOUS
 10
96.6094049999999953
 20
348.3575710000000072
 30
0.0
 11
53.016807
 21
348.3575710000000072
 31
0.0
  0
LINE
  5
13D
100
AcDbEntity
100
AcDbLine
  8
0
 62
0
370
0
  6
CONTINUOUS
 10
96.6094049999999953
 20
345.3575710000000072
 30
0.0
 11
96.6094049999999953
 21
348.3575710000000072
 31
0.0
  0
LINE
  5
13E
100
AcDbEntity
100
AcDbLine
  8
0
 62
0
370
0
  6
CONTINUOUS
 10
53.016807
 20
345.3575710000000072
 30
0.0
 11
53.016807
 21
348.3575710000000072
 31
0.0
  0
LINE
  5
13F
100
AcDbEntity
100
AcDbLine
  8
0
 62
0
370
0
  6
CONTINUOUS
 10
96.6094049999999953
 20
345.3575710000000072
 30
0.0
 11
53.016807
 21
345.3575710000000072
 31
0.0
  0
LINE
  5
140
100
AcDbEntity
100
AcDbLine
  8
0
 62
0
370
0
  6
CONTINUOUS
 10
57.7820739999999944
 20
348.3575710000000072
 30
0.0
 11
100.420613000000003
 21
348.3575710000000072
 31
0.0
  0
LINE
  5
141
100
AcDbEntity
100
AcDbLine
  8
0
 62
0
370
0
  6
CONTINUOUS
 10
57.7820739999999944
 20
377.3575710000000072
 30
0.0
 11
57.7820739999999944
 21
381.3575710000000072
 31
0.0
  0
LINE
  5
142
100
AcDbEntity
100
AcDbLine
  8
0
 62
0
370
0
  6
CONTINUOUS
 10
105.016807
 20
374.7575710000000413
 30
0.0
 11
105.016807
 21
377.3575710000000072
 31
0.0
  0
LINE
  5
143
100
AcDbEntity
100
AcDbLine
  8
0
 62
0
370
0
  6
CONTINUOUS
 10
57.7820739999999944
 20
381.3575710000000072
 30
0.0
 11
59.8711160000000007
 21
381.8789270000000329
 31
0.0
  0
LINE
  5
144
100
AcDbEntity
100
AcDbLine
  8
0
 62
0
370
0
  6
CONTINUOUS
 10
59.8711160000000007
 20
381.8789270000000329
 30
0.0
 11
62.0247150000000005
 21
384.3575710000000072
 31
0.0
  0
LINE
  5
145
100
AcDbEntity
100
AcDbLine
  8
0
 62
0
370
0
  6
CONTINUOUS
 10
99.0063999999999993
 20
384.3575710000000072
 30
0.0
 11
100.420613000000003
 21
381.3575710000000072
 31
0.0
  0
LINE
  5
146
100
AcDbEntity
100
AcDbLine
  8
0
 62
0
370
0
  6
CONTINUOUS
 10
78.7784769999999952
 20
384.3575710000000072
 30
0.0
 11
93.7784769999999952
 21
384.3575710000000072
 31
0.0
  0
LINE
  5
147
100
AcDbEntity
100
AcDbLine
  8
0
 62
0
370
0
  6
CONTINUOUS
 10
81.2784769999999952
 20
386.3575710000000072
 30
0.0
 11
78.7784769999999952
 21
384.3575710000000072
 31
0.0
  0
LINE
  5
148
100
AcDbEntity
100
AcDbLine
  8
0
 62
0
370
0
  6
CONTINUOUS
 10
81.2784769999999952
 20
386.3575710000000072
 30
0.0
 11
91.2784769999999952
 21
386.3575710000000072
 31
0.0
  0
LINE
  5
149
100
AcDbEntity
100
AcDbLine
  8
0
 62
0
370
0
  6
CONTINUOUS
 10
91.2784769999999952
 20
386.3575710000000072
 30
0.0
 11
93.7784769999999952
 21
384.3575710000000072
 31
0.0
  0
LINE
  5
14A
100
AcDbEntity
100
AcDbLine
  8
0
 62
0
370
0
  6
CONTINUOUS
 10
83.2784769999999952
 20
387.3575710000000072
 30
0.0
 11
89.2784769999999952
 21
387.3575710000000072
 31
0.0
  0
LINE
  5
14B
100
AcDbEntity
100
AcDbLine
  8
0
 62
0
370
0
  6
CONTINUOUS
 10
89.2784769999999952
 20
386.3575710000000072
 30
0.0
 11
89.2784769999999952
 21
387.3575710000000072
 31
0.0
  0
LINE
  5
14C
100
AcDbEntity
100
AcDbLine
  8
0
 62
0
370
0
  6
CONTINUOUS
 10
83.2784769999999952
 20
386.3575710000000072
 30
0.0
 11
83.2784769999999952
 21
387.3575710000000072
 31
0.0
  0
LINE
  5
14D
100
AcDbEntity
100
AcDbLine
  8
0
 62
0
370
0
  6
CONTINUOUS
 10
75.7784769999999952
 20
390.3575710000000072
 30
0.0
 11
96.7784769999999952
 21
390.3575710000000072
 31
0.0
  0
LINE
  5
14E
100
AcDbEntity
100
AcDbLine
  8
0
 62
0
370
0
  6
CONTINUOUS
 10
83.2784769999999952
 20
393.3575710000000072
 30
0.0
 11
81.7784769999999952
 21
392.3575710000000072
 31
0.0
  0
LINE
  5
14F
100
AcDbEntity
100
AcDbLine
  8
0
 62
0
370
0
  6
CONTINUOUS
 10
89.2784769999999952
 20
393.3575710000000072
 30
0.0
 11
90.7784769999999952
 21
392.3575710000000072
 31
0.0
  0
LINE
  5
150
100
AcDbEntity
100
AcDbLine
  8
0
 62
0
370
0
  6
CONTINUOUS
 10
83.2784769999999952
 20
393.3575710000000072
 30
0.0
 11
89.2784769999999952
 21
393.3575710000000072
 31
0.0
  0
LINE
  5
151
100
AcDbEntity
100
AcDbLine
  8
0
 62
0
370
0
  6
CONTINUOUS
 10
75.7784769999999952
 20
390.3575710000000072
 30
0.0
 11
75.7784769999999952
 21
392.3575710000000072
 31
0.0
  0
LINE
  5
152
100
AcDbEntity
100
AcDbLine
  8
0
 62
0
370
0
  6
CONTINUOUS
 10
96.7784769999999952
 20
390.3575710000000072
 30
0.0
 11
96.7784769999999952
 21
392.3575710000000072
 31
0.0
  0
LINE
  5
153
100
AcDbEntity
100
AcDbLine
  8
0
 62
0
370
0
  6
CONTINUOUS
 10
82.2784769999999952
 20
387.3575710000000072
 30
0.0
 11
90.2784769999999952
 21
387.3575710000000072
 31
0.0
  0
LINE
  5
154
100
AcDbEntity
100
AcDbLine
  8
0
 62
0
370
0
  6
CONTINUOUS
 10
105.016807
 20
374.7575710000000413
 30
0.0
 11
105.016807
 21
371.7575710000000413
 31
0.0
  0
LINE
  5
155
100
AcDbEntity
100
AcDbLine
  8
0
 62
0
370
0
  6
CONTINUOUS
 10
75.7784769999999952
 20
387.3575710000000072
 30
0.0
 11
96.7784769999999952
 21
387.3575710000000072
 31
0.0
  0
LINE
  5
156
100
AcDbEntity
100
AcDbLine
  8
0
 62
0
370
0
  6
CONTINUOUS
 10
75.7784769999999952
 20
390.3575710000000072
 30
0.0
 11
119.3710749999999905
 21
390.3575710000000072
 31
0.0
  0
LINE
  5
157
100
AcDbEntity
100
AcDbLine
  8
0
 62
0
370
0
  6
CONTINUOUS
 10
75.7784769999999952
 20
387.3575710000000072
 30
0.0
 11
75.7784769999999952
 21
390.3575710000000072
 31
0.0
  0
LINE
  5
158
100
AcDbEntity
100
AcDbLine
  8
0
 62
0
370
0
  6
CONTINUOUS
 10
119.3710749999999905
 20
387.3575710000000072
 30
0.0
 11
119.3710749999999905
 21
390.3575710000000072
 31
0.0
  0
LINE
  5
159
100
AcDbEntity
100
AcDbLine
  8
0
 62
0
370
0
  6
CONTINUOUS
 10
75.7784769999999952
 20
387.3575710000000072
 30
0.0
 11
119.3710749999999905
 21
387.3575710000000072
 31
0.0
  0
LINE
  5
15A
100
AcDbEntity
100
AcDbLine
  8
0
 62
0
370
0
  6
CONTINUOUS
 10
91.0784770000000066
 20
387.3575710000000072
 30
0.0
 11
96.478476999999998
 21
387.3575710000000072
 31
0.0
  0
LINE
  5
15B
100
AcDbEntity
100
AcDbLine
  8
0
 62
0
370
0
  6
CONTINUOUS
 10
76.0784770000000066
 20
387.3575710000000072
 30
0.0
 11
81.478476999999998
 21
387.3575710000000072
 31
0.0
  0
LINE
  5
15C
100
AcDbEntity
100
AcDbLine
  8
0
 62
0
370
0
  6
CONTINUOUS
 10
100.420613000000003
 20
377.3575710000000072
 30
0.0
 11
100.420613000000003
 21
381.3575710000000072
 31
0.0
  0
LINE
  5
15D
100
AcDbEntity
100
AcDbLine
  8
0
 62
0
370
0
  6
CONTINUOUS
 10
92.2888849999999934
 20
377.3575710000000072
 30
0.0
 11
92.2888849999999934
 21
374.7575710000000413
 31
0.0
  0
LINE
  5
15E
100
AcDbEntity
100
AcDbLine
  8
0
 62
0
370
0
  6
CONTINUOUS
 10
86.2784769999999952
 20
381.3575710000000072
 30
0.0
 11
84.864262999999994
 21
384.3575710000000072
 31
0.0
  0
LINE
  5
15F
100
AcDbEntity
100
AcDbLine
  8
0
 62
0
370
0
  6
CONTINUOUS
 10
96.531525000000002
 20
377.3575710000000072
 30
0.0
 11
93.8798749999999984
 21
379.5373519999999985
 31
0.0
  0
LINE
  5
160
100
AcDbEntity
100
AcDbLine
  8
0
 62
0
370
0
  6
CONTINUOUS
 10
95.4708650000000034
 20
377.3575710000000072
 30
0.0
 11
92.8192149999999998
 21
379.5373519999999985
 31
0.0
  0
LINE
  5
161
100
AcDbEntity
100
AcDbLine
  8
0
 62
0
370
0
  6
CONTINUOUS
 10
92.8192149999999998
 20
379.5373519999999985
 30
0.0
 11
92.8192149999999998
 21
377.3575710000000072
 31
0.0
  0
LINE
  5
162
100
AcDbEntity
100
AcDbLine
  8
0
 62
0
370
0
  6
CONTINUOUS
 10
92.8192149999999998
 20
379.5373519999999985
 30
0.0
 11
93.8798749999999984
 21
379.5373519999999985
 31
0.0
  0
LINE
  5
163
100
AcDbEntity
100
AcDbLine
  8
0
 62
0
370
0
  6
CONTINUOUS
 10
53.016807
 20
377.3575710000000072
 30
0.0
 11
57.7820739999999944
 21
377.3575710000000072
 31
0.0
  0
LINE
  5
164
100
AcDbEntity
100
AcDbLine
  8
0
 62
0
370
0
  6
CONTINUOUS
 10
86.2784769999999952
 20
381.3575710000000072
 30
0.0
 11
100.420613000000003
 21
381.3575710000000072
 31
0.0
  0
LINE
  5
165
100
AcDbEntity
100
AcDbLine
  8
0
 62
0
370
0
  6
CONTINUOUS
 10
86.2784769999999952
 20
377.3575710000000072
 30
0.0
 11
86.2784769999999952
 21
381.3575710000000072
 31
0.0
  0
LINE
  5
166
100
AcDbEntity
100
AcDbLine
  8
0
 62
0
370
0
  6
CONTINUOUS
 10
53.016807
 20
374.7575710000000413
 30
0.0
 11
86.2784769999999952
 21
374.7575710000000413
 31
0.0
  0
LINE
  5
167
100
AcDbEntity
100
AcDbLine
  8
0
 62
0
370
0
  6
CONTINUOUS
 10
53.016807
 20
371.7575710000000413
 30
0.0
 11
57.7820739999999944
 21
371.7575710000000413
 31
0.0
  0
LINE
  5
168
100
AcDbEntity
100
AcDbLine
  8
0
 62
0
370
0
  6
CONTINUOUS
 10
57.7820739999999944
 20
371.7575710000000413
 30
0.0
 11
86.2784769999999952
 21
371.7575710000000413
 31
0.0
  0
LINE
  5
169
100
AcDbEntity
100
AcDbLine
  8
0
 62
0
370
0
  6
CONTINUOUS
 10
86.2784769999999952
 20
371.7575710000000413
 30
0.0
 11
105.016807
 21
371.7575710000000413
 31
0.0
  0
LINE
  5
16A
100
AcDbEntity
100
AcDbLine
  8
0
 62
0
370
0
  6
CONTINUOUS
 10
57.7820739999999944
 20
350.3575710000000072
 30
0.0
 11
86.2784769999999952
 21
350.3575710000000072
 31
0.0
  0
LINE
  5
16B
100
AcDbEntity
100
AcDbLine
  8
0
 62
0
370
0
  6
CONTINUOUS
 10
86.2784769999999952
 20
350.3575710000000072
 30
0.0
 11
100.420613000000003
 21
350.3575710000000072
 31
0.0
  0
LINE
  5
16C
100
AcDbEntity
100
AcDbLine
  8
0
 62
0
370
0
  6
CONTINUOUS
 10
57.7820739999999944
 20
348.3575710000000072
 30
0.0
 11
57.7820739999999944
 21
350.3575710000000072
 31
0.0
  0
LINE
  5
16D
100
AcDbEntity
100
AcDbLine
  8
0
 62
0
370
0
  6
CONTINUOUS
 10
57.7820739999999944
 20
350.3575710000000072
 30
0.0
 11
57.7820739999999944
 21
371.7575710000000413
 31
0.0
  0
LINE
  5
16E
100
AcDbEntity
100
AcDbLine
  8
0
 62
0
370
0
  6
CONTINUOUS
 10
86.2784769999999952
 20
371.7575710000000413
 30
0.0
 11
86.2784769999999952
 21
350.3575710000000072
 31
0.0
  0
LINE
  5
16F
100
AcDbEntity
100
AcDbLine
  8
0
 62
0
370
0
  6
CONTINUOUS
 10
86.2784769999999952
 20
350.3575710000000072
 30
0.0
 11
86.2784769999999952
 21
348.3575710000000072
 31
0.0
  0
LINE
  5
170
100
AcDbEntity
100
AcDbLine
  8
0
 62
0
370
0
  6
CONTINUOUS
 10
86.2784769999999952
 20
374.7575710000000413
 30
0.0
 11
92.2888849999999934
 21
374.7575710000000413
 31
0.0
  0
LINE
  5
171
100
AcDbEntity
100
AcDbLine
  8
0
 62
0
370
0
  6
CONTINUOUS
 10
92.2888849999999934
 20
374.7575710000000413
 30
0.0
 11
105.016807
 21
374.7575710000000413
 31
0.0
  0
LINE
  5
172
100
AcDbEntity
100
AcDbLine
  8
0
 62
0
370
0
  6
CONTINUOUS
 10
62.0247150000000005
 20
384.3575710000000072
 30
0.0
 11
69.8028889999999933
 21
384.3575710000000072
 31
0.0
  0
LINE
  5
173
100
AcDbEntity
100
AcDbLine
  8
0
 62
0
370
0
  6
CONTINUOUS
 10
69.8028889999999933
 20
384.3575710000000072
 30
0.0
 11
84.864262999999994
 21
384.3575710000000072
 31
0.0
  0
LINE
  5
174
100
AcDbEntity
100
AcDbLine
  8
0
 62
0
370
0
  6
CONTINUOUS
 10
84.864262999999994
 20
384.3575710000000072
 30
0.0
 11
99.0063999999999993
 21
384.3575710000000072
 31
0.0
  0
LINE
  5
175
100
AcDbEntity
100
AcDbLine
  8
0
 62
0
370
0
  6
CONTINUOUS
 10
53.016807
 20
377.3575710000000072
 30
0.0
 11
53.016807
 21
394.3575710000000072
 31
0.0
  0
LINE
  5
176
100
AcDbEntity
100
AcDbLine
  8
0
 62
0
370
0
  6
CONTINUOUS
 10
53.016807
 20
342.3575710000000072
 30
0.0
 11
53.016807
 21
374.7575710000000413
 31
0.0
  0
LINE
  5
177
100
AcDbEntity
100
AcDbLine
  8
0
 62
0
370
0
  6
CONTINUOUS
 10
53.016807
 20
374.7575710000000413
 30
0.0
 11
53.016807
 21
377.3575710000000072
 31
0.0
  0
LINE
  5
178
100
AcDbEntity
100
AcDbLine
  8
0
 62
0
370
0
  6
CONTINUOUS
 10
86.2784769999999952
 20
377.3575710000000072
 30
0.0
 11
92.2888849999999934
 21
377.3575710000000072
 31
0.0
  0
LINE
  5
179
100
AcDbEntity
100
AcDbLine
  8
0
 62
0
370
0
  6
CONTINUOUS
 10
92.2888849999999934
 20
377.3575710000000072
 30
0.0
 11
92.8192149999999998
 21
377.3575710000000072
 31
0.0
  0
LINE
  5
17A
100
AcDbEntity
100
AcDbLine
  8
0
 62
0
370
0
  6
CONTINUOUS
 10
92.8192149999999998
 20
377.3575710000000072
 30
0.0
 11
96.531525000000002
 21
377.3575710000000072
 31
0.0
  0
LINE
  5
17B
100
AcDbEntity
100
AcDbLine
  8
0
 62
0
370
0
  6
CONTINUOUS
 10
96.531525000000002
 20
377.3575710000000072
 30
0.0
 11
105.016807
 21
377.3575710000000072
 31
0.0
  0
LINE
  5
17C
100
AcDbEntity
100
AcDbLine
  8
0
 62
0
370
0
  6
CONTINUOUS
 10
100.420613000000003
 20
348.3575710000000072
 30
0.0
 11
100.420613000000003
 21
350.3575710000000072
 31
0.0
  0
LINE
  5
17D
100
AcDbEntity
100
AcDbLine
  8
0
 62
0
370
0
  6
CONTINUOUS
 10
100.420613000000003
 20
350.3575710000000072
 30
0.0
 11
100.420613000000003
 21
371.7575710000000413
 31
0.0
  0
LINE
  5
17E
100
AcDbEntity
100
AcDbLine
  8
0
 62
0
370
0
  6
CONTINUOUS
 10
75.7784769999999952
 20
392.3575710000000072
 30
0.0
 11
81.7784769999999952
 21
392.3575710000000072
 31
0.0
  0
LINE
  5
17F
100
AcDbEntity
100
AcDbLine
  8
0
 62
0
370
0
  6
CONTINUOUS
 10
81.7784769999999952
 20
392.3575710000000072
 30
0.0
 11
90.7784769999999952
 21
392.3575710000000072
 31
0.0
  0
LINE
  5
180
100
AcDbEntity
100
AcDbLine
  8
0
 62
0
370
0
  6
CONTINUOUS
 10
90.7784769999999952
 20
392.3575710000000072
 30
0.0
 11
96.7784769999999952
 21
392.3575710000000072
 31
0.0
  0
LINE
  5
181
100
AcDbEntity
100
AcDbLine
  8
0
 62
0
370
0
  6
CONTINUOUS
 10
69.8028889999999933
 20
384.3575710000000072
 30
0.0
 11
59.8711160000000007
 21
381.8789270000000329
 31
0.0
  0
LINE
  5
182
100
AcDbEntity
100
AcDbLine
  8
0
 62
0
370
0
  6
CONTINUOUS
 10
59.8711160000000007
 20
381.8789270000000329
 30
0.0
 11
57.7820739999999944
 21
381.3575710000000072
 31
0.0
  0
LINE
  5
183
100
AcDbEntity
100
AcDbLine
  8
0
 62
0
370
0
  6
CONTINUOUS
 10
125.3710749999999905
 20
464.809078999999997
 30
0.0
 11
177.3710749999999905
 21
464.809078999999997
 31
0.0
  0
LINE
  5
184
100
AcDbEntity
100
AcDbLine
  8
0
 62
0
370
0
  6
CONTINUOUS
 10
125.3710749999999905
 20
412.809078999999997
 30
0.0
 11
138.2680699999999945
 21
412.809078999999997
 31
0.0
  0
ARC
  5
185
100
AcDbEntity
  8
0
 62
0
370
0
  6
CONTINUOUS
100
AcDbCircle
 10
144.2784770000000094
 20
418.8194870000000378
 30
0.0
 40
1.0
100
AcDbArc
 50
225.0
 51
315.0
  0
CIRCLE
  5
186
100
AcDbEntity
100
AcDbCircle
  8
0
 62
0
370
0
  6
CONTINUOUS
 10
158.6327449999999999
 20
445.9016770000000065
 30
0.0
 40
1.3999999999999999
  0
ARC
  5
187
100
AcDbEntity
  8
0
 62
0
370
0
  6
CONTINUOUS
100
AcDbCircle
 10
158.6327449999999999
 20
458.6295990000000415
 30
0.0
 40
1.0
100
AcDbArc
 50
45.0
 51
135.0
  0
LINE
  5
188
100
AcDbEntity
100
AcDbLine
  8
0
 62
0
370
0
  6
CONTINUOUS
 10
191.7253430000000094
 20
412.6400070000000255
 30
0.0
 11
191.7253430000000094
 21
464.6400070000000255
 31
0.0
  0
ARC
  5
189
100
AcDbEntity
  8
0
 62
0
370
0
  6
CONTINUOUS
100
AcDbCircle
 10
158.6327449999999999
 20
445.9016770000000065
 30
0.0
 40
10.5
100
AcDbArc
 50
103.4925929999999994
 51
237.7855440000000158
  0
LINE
  5
18A
100
AcDbEntity
100
AcDbLine
  8
0
 62
0
370
0
  6
CONTINUOUS
 10
177.3710749999999905
 20
461.1958150000000387
 30
0.0
 11
177.3710749999999905
 21
464.809078999999997
 31
0.0
  0
LINE
  5
18B
100
AcDbEntity
100
AcDbLine
  8
0
 62
0
370
0
  6
CONTINUOUS
 10
194.7253430000000094
 20
412.6400070000000255
 30
0.0
 11
194.7253430000000094
 21
464.6400070000000255
 31
0.0
  0
LINE
  5
18C
100
AcDbEntity
100
AcDbLine
  8
0
 62
0
370
0
  6
CONTINUOUS
 10
122.3710749999999905
 20
412.809078999999997
 30
0.0
 11
122.3710749999999905
 21
464.809078999999997
 31
0.0
  0
LINE
  5
18D
100
AcDbEntity
100
AcDbLine
  8
0
 62
0
370
0
  6
CONTINUOUS
 10
125.3710749999999905
 20
412.809078999999997
 30
0.0
 11
125.3710749999999905
 21
464.809078999999997
 31
0.0
  0
LINE
  5
18E
100
AcDbEntity
100
AcDbLine
  8
0
 62
0
370
0
  6
CONTINUOUS
 10
122.3710749999999905
 20
464.809078999999997
 30
0.0
 11
125.3710749999999905
 21
464.809078999999997
 31
0.0
  0
LINE
  5
18F
100
AcDbEntity
100
AcDbLine
  8
0
 62
0
370
0
  6
CONTINUOUS
 10
122.3710749999999905
 20
412.809078999999997
 30
0.0
 11
125.3710749999999905
 21
412.809078999999997
 31
0.0
  0
LINE
  5
190
100
AcDbEntity
100
AcDbLine
  8
0
 62
0
370
0
  6
CONTINUOUS
 10
191.7253430000000094
 20
412.6400070000000255
 30
0.0
 11
194.7253430000000094
 21
412.6400070000000255
 31
0.0
  0
LINE
  5
191
100
AcDbEntity
100
AcDbLine
  8
0
 62
0
370
0
  6
CONTINUOUS
 10
194.7253430000000094
 20
464.6400070000000255
 30
0.0
 11
191.7253430000000094
 21
464.6400070000000255
 31
0.0
  0
LINE
  5
192
100
AcDbEntity
100
AcDbLine
  8
0
 62
0
370
0
  6
CONTINUOUS
 10
143.5713709999999992
 20
418.1123810000000276
 30
0.0
 11
138.2680699999999945
 21
412.809078999999997
 31
0.0
  0
ARC
  5
193
100
AcDbEntity
  8
0
 62
0
370
0
  6
CONTINUOUS
100
AcDbCircle
 10
165.2088379999999859
 20
459.2659950000000322
 30
0.0
 40
1.5
100
AcDbArc
 50
333.6444720000000075
 51
233.3407140000000197
  0
LINE
  5
194
100
AcDbEntity
100
AcDbLine
  8
0
 62
0
370
0
  6
CONTINUOUS
 10
143.5713709999999992
 20
418.1123810000000276
 30
0.0
 11
139.9178890000000024
 21
421.7658630000000244
 31
0.0
  0
LINE
  5
195
100
AcDbEntity
100
AcDbLine
  8
0
 62
0
370
0
  6
CONTINUOUS
 10
144.9855839999999887
 20
418.1123800000000301
 30
0.0
 11
159.6950510000000065
 21
432.821847000000048
 31
0.0
  0
LINE
  5
196
100
AcDbEntity
100
AcDbLine
  8
0
 62
0
370
0
  6
CONTINUOUS
 10
125.3710749999999905
 20
412.6400070000000255
 30
0.0
 11
139.9178890000000024
 21
421.7658630000000244
 31
0.0
  0
LINE
  5
197
100
AcDbEntity
100
AcDbLine
  8
0
 62
0
370
0
  6
CONTINUOUS
 10
139.9178890000000024
 20
421.7658630000000244
 30
0.0
 11
158.6205569999999909
 21
433.4988700000000108
 31
0.0
  0
LINE
  5
198
100
AcDbEntity
100
AcDbLine
  8
0
 62
0
370
0
  6
CONTINUOUS
 10
191.7253430000000094
 20
412.6400070000000255
 30
0.0
 11
159.6950510000000065
 21
432.821847000000048
 31
0.0
  0
LINE
  5
199
100
AcDbEntity
100
AcDbLine
  8
0
 62
0
370
0
  6
CONTINUOUS
 10
159.6950510000000065
 20
432.821847000000048
 30
0.0
 11
158.6205569999999909
 21
433.4988700000000108
 31
0.0
  0
LINE
  5
19A
100
AcDbEntity
100
AcDbLine
  8
0
 62
0
370
0
  6
CONTINUOUS
 10
158.6205569999999909
 20
433.4988700000000108
 30
0.0
 11
153.0353020000000015
 21
437.0180610000000456
 31
0.0
  0
LINE
  5
19B
100
AcDbEntity
100
AcDbLine
  8
0
 62
0
370
0
  6
CONTINUOUS
 10
191.7253430000000094
 20
464.6400070000000255
 30
0.0
 11
161.3297349999999994
 21
457.346823000000029
 31
0.0
  0
LINE
  5
19C
100
AcDbEntity
100
AcDbLine
  8
0
 62
0
370
0
  6
CONTINUOUS
 10
125.3710749999999905
 20
464.6400070000000255
 30
0.0
 11
155.9310399999999959
 21
457.3421080000000529
 31
0.0
  0
LINE
  5
19D
100
AcDbEntity
100
AcDbLine
  8
0
 62
0
370
0
  6
CONTINUOUS
 10
155.9310399999999959
 20
457.3421080000000529
 30
0.0
 11
158.6269440000000088
 21
456.6983100000000491
 31
0.0
  0
LINE
  5
19E
100
AcDbEntity
100
AcDbLine
  8
0
 62
0
370
0
  6
CONTINUOUS
 10
161.3297349999999994
 20
457.346823000000029
 30
0.0
 11
158.6269440000000088
 21
456.6983100000000491
 31
0.0
  0
LINE
  5
19F
100
AcDbEntity
100
AcDbLine
  8
0
 62
0
370
0
  6
CONTINUOUS
 10
158.6269440000000088
 20
456.6983100000000491
 30
0.0
 11
156.1828879999999913
 21
456.111878000000047
 31
0.0
  0
LINE
  5
1A0
100
AcDbEntity
100
AcDbLine
  8
0
 62
0
370
0
  6
CONTINUOUS
 10
158.6327449999999999
 20
460.0438130000000001
 30
0.0
 11
155.9310399999999959
 21
457.3421080000000529
 31
0.0
  0
LINE
  5
1A1
100
AcDbEntity
100
AcDbLine
  8
0
 62
0
370
0
  6
CONTINUOUS
 10
161.3297349999999994
 20
457.346823000000029
 30
0.0
 11
158.6327449999999999
 21
460.0438130000000001
 31
0.0
  0
LINE
  5
1A2
100
AcDbEntity
100
AcDbLine
  8
0
 62
0
370
0
  6
CONTINUOUS
 10
125.3710749999999905
 20
378.588499000000013
 30
0.0
 11
125.3710749999999905
 21
381.1884990000000357
 31
0.0
  0
LINE
  5
1A3
100
AcDbEntity
100
AcDbLine
  8
0
 62
0
370
0
  6
CONTINUOUS
 10
125.3710749999999905
 20
375.588499000000013
 30
0.0
 11
125.3710749999999905
 21
378.588499000000013
 31
0.0
  0
LINE
  5
1A4
100
AcDbEntity
100
AcDbLine
  8
0
 62
0
370
0
  6
CONTINUOUS
 10
191.7253430000000094
 20
394.1884990000000357
 30
0.0
 11
191.7253430000000094
 21
342.1884990000000357
 31
0.0
  0
LINE
  5
1A5
100
AcDbEntity
100
AcDbLine
  8
0
 62
0
370
0
  6
CONTINUOUS
 10
194.7253430000000094
 20
394.1884990000000357
 30
0.0
 11
194.7253430000000094
 21
342.1884990000000357
 31
0.0
  0
LINE
  5
1A6
100
AcDbEntity
100
AcDbLine
  8
0
 62
0
370
0
  6
CONTINUOUS
 10
191.7253430000000094
 20
342.1884990000000357
 30
0.0
 11
194.7253430000000094
 21
342.1884990000000357
 31
0.0
  0
LINE
  5
1A7
100
AcDbEntity
100
AcDbLine
  8
0
 62
0
370
0
  6
CONTINUOUS
 10
191.7253430000000094
 20
394.1884990000000357
 30
0.0
 11
194.7253430000000094
 21
394.1884990000000357
 31
0.0
  0
LINE
  5
1A8
100
AcDbEntity
100
AcDbLine
  8
0
 62
0
370
0
  6
CONTINUOUS
 10
148.1327449999999999
 20
345.1884990000000357
 30
0.0
 11
191.7253430000000094
 21
345.1884990000000357
 31
0.0
  0
LINE
  5
1A9
100
AcDbEntity
100
AcDbLine
  8
0
 62
0
370
0
  6
CONTINUOUS
 10
148.1327449999999999
 20
342.1884990000000357
 30
0.0
 11
148.1327449999999999
 21
345.1884990000000357
 31
0.0
  0
LINE
  5
1AA
100
AcDbEntity
100
AcDbLine
  8
0
 62
0
370
0
  6
CONTINUOUS
 10
191.7253430000000094
 20
342.1884990000000357
 30
0.0
 11
191.7253430000000094
 21
345.1884990000000357
 31
0.0
  0
LINE
  5
1AB
100
AcDbEntity
100
AcDbLine
  8
0
 62
0
370
0
  6
CONTINUOUS
 10
148.1327449999999999
 20
342.1884990000000357
 30
0.0
 11
191.7253430000000094
 21
342.1884990000000357
 31
0.0
  0
LINE
  5
1AC
100
AcDbEntity
100
AcDbLine
  8
0
 62
0
370
0
  6
CONTINUOUS
 10
122.3710749999999905
 20
342.1884990000000357
 30
0.0
 11
122.3710749999999905
 21
394.1884990000000357
 31
0.0
  0
LINE
  5
1AD
100
AcDbEntity
100
AcDbLine
  8
0
 62
0
370
0
  6
CONTINUOUS
 10
122.3710749999999905
 20
394.1884990000000357
 30
0.0
 11
125.3710749999999905
 21
394.1884990000000357
 31
0.0
  0
LINE
  5
1AE
100
AcDbEntity
100
AcDbLine
  8
0
 62
0
370
0
  6
CONTINUOUS
 10
122.3710749999999905
 20
342.1884990000000357
 30
0.0
 11
125.3710749999999905
 21
342.1884990000000357
 31
0.0
  0
LINE
  5
1AF
100
AcDbEntity
100
AcDbLine
  8
0
 62
0
370
0
  6
CONTINUOUS
 10
168.963673
 20
348.1884990000000357
 30
0.0
 11
125.3710749999999905
 21
348.1884990000000357
 31
0.0
  0
LINE
  5
1B0
100
AcDbEntity
100
AcDbLine
  8
0
 62
0
370
0
  6
CONTINUOUS
 10
168.963673
 20
345.1884990000000357
 30
0.0
 11
168.963673
 21
348.1884990000000357
 31
0.0
  0
LINE
  5
1B1
100
AcDbEntity
100
AcDbLine
  8
0
 62
0
370
0
  6
CONTINUOUS
 10
125.3710749999999905
 20
345.1884990000000357
 30
0.0
 11
125.3710749999999905
 21
348.1884990000000357
 31
0.0
  0
LINE
  5
1B2
100
AcDbEntity
100
AcDbLine
  8
0
 62
0
370
0
  6
CONTINUOUS
 10
168.963673
 20
345.1884990000000357
 30
0.0
 11
125.3710749999999905
 21
345.1884990000000357
 31
0.0
  0
LINE
  5
1B3
100
AcDbEntity
100
AcDbLine
  8
0
 62
0
370
0
  6
CONTINUOUS
 10
130.1363420000000133
 20
348.1884990000000357
 30
0.0
 11
172.7748809999999935
 21
348.1884990000000357
 31
0.0
  0
LINE
  5
1B4
100
AcDbEntity
100
AcDbLine
  8
0
 62
0
370
0
  6
CONTINUOUS
 10
130.1363420000000133
 20
377.1884990000000357
 30
0.0
 11
130.1363420000000133
 21
381.1884990000000357
 31
0.0
  0
LINE
  5
1B5
100
AcDbEntity
100
AcDbLine
  8
0
 62
0
370
0
  6
CONTINUOUS
 10
177.3710749999999905
 20
374.588499000000013
 30
0.0
 11
177.3710749999999905
 21
377.1884990000000357
 31
0.0
  0
LINE
  5
1B6
100
AcDbEntity
100
AcDbLine
  8
0
 62
0
370
0
  6
CONTINUOUS
 10
130.1363420000000133
 20
381.1884990000000357
 30
0.0
 11
132.2253839999999911
 21
381.7098550000000046
 31
0.0
  0
LINE
  5
1B7
100
AcDbEntity
100
AcDbLine
  8
0
 62
0
370
0
  6
CONTINUOUS
 10
132.2253839999999911
 20
381.7098550000000046
 30
0.0
 11
134.3789830000000052
 21
384.1884990000000357
 31
0.0
  0
LINE
  5
1B8
100
AcDbEntity
100
AcDbLine
  8
0
 62
0
370
0
  6
CONTINUOUS
 10
171.360668000000004
 20
384.1884990000000357
 30
0.0
 11
172.7748809999999935
 21
381.1884990000000357
 31
0.0
  0
LINE
  5
1B9
100
AcDbEntity
100
AcDbLine
  8
0
 62
0
370
0
  6
CONTINUOUS
 10
151.1327449999999999
 20
384.1884990000000357
 30
0.0
 11
166.1327449999999999
 21
384.1884990000000357
 31
0.0
  0
LINE
  5
1BA
100
AcDbEntity
100
AcDbLine
  8
0
 62
0
370
0
  6
CONTINUOUS
 10
153.6327449999999999
 20
386.1884990000000357
 30
0.0
 11
151.1327449999999999
 21
384.1884990000000357
 31
0.0
  0
LINE
  5
1BB
100
AcDbEntity
100
AcDbLine
  8
0
 62
0
370
0
  6
CONTINUOUS
 10
153.6327449999999999
 20
386.1884990000000357
 30
0.0
 11
163.6327449999999999
 21
386.1884990000000357
 31
0.0
  0
LINE
  5
1BC
100
AcDbEntity
100
AcDbLine
  8
0
 62
0
370
0
  6
CONTINUOUS
 10
163.6327449999999999
 20
386.1884990000000357
 30
0.0
 11
166.1327449999999999
 21
384.1884990000000357
 31
0.0
  0
LINE
  5
1BD
100
AcDbEntity
100
AcDbLine
  8
0
 62
0
370
0
  6
CONTINUOUS
 10
155.6327449999999999
 20
387.1884990000000357
 30
0.0
 11
161.6327449999999999
 21
387.1884990000000357
 31
0.0
  0
LINE
  5
1BE
100
AcDbEntity
100
AcDbLine
  8
0
 62
0
370
0
  6
CONTINUOUS
 10
161.6327449999999999
 20
386.1884990000000357
 30
0.0
 11
161.6327449999999999
 21
387.1884990000000357
 31
0.0
  0
LINE
  5
1BF
100
AcDbEntity
100
AcDbLine
  8
0
 62
0
370
0
  6
CONTINUOUS
 10
155.6327449999999999
 20
386.1884990000000357
 30
0.0
 11
155.6327449999999999
 21
387.1884990000000357
 31
0.0
  0
LINE
  5
1C0
100
AcDbEntity
100
AcDbLine
  8
0
 62
0
370
0
  6
CONTINUOUS
 10
148.1327449999999999
 20
390.1884990000000357
 30
0.0
 11
169.1327449999999999
 21
390.1884990000000357
 31
0.0
  0
LINE
  5
1C1
100
AcDbEntity
100
AcDbLine
  8
0
 62
0
370
0
  6
CONTINUOUS
 10
155.6327449999999999
 20
393.1884990000000357
 30
0.0
 11
154.1327449999999999
 21
392.1884990000000357
 31
0.0
  0
LINE
  5
1C2
100
AcDbEntity
100
AcDbLine
  8
0
 62
0
370
0
  6
CONTINUOUS
 10
161.6327449999999999
 20
393.1884990000000357
 30
0.0
 11
163.1327449999999999
 21
392.1884990000000357
 31
0.0
  0
LINE
  5
1C3
100
AcDbEntity
100
AcDbLine
  8
0
 62
0
370
0
  6
CONTINUOUS
 10
155.6327449999999999
 20
393.1884990000000357
 30
0.0
 11
161.6327449999999999
 21
393.1884990000000357
 31
0.0
  0
LINE
  5
1C4
100
AcDbEntity
100
AcDbLine
  8
0
 62
0
370
0
  6
CONTINUOUS
 10
148.1327449999999999
 20
390.1884990000000357
 30
0.0
 11
148.1327449999999999
 21
392.1884990000000357
 31
0.0
  0
LINE
  5
1C5
100
AcDbEntity
100
AcDbLine
  8
0
 62
0
370
0
  6
CONTINUOUS
 10
169.1327449999999999
 20
390.1884990000000357
 30
0.0
 11
169.1327449999999999
 21
392.1884990000000357
 31
0.0
  0
LINE
  5
1C6
100
AcDbEntity
100
AcDbLine
  8
0
 62
0
370
0
  6
CONTINUOUS
 10
154.6327449999999999
 20
387.1884990000000357
 30
0.0
 11
162.6327449999999999
 21
387.1884990000000357
 31
0.0
  0
LINE
  5
1C7
100
AcDbEntity
100
AcDbLine
  8
0
 62
0
370
0
  6
CONTINUOUS
 10
177.3710749999999905
 20
374.588499000000013
 30
0.0
 11
177.3710749999999905
 21
371.588499000000013
 31
0.0
  0
LINE
  5
1C8
100
AcDbEntity
100
AcDbLine
  8
0
 62
0
370
0
  6
CONTINUOUS
 10
148.1327449999999999
 20
387.1884990000000357
 30
0.0
 11
169.1327449999999999
 21
387.1884990000000357
 31
0.0
  0
LINE
  5
1C9
100
AcDbEntity
100
AcDbLine
  8
0
 62
0
370
0
  6
CONTINUOUS
 10
148.1327449999999999
 20
390.1884990000000357
 30
0.0
 11
191.7253430000000094
 21
390.1884990000000357
 31
0.0
  0
LINE
  5
1CA
100
AcDbEntity
100
AcDbLine
  8
0
 62
0
370
0
  6
CONTINUOUS
 10
148.1327449999999999
 20
387.1884990000000357
 30
0.0
 11
148.1327449999999999
 21
390.1884990000000357
 31
0.0
  0
LINE
  5
1CB
100
AcDbEntity
100
AcDbLine
  8
0
 62
0
370
0
  6
CONTINUOUS
 10
191.7253430000000094
 20
387.1884990000000357
 30
0.0
 11
191.7253430000000094
 21
390.1884990000000357
 31
0.0
  0
LINE
  5
1CC
100
AcDbEntity
100
AcDbLine
  8
0
 62
0
370
0
  6
CONTINUOUS
 10
148.1327449999999999
 20
387.1884990000000357
 30
0.0
 11
191.7253430000000094
 21
387.1884990000000357
 31
0.0
  0
LINE
  5
1CD
100
AcDbEntity
100
AcDbLine
  8
0
 62
0
370
0
  6
CONTINUOUS
 10
163.4327450000000113
 20
387.1884990000000357
 30
0.0
 11
168.8327449999999885
 21
387.1884990000000357
 31
0.0
  0
LINE
  5
1CE
100
AcDbEntity
100
AcDbLine
  8
0
 62
0
370
0
  6
CONTINUOUS
 10
148.4327450000000113
 20
387.1884990000000357
 30
0.0
 11
153.8327449999999885
 21
387.1884990000000357
 31
0.0
  0
LINE
  5
1CF
100
AcDbEntity
100
AcDbLine
  8
0
 62
0
370
0
  6
CONTINUOUS
 10
172.7748809999999935
 20
377.1884990000000357
 30
0.0
 11
172.7748809999999935
 21
381.1884990000000357
 31
0.0
  0
LINE
  5
1D0
100
AcDbEntity
100
AcDbLine
  8
0
 62
0
370
0
  6
CONTINUOUS
 10
164.6431530000000123
 20
377.1884990000000357
 30
0.0
 11
164.6431530000000123
 21
374.588499000000013
 31
0.0
  0
LINE
  5
1D1
100
AcDbEntity
100
AcDbLine
  8
0
 62
0
370
0
  6
CONTINUOUS
 10
158.6327449999999999
 20
381.1884990000000357
 30
0.0
 11
157.2185310000000129
 21
384.1884990000000357
 31
0.0
  0
LINE
  5
1D2
100
AcDbEntity
100
AcDbLine
  8
0
 62
0
370
0
  6
CONTINUOUS
 10
168.8857930000000067
 20
377.1884990000000357
 30
0.0
 11
166.2341429999999889
 21
379.368280000000027
 31
0.0
  0
LINE
  5
1D3
100
AcDbEntity
100
AcDbLine
  8
0
 62
0
370
0
  6
CONTINUOUS
 10
167.8251329999999939
 20
377.1884990000000357
 30
0.0
 11
165.1734830000000045
 21
379.368280000000027
 31
0.0
  0
LINE
  5
1D4
100
AcDbEntity
100
AcDbLine
  8
0
 62
0
370
0
  6
CONTINUOUS
 10
165.1734830000000045
 20
379.368280000000027
 30
0.0
 11
165.1734830000000045
 21
377.1884990000000357
 31
0.0
  0
LINE
  5
1D5
100
AcDbEntity
100
AcDbLine
  8
0
 62
0
370
0
  6
CONTINUOUS
 10
165.1734830000000045
 20
379.368280000000027
 30
0.0
 11
166.2341429999999889
 21
379.368280000000027
 31
0.0
  0
LINE
  5
1D6
100
AcDbEntity
100
AcDbLine
  8
0
 62
0
370
0
  6
CONTINUOUS
 10
125.3710749999999905
 20
377.1884990000000357
 30
0.0
 11
130.1363420000000133
 21
377.1884990000000357
 31
0.0
  0
LINE
  5
1D7
100
AcDbEntity
100
AcDbLine
  8
0
 62
0
370
0
  6
CONTINUOUS
 10
158.6327449999999999
 20
381.1884990000000357
 30
0.0
 11
172.7748809999999935
 21
381.1884990000000357
 31
0.0
  0
LINE
  5
1D8
100
AcDbEntity
100
AcDbLine
  8
0
 62
0
370
0
  6
CONTINUOUS
 10
158.6327449999999999
 20
377.1884990000000357
 30
0.0
 11
158.6327449999999999
 21
381.1884990000000357
 31
0.0
  0
LINE
  5
1D9
100
AcDbEntity
100
AcDbLine
  8
0
 62
0
370
0
  6
CONTINUOUS
 10
125.3710749999999905
 20
374.588499000000013
 30
0.0
 11
158.6327449999999999
 21
374.588499000000013
 31
0.0
  0
LINE
  5
1DA
100
AcDbEntity
100
AcDbLine
  8
0
 62
0
370
0
  6
CONTINUOUS
 10
125.3710749999999905
 20
371.588499000000013
 30
0.0
 11
130.1363420000000133
 21
371.588499000000013
 31
0.0
  0
LINE
  5
1DB
100
AcDbEntity
100
AcDbLine
  8
0
 62
0
370
0
  6
CONTINUOUS
 10
130.1363420000000133
 20
371.588499000000013
 30
0.0
 11
158.6327449999999999
 21
371.588499000000013
 31
0.0
  0
LINE
  5
1DC
100
AcDbEntity
100
AcDbLine
  8
0
 62
0
370
0
  6
CONTINUOUS
 10
158.6327449999999999
 20
371.588499000000013
 30
0.0
 11
177.3710749999999905
 21
371.588499000000013
 31
0.0
  0
LINE
  5
1DD
100
AcDbEntity
100
AcDbLine
  8
0
 62
0
370
0
  6
CONTINUOUS
 10
130.1363420000000133
 20
350.1884990000000357
 30
0.0
 11
158.6327449999999999
 21
350.1884990000000357
 31
0.0
  0
LINE
  5
1DE
100
AcDbEntity
100
AcDbLine
  8
0
 62
0
370
0
  6
CONTINUOUS
 10
158.6327449999999999
 20
350.1884990000000357
 30
0.0
 11
172.7748809999999935
 21
350.1884990000000357
 31
0.0
  0
LINE
  5
1DF
100
AcDbEntity
100
AcDbLine
  8
0
 62
0
370
0
  6
CONTINUOUS
 10
130.1363420000000133
 20
348.1884990000000357
 30
0.0
 11
130.1363420000000133
 21
350.1884990000000357
 31
0.0
  0
LINE
  5
1E0
100
AcDbEntity
100
AcDbLine
  8
0
 62
0
370
0
  6
CONTINUOUS
 10
130.1363420000000133
 20
350.1884990000000357
 30
0.0
 11
130.1363420000000133
 21
371.588499000000013
 31
0.0
  0
LINE
  5
1E1
100
AcDbEntity
100
AcDbLine
  8
0
 62
0
370
0
  6
CONTINUOUS
 10
158.6327449999999999
 20
371.588499000000013
 30
0.0
 11
158.6327449999999999
 21
350.1884990000000357
 31
0.0
  0
LINE
  5
1E2
100
AcDbEntity
100
AcDbLine
  8
0
 62
0
370
0
  6
CONTINUOUS
 10
158.6327449999999999
 20
350.1884990000000357
 30
0.0
 11
158.6327449999999999
 21
348.1884990000000357
 31
0.0
  0
LINE
  5
1E3
100
AcDbEntity
100
AcDbLine
  8
0
 62
0
370
0
  6
CONTINUOUS
 10
158.6327449999999999
 20
374.588499000000013
 30
0.0
 11
164.6431530000000123
 21
374.588499000000013
 31
0.0
  0
LINE
  5
1E4
100
AcDbEntity
100
AcDbLine
  8
0
 62
0
370
0
  6
CONTINUOUS
 10
164.6431530000000123
 20
374.588499000000013
 30
0.0
 11
177.3710749999999905
 21
374.588499000000013
 31
0.0
  0
LINE
  5
1E5
100
AcDbEntity
100
AcDbLine
  8
0
 62
0
370
0
  6
CONTINUOUS
 10
134.3789830000000052
 20
384.1884990000000357
 30
0.0
 11
142.1571570000000122
 21
384.1884990000000357
 31
0.0
  0
LINE
  5
1E6
100
AcDbEntity
100
AcDbLine
  8
0
 62
0
370
0
  6
CONTINUOUS
 10
142.1571570000000122
 20
384.1884990000000357
 30
0.0
 11
157.2185310000000129
 21
384.1884990000000357
 31
0.0
  0
LINE
  5
1E7
100
AcDbEntity
100
AcDbLine
  8
0
 62
0
370
0
  6
CONTINUOUS
 10
157.2185310000000129
 20
384.1884990000000357
 30
0.0
 11
171.360668000000004
 21
384.1884990000000357
 31
0.0
  0
LINE
  5
1E8
100
AcDbEntity
100
AcDbLine
  8
0
 62
0
370
0
  6
CONTINUOUS
 10
125.3710749999999905
 20
377.1884990000000357
 30
0.0
 11
125.3710749999999905
 21
394.1884990000000357
 31
0.0
  0
LINE
  5
1E9
100
AcDbEntity
100
AcDbLine
  8
0
 62
0
370
0
  6
CONTINUOUS
 10
125.3710749999999905
 20
342.1884990000000357
 30
0.0
 11
125.3710749999999905
 21
374.588499000000013
 31
0.0
  0
LINE
  5
1EA
100
AcDbEntity
100
AcDbLine
  8
0
 62
0
370
0
  6
CONTINUOUS
 10
125.3710749999999905
 20
374.588499000000013
 30
0.0
 11
125.3710749999999905
 21
377.1884990000000357
 31
0.0
  0
LINE
  5
1EB
100
AcDbEntity
100
AcDbLine
  8
0
 62
0
370
0
  6
CONTINUOUS
 10
158.6327449999999999
 20
377.1884990000000357
 30
0.0
 11
164.6431530000000123
 21
377.1884990000000357
 31
0.0
  0
LINE
  5
1EC
100
AcDbEntity
100
AcDbLine
  8
0
 62
0
370
0
  6
CONTINUOUS
 10
164.6431530000000123
 20
377.1884990000000357
 30
0.0
 11
165.1734830000000045
 21
377.1884990000000357
 31
0.0
  0
LINE
  5
1ED
100
AcDbEntity
100
AcDbLine
  8
0
 62
0
370
0
  6
CONTINUOUS
 10
165.1734830000000045
 20
377.1884990000000357
 30
0.0
 11
168.8857930000000067
 21
377.1884990000000357
 31
0.0
  0
LINE
  5
1EE
100
AcDbEntity
100
AcDbLine
  8
0
 62
0
370
0
  6
CONTINUOUS
 10
168.8857930000000067
 20
377.1884990000000357
 30
0.0
 11
177.3710749999999905
 21
377.1884990000000357
 31
0.0
  0
LINE
  5
1EF
100
AcDbEntity
100
AcDbLine
  8
0
 62
0
370
0
  6
CONTINUOUS
 10
172.7748809999999935
 20
348.1884990000000357
 30
0.0
 11
172.7748809999999935
 21
350.1884990000000357
 31
0.0
  0
LINE
  5
1F0
100
AcDbEntity
100
AcDbLine
  8
0
 62
0
370
0
  6
CONTINUOUS
 10
172.7748809999999935
 20
350.1884990000000357
 30
0.0
 11
172.7748809999999935
 21
371.588499000000013
 31
0.0
  0
LINE
  5
1F1
100
AcDbEntity
100
AcDbLine
  8
0
 62
0
370
0
  6
CONTINUOUS
 10
148.1327449999999999
 20
392.1884990000000357
 30
0.0
 11
154.1327449999999999
 21
392.1884990000000357
 31
0.0
  0
LINE
  5
1F2
100
AcDbEntity
100
AcDbLine
  8
0
 62
0
370
0
  6
CONTINUOUS
 10
154.1327449999999999
 20
392.1884990000000357
 30
0.0
 11
163.1327449999999999
 21
392.1884990000000357
 31
0.0
  0
LINE
  5
1F3
100
AcDbEntity
100
AcDbLine
  8
0
 62
0
370
0
  6
CONTINUOUS
 10
163.1327449999999999
 20
392.1884990000000357
 30
0.0
 11
169.1327449999999999
 21
392.1884990000000357
 31
0.0
  0
LINE
  5
1F4
100
AcDbEntity
100
AcDbLine
  8
0
 62
0
370
0
  6
CONTINUOUS
 10
142.1571570000000122
 20
384.1884990000000357
 30
0.0
 11
132.2253839999999911
 21
381.7098550000000046
 31
0.0
  0
LINE
  5
1F5
100
AcDbEntity
100
AcDbLine
  8
0
 62
0
370
0
  6
CONTINUOUS
 10
132.2253839999999911
 20
381.7098550000000046
 30
0.0
 11
130.1363420000000133
 21
381.1884990000000357
 31
0.0
  0
LINE
  5
1F6
100
AcDbEntity
100
AcDbLine
  8
0
 62
0
370
0
  6
CONTINUOUS
 10
197.7253430000000094
 20
464.6400070000000255
 30
0.0
 11
249.725342999999981
 21
464.6400070000000255
 31
0.0
  0
LINE
  5
1F7
100
AcDbEntity
100
AcDbLine
  8
0
 62
0
370
0
  6
CONTINUOUS
 10
197.7253430000000094
 20
412.6400070000000255
 30
0.0
 11
210.6223380000000134
 21
412.6400070000000255
 31
0.0
  0
ARC
  5
1F8
100
AcDbEntity
  8
0
 62
0
370
0
  6
CONTINUOUS
100
AcDbCircle
 10
216.6327449999999999
 20
418.6504150000000095
 30
0.0
 40
1.0
100
AcDbArc
 50
225.0
 51
315.0
  0
CIRCLE
  5
1F9
100
AcDbEntity
100
AcDbCircle
  8
0
 62
0
370
0
  6
CONTINUOUS
 10
230.9870129999999904
 20
445.732605000000035
 30
0.0
 40
1.3999999999999999
  0
ARC
  5
1FA
100
AcDbEntity
  8
0
 62
0
370
0
  6
CONTINUOUS
100
AcDbCircle
 10
230.9870129999999904
 20
458.4605270000000132
 30
0.0
 40
1.0
100
AcDbArc
 50
45.0
 51
135.0
  0
LINE
  5
1FB
100
AcDbEntity
100
AcDbLine
  8
0
 62
0
370
0
  6
CONTINUOUS
 10
264.0796109999999999
 20
412.4709349999999972
 30
0.0
 11
264.0796109999999999
 21
464.4709349999999972
 31
0.0
  0
ARC
  5
1FC
100
AcDbEntity
  8
0
 62
0
370
0
  6
CONTINUOUS
100
AcDbCircle
 10
230.9870129999999904
 20
445.732605000000035
 30
0.0
 40
10.5
100
AcDbArc
 50
103.4925929999999994
 51
237.7855440000000158
  0
LINE
  5
1FD
100
AcDbEntity
100
AcDbLine
  8
0
 62
0
370
0
  6
CONTINUOUS
 10
249.725342999999981
 20
461.0267430000000104
 30
0.0
 11
249.725342999999981
 21
464.6400070000000255
 31
0.0
  0
LINE
  5
1FE
100
AcDbEntity
100
AcDbLine
  8
0
 62
0
370
0
  6
CONTINUOUS
 10
267.0796109999999999
 20
412.4709349999999972
 30
0.0
 11
267.0796109999999999
 21
464.4709349999999972
 31
0.0
  0
LINE
  5
1FF
100
AcDbEntity
100
AcDbLine
  8
0
 62
0
370
0
  6
CONTINUOUS
 10
194.7253430000000094
 20
412.6400070000000255
 30
0.0
 11
194.7253430000000094
 21
464.6400070000000255
 31
0.0
  0
LINE
  5
200
100
AcDbEntity
100
AcDbLine
  8
0
 62
0
370
0
  6
CONTINUOUS
 10
197.7253430000000094
 20
412.6400070000000255
 30
0.0
 11
197.7253430000000094
 21
464.6400070000000255
 31
0.0
  0
LINE
  5
201
100
AcDbEntity
100
AcDbLine
  8
0
 62
0
370
0
  6
CONTINUOUS
 10
194.7253430000000094
 20
464.6400070000000255
 30
0.0
 11
197.7253430000000094
 21
464.6400070000000255
 31
0.0
  0
LINE
  5
202
100
AcDbEntity
100
AcDbLine
  8
0
 62
0
370
0
  6
CONTINUOUS
 10
194.7253430000000094
 20
412.6400070000000255
 30
0.0
 11
197.7253430000000094
 21
412.6400070000000255
 31
0.0
  0
LINE
  5
203
100
AcDbEntity
100
AcDbLine
  8
0
 62
0
370
0
  6
CONTINUOUS
 10
264.0796109999999999
 20
412.4709349999999972
 30
0.0
 11
267.0796109999999999
 21
412.4709349999999972
 31
0.0
  0
LINE
  5
204
100
AcDbEntity
100
AcDbLine
  8
0
 62
0
370
0
  6
CONTINUOUS
 10
267.0796109999999999
 20
464.4709349999999972
 30
0.0
 11
264.0796109999999999
 21
464.4709349999999972
 31
0.0
  0
LINE
  5
205
100
AcDbEntity
100
AcDbLine
  8
0
 62
0
370
0
  6
CONTINUOUS
 10
215.9256389999999897
 20
417.9433089999999993
 30
0.0
 11
210.6223380000000134
 21
412.6400070000000255
 31
0.0
  0
ARC
  5
206
100
AcDbEntity
  8
0
 62
0
370
0
  6
CONTINUOUS
100
AcDbCircle
 10
237.5631060000000048
 20
459.0969230000000039
 30
0.0
 40
1.5
100
AcDbArc
 50
333.6444720000000075
 51
233.3407140000000197
  0
LINE
  5
207
100
AcDbEntity
100
AcDbLine
  8
0
 62
0
370
0
  6
CONTINUOUS
 10
215.9256389999999897
 20
417.9433089999999993
 30
0.0
 11
212.2721569999999929
 21
421.5967910000000529
 31
0.0
  0
LINE
  5
208
100
AcDbEntity
100
AcDbLine
  8
0
 62
0
370
0
  6
CONTINUOUS
 10
217.3398520000000076
 20
417.9433080000000018
 30
0.0
 11
232.049318999999997
 21
432.6527750000000196
 31
0.0
  0
LINE
  5
209
100
AcDbEntity
100
AcDbLine
  8
0
 62
0
370
0
  6
CONTINUOUS
 10
197.7253430000000094
 20
412.4709349999999972
 30
0.0
 11
212.2721569999999929
 21
421.5967910000000529
 31
0.0
  0
LINE
  5
20A
100
AcDbEntity
100
AcDbLine
  8
0
 62
0
370
0
  6
CONTINUOUS
 10
212.2721569999999929
 20
421.5967910000000529
 30
0.0
 11
230.9748250000000098
 21
433.3297980000000393
 31
0.0
  0
LINE
  5
20B
100
AcDbEntity
100
AcDbLine
  8
0
 62
0
370
0
  6
CONTINUOUS
 10
264.0796109999999999
 20
412.4709349999999972
 30
0.0
 11
232.049318999999997
 21
432.6527750000000196
 31
0.0
  0
LINE
  5
20C
100
AcDbEntity
100
AcDbLine
  8
0
 62
0
370
0
  6
CONTINUOUS
 10
232.049318999999997
 20
432.6527750000000196
 30
0.0
 11
230.9748250000000098
 21
433.3297980000000393
 31
0.0
  0
LINE
  5
20D
100
AcDbEntity
100
AcDbLine
  8
0
 62
0
370
0
  6
CONTINUOUS
 10
230.9748250000000098
 20
433.3297980000000393
 30
0.0
 11
225.389569999999992
 21
436.8489890000000173
 31
0.0
  0
LINE
  5
20E
100
AcDbEntity
100
AcDbLine
  8
0
 62
0
370
0
  6
CONTINUOUS
 10
264.0796109999999999
 20
464.4709349999999972
 30
0.0
 11
233.6840029999999899
 21
457.1777510000000007
 31
0.0
  0
LINE
  5
20F
100
AcDbEntity
100
AcDbLine
  8
0
 62
0
370
0
  6
CONTINUOUS
 10
197.7253430000000094
 20
464.4709349999999972
 30
0.0
 11
228.2853079999999864
 21
457.1730360000000246
 31
0.0
  0
LINE
  5
210
100
AcDbEntity
100
AcDbLine
  8
0
 62
0
370
0
  6
CONTINUOUS
 10
228.2853079999999864
 20
457.1730360000000246
 30
0.0
 11
230.9812119999999993
 21
456.5292380000000207
 31
0.0
  0
LINE
  5
211
100
AcDbEntity
100
AcDbLine
  8
0
 62
0
370
0
  6
CONTINUOUS
 10
233.6840029999999899
 20
457.1777510000000007
 30
0.0
 11
230.9812119999999993
 21
456.5292380000000207
 31
0.0
  0
LINE
  5
212
100
AcDbEntity
100
AcDbLine
  8
0
 62
0
370
0
  6
CONTINUOUS
 10
230.9812119999999993
 20
456.5292380000000207
 30
0.0
 11
228.5371560000000102
 21
455.9428060000000187
 31
0.0
  0
LINE
  5
213
100
AcDbEntity
100
AcDbLine
  8
0
 62
0
370
0
  6
CONTINUOUS
 10
230.9870129999999904
 20
459.8747410000000286
 30
0.0
 11
228.2853079999999864
 21
457.1730360000000246
 31
0.0
  0
LINE
  5
214
100
AcDbEntity
100
AcDbLine
  8
0
 62
0
370
0
  6
CONTINUOUS
 10
233.6840029999999899
 20
457.1777510000000007
 30
0.0
 11
230.9870129999999904
 21
459.8747410000000286
 31
0.0
  0
LINE
  5
215
100
AcDbEntity
100
AcDbLine
  8
0
 62
0
370
0
  6
CONTINUOUS
 10
197.7253430000000094
 20
378.4194270000000415
 30
0.0
 11
197.7253430000000094
 21
381.0194270000000074
 31
0.0
  0
LINE
  5
216
100
AcDbEntity
100
AcDbLine
  8
0
 62
0
370
0
  6
CONTINUOUS
 10
197.7253430000000094
 20
375.4194270000000415
 30
0.0
 11
197.7253430000000094
 21
378.4194270000000415
 31
0.0
  0
LINE
  5
217
100
AcDbEntity
100
AcDbLine
  8
0
 62
0
370
0
  6
CONTINUOUS
 10
264.0796109999999999
 20
394.0194270000000074
 30
0.0
 11
264.0796109999999999
 21
342.0194270000000074
 31
0.0
  0
LINE
  5
218
100
AcDbEntity
100
AcDbLine
  8
0
 62
0
370
0
  6
CONTINUOUS
 10
267.0796109999999999
 20
394.0194270000000074
 30
0.0
 11
267.0796109999999999
 21
342.0194270000000074
 31
0.0
  0
LINE
  5
219
100
AcDbEntity
100
AcDbLine
  8
0
 62
0
370
0
  6
CONTINUOUS
 10
264.0796109999999999
 20
342.0194270000000074
 30
0.0
 11
267.0796109999999999
 21
342.0194270000000074
 31
0.0
  0
LINE
  5
21A
100
AcDbEntity
100
AcDbLine
  8
0
 62
0
370
0
  6
CONTINUOUS
 10
264.0796109999999999
 20
394.0194270000000074
 30
0.0
 11
267.0796109999999999
 21
394.0194270000000074
 31
0.0
  0
LINE
  5
21B
100
AcDbEntity
100
AcDbLine
  8
0
 62
0
370
0
  6
CONTINUOUS
 10
220.4870129999999904
 20
345.0194270000000074
 30
0.0
 11
264.0796109999999999
 21
345.0194270000000074
 31
0.0
  0
LINE
  5
21C
100
AcDbEntity
100
AcDbLine
  8
0
 62
0
370
0
  6
CONTINUOUS
 10
220.4870129999999904
 20
342.0194270000000074
 30
0.0
 11
220.4870129999999904
 21
345.0194270000000074
 31
0.0
  0
LINE
  5
21D
100
AcDbEntity
100
AcDbLine
  8
0
 62
0
370
0
  6
CONTINUOUS
 10
264.0796109999999999
 20
342.0194270000000074
 30
0.0
 11
264.0796109999999999
 21
345.0194270000000074
 31
0.0
  0
LINE
  5
21E
100
AcDbEntity
100
AcDbLine
  8
0
 62
0
370
0
  6
CONTINUOUS
 10
220.4870129999999904
 20
342.0194270000000074
 30
0.0
 11
264.0796109999999999
 21
342.0194270000000074
 31
0.0
  0
LINE
  5
21F
100
AcDbEntity
100
AcDbLine
  8
0
 62
0
370
0
  6
CONTINUOUS
 10
194.7253430000000094
 20
342.0194270000000074
 30
0.0
 11
194.7253430000000094
 21
394.0194270000000074
 31
0.0
  0
LINE
  5
220
100
AcDbEntity
100
AcDbLine
  8
0
 62
0
370
0
  6
CONTINUOUS
 10
194.7253430000000094
 20
394.0194270000000074
 30
0.0
 11
197.7253430000000094
 21
394.0194270000000074
 31
0.0
  0
LINE
  5
221
100
AcDbEntity
100
AcDbLine
  8
0
 62
0
370
0
  6
CONTINUOUS
 10
194.7253430000000094
 20
342.0194270000000074
 30
0.0
 11
197.7253430000000094
 21
342.0194270000000074
 31
0.0
  0
LINE
  5
222
100
AcDbEntity
100
AcDbLine
  8
0
 62
0
370
0
  6
CONTINUOUS
 10
241.3179409999999905
 20
348.0194270000000074
 30
0.0
 11
197.7253430000000094
 21
348.0194270000000074
 31
0.0
  0
LINE
  5
223
100
AcDbEntity
100
AcDbLine
  8
0
 62
0
370
0
  6
CONTINUOUS
 10
241.3179409999999905
 20
345.0194270000000074
 30
0.0
 11
241.3179409999999905
 21
348.0194270000000074
 31
0.0
  0
LINE
  5
224
100
AcDbEntity
100
AcDbLine
  8
0
 62
0
370
0
  6
CONTINUOUS
 10
197.7253430000000094
 20
345.0194270000000074
 30
0.0
 11
197.7253430000000094
 21
348.0194270000000074
 31
0.0
  0
LINE
  5
225
100
AcDbEntity
100
AcDbLine
  8
0
 62
0
370
0
  6
CONTINUOUS
 10
241.3179409999999905
 20
345.0194270000000074
 30
0.0
 11
197.7253430000000094
 21
345.0194270000000074
 31
0.0
  0
LINE
  5
226
100
AcDbEntity
100
AcDbLine
  8
0
 62
0
370
0
  6
CONTINUOUS
 10
202.4906100000000038
 20
348.0194270000000074
 30
0.0
 11
245.1291490000000124
 21
348.0194270000000074
 31
0.0
  0
LINE
  5
227
100
AcDbEntity
100
AcDbLine
  8
0
 62
0
370
0
  6
CONTINUOUS
 10
202.4906100000000038
 20
377.0194270000000074
 30
0.0
 11
202.4906100000000038
 21
381.0194270000000074
 31
0.0
  0
LINE
  5
228
100
AcDbEntity
100
AcDbLine
  8
0
 62
0
370
0
  6
CONTINUOUS
 10
249.725342999999981
 20
374.4194270000000415
 30
0.0
 11
249.725342999999981
 21
377.0194270000000074
 31
0.0
  0
LINE
  5
229
100
AcDbEntity
100
AcDbLine
  8
0
 62
0
370
0
  6
CONTINUOUS
 10
202.4906100000000038
 20
381.0194270000000074
 30
0.0
 11
204.57965200000001
 21
381.5407830000000331
 31
0.0
  0
LINE
  5
22A
100
AcDbEntity
100
AcDbLine
  8
0
 62
0
370
0
  6
CONTINUOUS
 10
204.57965200000001
 20
381.5407830000000331
 30
0.0
 11
206.7332509999999957
 21
384.0194270000000074
 31
0.0
  0
LINE
  5
22B
100
AcDbEntity
100
AcDbLine
  8
0
 62
0
370
0
  6
CONTINUOUS
 10
243.7149359999999945
 20
384.0194270000000074
 30
0.0
 11
245.1291490000000124
 21
381.0194270000000074
 31
0.0
  0
LINE
  5
22C
100
AcDbEntity
100
AcDbLine
  8
0
 62
0
370
0
  6
CONTINUOUS
 10
223.4870129999999904
 20
384.0194270000000074
 30
0.0
 11
238.4870129999999904
 21
384.0194270000000074
 31
0.0
  0
LINE
  5
22D
100
AcDbEntity
100
AcDbLine
  8
0
 62
0
370
0
  6
CONTINUOUS
 10
225.9870129999999904
 20
386.0194270000000074
 30
0.0
 11
223.4870129999999904
 21
384.0194270000000074
 31
0.0
  0
LINE
  5
22E
100
AcDbEntity
100
AcDbLine
  8
0
 62
0
370
0
  6
CONTINUOUS
 10
225.9870129999999904
 20
386.0194270000000074
 30
0.0
 11
235.9870129999999904
 21
386.0194270000000074
 31
0.0
  0
LINE
  5
22F
100
AcDbEntity
100
AcDbLine
  8
0
 62
0
370
0
  6
CONTINUOUS
 10
235.9870129999999904
 20
386.0194270000000074
 30
0.0
 11
238.4870129999999904
 21
384.0194270000000074
 31
0.0
  0
LINE
  5
230
100
AcDbEntity
100
AcDbLine
  8
0
 62
0
370
0
  6
CONTINUOUS
 10
227.9870129999999904
 20
387.0194270000000074
 30
0.0
 11
233.9870129999999904
 21
387.0194270000000074
 31
0.0
  0
LINE
  5
231
100
AcDbEntity
100
AcDbLine
  8
0
 62
0
370
0
  6
CONTINUOUS
 10
233.9870129999999904
 20
386.0194270000000074
 30
0.0
 11
233.9870129999999904
 21
387.0194270000000074
 31
0.0
  0
LINE
  5
232
100
AcDbEntity
100
AcDbLine
  8
0
 62
0
370
0
  6
CONTINUOUS
 10
227.9870129999999904
 20
386.0194270000000074
 30
0.0
 11
227.9870129999999904
 21
387.0194270000000074
 31
0.0
  0
LINE
  5
233
100
AcDbEntity
100
AcDbLine
  8
0
 62
0
370
0
  6
CONTINUOUS
 10
220.4870129999999904
 20
390.0194270000000074
 30
0.0
 11
241.4870129999999904
 21
390.0194270000000074
 31
0.0
  0
LINE
  5
234
100
AcDbEntity
100
AcDbLine
  8
0
 62
0
370
0
  6
CONTINUOUS
 10
227.9870129999999904
 20
393.0194270000000074
 30
0.0
 11
226.4870129999999904
 21
392.0194270000000074
 31
0.0
  0
LINE
  5
235
100
AcDbEntity
100
AcDbLine
  8
0
 62
0
370
0
  6
CONTINUOUS
 10
233.9870129999999904
 20
393.0194270000000074
 30
0.0
 11
235.4870129999999904
 21
392.0194270000000074
 31
0.0
  0
LINE
  5
236
100
AcDbEntity
100
AcDbLine
  8
0
 62
0
370
0
  6
CONTINUOUS
 10
227.9870129999999904
 20
393.0194270000000074
 30
0.0
 11
233.9870129999999904
 21
393.0194270000000074
 31
0.0
  0
LINE
  5
237
100
AcDbEntity
100
AcDbLine
  8
0
 62
0
370
0
  6
CONTINUOUS
 10
220.4870129999999904
 20
390.0194270000000074
 30
0.0
 11
220.4870129999999904
 21
392.0194270000000074
 31
0.0
  0
LINE
  5
238
100
AcDbEntity
100
AcDbLine
  8
0
 62
0
370
0
  6
CONTINUOUS
 10
241.4870129999999904
 20
390.0194270000000074
 30
0.0
 11
241.4870129999999904
 21
392.0194270000000074
 31
0.0
  0
LINE
  5
239
100
AcDbEntity
100
AcDbLine
  8
0
 62
0
370
0
  6
CONTINUOUS
 10
226.9870129999999904
 20
387.0194270000000074
 30
0.0
 11
234.9870129999999904
 21
387.0194270000000074
 31
0.0
  0
LINE
  5
23A
100
AcDbEntity
100
AcDbLine
  8
0
 62
0
370
0
  6
CONTINUOUS
 10
249.725342999999981
 20
374.4194270000000415
 30
0.0
 11
249.725342999999981
 21
371.4194270000000415
 31
0.0
  0
LINE
  5
23B
100
AcDbEntity
100
AcDbLine
  8
0
 62
0
370
0
  6
CONTINUOUS
 10
220.4870129999999904
 20
387.0194270000000074
 30
0.0
 11
241.4870129999999904
 21
387.0194270000000074
 31
0.0
  0
LINE
  5
23C
100
AcDbEntity
100
AcDbLine
  8
0
 62
0
370
0
  6
CONTINUOUS
 10
220.4870129999999904
 20
390.0194270000000074
 30
0.0
 11
264.0796109999999999
 21
390.0194270000000074
 31
0.0
  0
LINE
  5
23D
100
AcDbEntity
100
AcDbLine
  8
0
 62
0
370
0
  6
CONTINUOUS
 10
220.4870129999999904
 20
387.0194270000000074
 30
0.0
 11
220.4870129999999904
 21
390.0194270000000074
 31
0.0
  0
LINE
  5
23E
100
AcDbEntity
100
AcDbLine
  8
0
 62
0
370
0
  6
CONTINUOUS
 10
264.0796109999999999
 20
387.0194270000000074
 30
0.0
 11
264.0796109999999999
 21
390.0194270000000074
 31
0.0
  0
LINE
  5
23F
100
AcDbEntity
100
AcDbLine
  8
0
 62
0
370
0
  6
CONTINUOUS
 10
220.4870129999999904
 20
387.0194270000000074
 30
0.0
 11
264.0796109999999999
 21
387.0194270000000074
 31
0.0
  0
LINE
  5
240
100
AcDbEntity
100
AcDbLine
  8
0
 62
0
370
0
  6
CONTINUOUS
 10
235.7870130000000017
 20
387.0194270000000074
 30
0.0
 11
241.1870130000000074
 21
387.0194270000000074
 31
0.0
  0
LINE
  5
241
100
AcDbEntity
100
AcDbLine
  8
0
 62
0
370
0
  6
CONTINUOUS
 10
220.7870130000000017
 20
387.0194270000000074
 30
0.0
 11
226.1870130000000074
 21
387.0194270000000074
 31
0.0
  0
LINE
  5
242
100
AcDbEntity
100
AcDbLine
  8
0
 62
0
370
0
  6
CONTINUOUS
 10
245.1291490000000124
 20
377.0194270000000074
 30
0.0
 11
245.1291490000000124
 21
381.0194270000000074
 31
0.0
  0
LINE
  5
243
100
AcDbEntity
100
AcDbLine
  8
0
 62
0
370
0
  6
CONTINUOUS
 10
236.9974210000000028
 20
377.0194270000000074
 30
0.0
 11
236.9974210000000028
 21
374.4194270000000415
 31
0.0
  0
LINE
  5
244
100
AcDbEntity
100
AcDbLine
  8
0
 62
0
370
0
  6
CONTINUOUS
 10
230.9870129999999904
 20
381.0194270000000074
 30
0.0
 11
229.5727990000000034
 21
384.0194270000000074
 31
0.0
  0
LINE
  5
245
100
AcDbEntity
100
AcDbLine
  8
0
 62
0
370
0
  6
CONTINUOUS
 10
241.2400609999999972
 20
377.0194270000000074
 30
0.0
 11
238.5884110000000078
 21
379.1992079999999987
 31
0.0
  0
LINE
  5
246
100
AcDbEntity
100
AcDbLine
  8
0
 62
0
370
0
  6
CONTINUOUS
 10
240.1794010000000128
 20
377.0194270000000074
 30
0.0
 11
237.527750999999995
 21
379.1992079999999987
 31
0.0
  0
LINE
  5
247
100
AcDbEntity
100
AcDbLine
  8
0
 62
0
370
0
  6
CONTINUOUS
 10
237.527750999999995
 20
379.1992079999999987
 30
0.0
 11
237.527750999999995
 21
377.0194270000000074
 31
0.0
  0
LINE
  5
248
100
AcDbEntity
100
AcDbLine
  8
0
 62
0
370
0
  6
CONTINUOUS
 10
237.527750999999995
 20
379.1992079999999987
 30
0.0
 11
238.5884110000000078
 21
379.1992079999999987
 31
0.0
  0
LINE
  5
249
100
AcDbEntity
100
AcDbLine
  8
0
 62
0
370
0
  6
CONTINUOUS
 10
197.7253430000000094
 20
377.0194270000000074
 30
0.0
 11
202.4906100000000038
 21
377.0194270000000074
 31
0.0
  0
LINE
  5
24A
100
AcDbEntity
100
AcDbLine
  8
0
 62
0
370
0
  6
CONTINUOUS
 10
230.9870129999999904
 20
381.0194270000000074
 30
0.0
 11
245.1291490000000124
 21
381.0194270000000074
 31
0.0
  0
LINE
  5
24B
100
AcDbEntity
100
AcDbLine
  8
0
 62
0
370
0
  6
CONTINUOUS
 10
230.9870129999999904
 20
377.0194270000000074
 30
0.0
 11
230.9870129999999904
 21
381.0194270000000074
 31
0.0
  0
LINE
  5
24C
100
AcDbEntity
100
AcDbLine
  8
0
 62
0
370
0
  6
CONTINUOUS
 10
197.7253430000000094
 20
374.4194270000000415
 30
0.0
 11
230.9870129999999904
 21
374.4194270000000415
 31
0.0
  0
LINE
  5
24D
100
AcDbEntity
100
AcDbLine
  8
0
 62
0
370
0
  6
CONTINUOUS
 10
197.7253430000000094
 20
371.4194270000000415
 30
0.0
 11
202.4906100000000038
 21
371.4194270000000415
 31
0.0
  0
LINE
  5
24E
100
AcDbEntity
100
AcDbLine
  8
0
 62
0
370
0
  6
CONTINUOUS
 10
202.4906100000000038
 20
371.4194270000000415
 30
0.0
 11
230.9870129999999904
 21
371.4194270000000415
 31
0.0
  0
LINE
  5
24F
100
AcDbEntity
100
AcDbLine
  8
0
 62
0
370
0
  6
CONTINUOUS
 10
230.9870129999999904
 20
371.4194270000000415
 30
0.0
 11
249.725342999999981
 21
371.4194270000000415
 31
0.0
  0
LINE
  5
250
100
AcDbEntity
100
AcDbLine
  8
0
 62
0
370
0
  6
CONTINUOUS
 10
202.4906100000000038
 20
350.0194270000000074
 30
0.0
 11
230.9870129999999904
 21
350.0194270000000074
 31
0.0
  0
LINE
  5
251
100
AcDbEntity
100
AcDbLine
  8
0
 62
0
370
0
  6
CONTINUOUS
 10
230.9870129999999904
 20
350.0194270000000074
 30
0.0
 11
245.1291490000000124
 21
350.0194270000000074
 31
0.0
  0
LINE
  5
252
100
AcDbEntity
100
AcDbLine
  8
0
 62
0
370
0
  6
CONTINUOUS
 10
202.4906100000000038
 20
348.0194270000000074
 30
0.0
 11
202.4906100000000038
 21
350.0194270000000074
 31
0.0
  0
LINE
  5
253
100
AcDbEntity
100
AcDbLine
  8
0
 62
0
370
0
  6
CONTINUOUS
 10
202.4906100000000038
 20
350.0194270000000074
 30
0.0
 11
202.4906100000000038
 21
371.4194270000000415
 31
0.0
  0
LINE
  5
254
100
AcDbEntity
100
AcDbLine
  8
0
 62
0
370
0
  6
CONTINUOUS
 10
230.9870129999999904
 20
371.4194270000000415
 30
0.0
 11
230.9870129999999904
 21
350.0194270000000074
 31
0.0
  0
LINE
  5
255
100
AcDbEntity
100
AcDbLine
  8
0
 62
0
370
0
  6
CONTINUOUS
 10
230.9870129999999904
 20
350.0194270000000074
 30
0.0
 11
230.9870129999999904
 21
348.0194270000000074
 31
0.0
  0
LINE
  5
256
100
AcDbEntity
100
AcDbLine
  8
0
 62
0
370
0
  6
CONTINUOUS
 10
230.9870129999999904
 20
374.4194270000000415
 30
0.0
 11
236.9974210000000028
 21
374.4194270000000415
 31
0.0
  0
LINE
  5
257
100
AcDbEntity
100
AcDbLine
  8
0
 62
0
370
0
  6
CONTINUOUS
 10
236.9974210000000028
 20
374.4194270000000415
 30
0.0
 11
249.725342999999981
 21
374.4194270000000415
 31
0.0
  0
LINE
  5
258
100
AcDbEntity
100
AcDbLine
  8
0
 62
0
370
0
  6
CONTINUOUS
 10
206.7332509999999957
 20
384.0194270000000074
 30
0.0
 11
214.5114250000000027
 21
384.0194270000000074
 31
0.0
  0
LINE
  5
259
100
AcDbEntity
100
AcDbLine
  8
0
 62
0
370
0
  6
CONTINUOUS
 10
214.5114250000000027
 20
384.0194270000000074
 30
0.0
 11
229.5727990000000034
 21
384.0194270000000074
 31
0.0
  0
LINE
  5
25A
100
AcDbEntity
100
AcDbLine
  8
0
 62
0
370
0
  6
CONTINUOUS
 10
229.5727990000000034
 20
384.0194270000000074
 30
0.0
 11
243.7149359999999945
 21
384.0194270000000074
 31
0.0
  0
LINE
  5
25B
100
AcDbEntity
100
AcDbLine
  8
0
 62
0
370
0
  6
CONTINUOUS
 10
197.7253430000000094
 20
377.0194270000000074
 30
0.0
 11
197.7253430000000094
 21
394.0194270000000074
 31
0.0
  0
LINE
  5
25C
100
AcDbEntity
100
AcDbLine
  8
0
 62
0
370
0
  6
CONTINUOUS
 10
197.7253430000000094
 20
342.0194270000000074
 30
0.0
 11
197.7253430000000094
 21
374.4194270000000415
 31
0.0
  0
LINE
  5
25D
100
AcDbEntity
100
AcDbLine
  8
0
 62
0
370
0
  6
CONTINUOUS
 10
197.7253430000000094
 20
374.4194270000000415
 30
0.0
 11
197.7253430000000094
 21
377.0194270000000074
 31
0.0
  0
LINE
  5
25E
100
AcDbEntity
100
AcDbLine
  8
0
 62
0
370
0
  6
CONTINUOUS
 10
230.9870129999999904
 20
377.0194270000000074
 30
0.0
 11
236.9974210000000028
 21
377.0194270000000074
 31
0.0
  0
LINE
  5
25F
100
AcDbEntity
100
AcDbLine
  8
0
 62
0
370
0
  6
CONTINUOUS
 10
236.9974210000000028
 20
377.0194270000000074
 30
0.0
 11
237.527750999999995
 21
377.0194270000000074
 31
0.0
  0
LINE
  5
260
100
AcDbEntity
100
AcDbLine
  8
0
 62
0
370
0
  6
CONTINUOUS
 10
237.527750999999995
 20
377.0194270000000074
 30
0.0
 11
241.2400609999999972
 21
377.0194270000000074
 31
0.0
  0
LINE
  5
261
100
AcDbEntity
100
AcDbLine
  8
0
 62
0
370
0
  6
CONTINUOUS
 10
241.2400609999999972
 20
377.0194270000000074
 30
0.0
 11
249.725342999999981
 21
377.0194270000000074
 31
0.0
  0
LINE
  5
262
100
AcDbEntity
100
AcDbLine
  8
0
 62
0
370
0
  6
CONTINUOUS
 10
245.1291490000000124
 20
348.0194270000000074
 30
0.0
 11
245.1291490000000124
 21
350.0194270000000074
 31
0.0
  0
LINE
  5
263
100
AcDbEntity
100
AcDbLine
  8
0
 62
0
370
0
  6
CONTINUOUS
 10
245.1291490000000124
 20
350.0194270000000074
 30
0.0
 11
245.1291490000000124
 21
371.4194270000000415
 31
0.0
  0
LINE
  5
264
100
AcDbEntity
100
AcDbLine
  8
0
 62
0
370
0
  6
CONTINUOUS
 10
220.4870129999999904
 20
392.0194270000000074
 30
0.0
 11
226.4870129999999904
 21
392.0194270000000074
 31
0.0
  0
LINE
  5
265
100
AcDbEntity
100
AcDbLine
  8
0
 62
0
370
0
  6
CONTINUOUS
 10
226.4870129999999904
 20
392.0194270000000074
 30
0.0
 11
235.4870129999999904
 21
392.0194270000000074
 31
0.0
  0
LINE
  5
266
100
AcDbEntity
100
AcDbLine
  8
0
 62
0
370
0
  6
CONTINUOUS
 10
235.4870129999999904
 20
392.0194270000000074
 30
0.0
 11
241.4870129999999904
 21
392.0194270000000074
 31
0.0
  0
LINE
  5
267
100
AcDbEntity
100
AcDbLine
  8
0
 62
0
370
0
  6
CONTINUOUS
 10
214.5114250000000027
 20
384.0194270000000074
 30
0.0
 11
204.57965200000001
 21
381.5407830000000331
 31
0.0
  0
LINE
  5
268
100
AcDbEntity
100
AcDbLine
  8
0
 62
0
370
0
  6
CONTINUOUS
 10
204.57965200000001
 20
381.5407830000000331
 30
0.0
 11
202.4906100000000038
 21
381.0194270000000074
 31
0.0
  0
LINE
  5
269
100
AcDbEntity
100
AcDbLine
  8
0
 62
0
370
0
  6
CONTINUOUS
 10
270.0796109999999999
 20
464.4709349999999972
 30
0.0
 11
322.0796109999999999
 21
464.4709349999999972
 31
0.0
  0
LINE
  5
26A
100
AcDbEntity
100
AcDbLine
  8
0
 62
0
370
0
  6
CONTINUOUS
 10
270.0796109999999999
 20
412.4709349999999972
 30
0.0
 11
282.976605999999947
 21
412.4709349999999972
 31
0.0
  0
ARC
  5
26B
100
AcDbEntity
  8
0
 62
0
370
0
  6
CONTINUOUS
100
AcDbCircle
 10
288.9870130000000472
 20
418.481343000000038
 30
0.0
 40
1.0
100
AcDbArc
 50
225.0
 51
315.0
  0
CIRCLE
  5
26C
100
AcDbEntity
100
AcDbCircle
  8
0
 62
0
370
0
  6
CONTINUOUS
 10
303.3412809999999808
 20
445.5635330000000067
 30
0.0
 40
1.3999999999999999
  0
ARC
  5
26D
100
AcDbEntity
  8
0
 62
0
370
0
  6
CONTINUOUS
100
AcDbCircle
 10
303.3412809999999808
 20
458.2914550000000418
 30
0.0
 40
1.0
100
AcDbArc
 50
45.0
 51
135.0
  0
LINE
  5
26E
100
AcDbEntity
100
AcDbLine
  8
0
 62
0
370
0
  6
CONTINUOUS
 10
336.4338790000000472
 20
412.3018630000000257
 30
0.0
 11
336.4338790000000472
 21
464.3018630000000257
 31
0.0
  0
ARC
  5
26F
100
AcDbEntity
  8
0
 62
0
370
0
  6
CONTINUOUS
100
AcDbCircle
 10
303.3412809999999808
 20
445.5635330000000067
 30
0.0
 40
10.5
100
AcDbArc
 50
103.4925929999999994
 51
237.7855440000000158
  0
LINE
  5
270
100
AcDbEntity
100
AcDbLine
  8
0
 62
0
370
0
  6
CONTINUOUS
 10
322.0796109999999999
 20
460.8576710000000389
 30
0.0
 11
322.0796109999999999
 21
464.4709349999999972
 31
0.0
  0
LINE
  5
271
100
AcDbEntity
100
AcDbLine
  8
0
 62
0
370
0
  6
CONTINUOUS
 10
339.4338790000000472
 20
412.3018630000000257
 30
0.0
 11
339.4338790000000472
 21
464.3018630000000257
 31
0.0
  0
LINE
  5
272
100
AcDbEntity
100
AcDbLine
  8
0
 62
0
370
0
  6
CONTINUOUS
 10
267.0796109999999999
 20
412.4709349999999972
 30
0.0
 11
267.0796109999999999
 21
464.4709349999999972
 31
0.0
  0
LINE
  5
273
100
AcDbEntity
100
AcDbLine
  8
0
 62
0
370
0
  6
CONTINUOUS
 10
270.0796109999999999
 20
412.4709349999999972
 30
0.0
 11
270.0796109999999999
 21
464.4709349999999972
 31
0.0
  0
LINE
  5
274
100
AcDbEntity
100
AcDbLine
  8
0
 62
0
370
0
  6
CONTINUOUS
 10
267.0796109999999999
 20
464.4709349999999972
 30
0.0
 11
270.0796109999999999
 21
464.4709349999999972
 31
0.0
  0
LINE
  5
275
100
AcDbEntity
100
AcDbLine
  8
0
 62
0
370
0
  6
CONTINUOUS
 10
267.0796109999999999
 20
412.4709349999999972
 30
0.0
 11
270.0796109999999999
 21
412.4709349999999972
 31
0.0
  0
LINE
  5
276
100
AcDbEntity
100
AcDbLine
  8
0
 62
0
370
0
  6
CONTINUOUS
 10
336.4338790000000472
 20
412.3018630000000257
 30
0.0
 11
339.4338790000000472
 21
412.3018630000000257
 31
0.0
  0
LINE
  5
277
100
AcDbEntity
100
AcDbLine
  8
0
 62
0
370
0
  6
CONTINUOUS
 10
339.4338790000000472
 20
464.3018630000000257
 30
0.0
 11
336.4338790000000472
 21
464.3018630000000257
 31
0.0
  0
LINE
  5
278
100
AcDbEntity
100
AcDbLine
  8
0
 62
0
370
0
  6
CONTINUOUS
 10
288.2799069999999801
 20
417.7742370000000278
 30
0.0
 11
282.976605999999947
 21
412.4709349999999972
 31
0.0
  0
ARC
  5
279
100
AcDbEntity
  8
0
 62
0
370
0
  6
CONTINUOUS
100
AcDbCircle
 10
309.9173739999999952
 20
458.9278510000000324
 30
0.0
 40
1.5
100
AcDbArc
 50
333.6444720000000075
 51
233.3407140000000197
  0
LINE
  5
27A
100
AcDbEntity
100
AcDbLine
  8
0
 62
0
370
0
  6
CONTINUOUS
 10
288.2799069999999801
 20
417.7742370000000278
 30
0.0
 11
284.6264250000000402
 21
421.4277190000000246
 31
0.0
  0
LINE
  5
27B
100
AcDbEntity
100
AcDbLine
  8
0
 62
0
370
0
  6
CONTINUOUS
 10
289.6941199999999981
 20
417.7742360000000303
 30
0.0
 11
304.4035870000000159
 21
432.4837030000000482
 31
0.0
  0
LINE
  5
27C
100
AcDbEntity
100
AcDbLine
  8
0
 62
0
370
0
  6
CONTINUOUS
 10
270.0796109999999999
 20
412.3018630000000257
 30
0.0
 11
284.6264250000000402
 21
421.4277190000000246
 31
0.0
  0
LINE
  5
27D
100
AcDbEntity
100
AcDbLine
  8
0
 62
0
370
0
  6
CONTINUOUS
 10
284.6264250000000402
 20
421.4277190000000246
 30
0.0
 11
303.3290929999999435
 21
433.160726000000011
 31
0.0
  0
LINE
  5
27E
100
AcDbEntity
100
AcDbLine
  8
0
 62
0
370
0
  6
CONTINUOUS
 10
336.4338790000000472
 20
412.3018630000000257
 30
0.0
 11
304.4035870000000159
 21
432.4837030000000482
 31
0.0
  0
LINE
  5
27F
100
AcDbEntity
100
AcDbLine
  8
0
 62
0
370
0
  6
CONTINUOUS
 10
304.4035870000000159
 20
432.4837030000000482
 30
0.0
 11
303.3290929999999435
 21
433.160726000000011
 31
0.0
  0
LINE
  5
280
100
AcDbEntity
100
AcDbLine
  8
0
 62
0
370
0
  6
CONTINUOUS
 10
303.3290929999999435
 20
433.160726000000011
 30
0.0
 11
297.7438379999999825
 21
436.6799170000000458
 31
0.0
  0
LINE
  5
281
100
AcDbEntity
100
AcDbLine
  8
0
 62
0
370
0
  6
CONTINUOUS
 10
336.4338790000000472
 20
464.3018630000000257
 30
0.0
 11
306.0382710000000088
 21
457.0086790000000292
 31
0.0
  0
LINE
  5
282
100
AcDbEntity
100
AcDbLine
  8
0
 62
0
370
0
  6
CONTINUOUS
 10
270.0796109999999999
 20
464.3018630000000257
 30
0.0
 11
300.6395760000000337
 21
457.0039640000000531
 31
0.0
  0
LINE
  5
283
100
AcDbEntity
100
AcDbLine
  8
0
 62
0
370
0
  6
CONTINUOUS
 10
300.6395760000000337
 20
457.0039640000000531
 30
0.0
 11
303.3354799999999614
 21
456.3601660000000493
 31
0.0
  0
LINE
  5
284
100
AcDbEntity
100
AcDbLine
  8
0
 62
0
370
0
  6
CONTINUOUS
 10
306.0382710000000088
 20
457.0086790000000292
 30
0.0
 11
303.3354799999999614
 21
456.3601660000000493
 31
0.0
  0
LINE
  5
285
100
AcDbEntity
100
AcDbLine
  8
0
 62
0
370
0
  6
CONTINUOUS
 10
303.3354799999999614
 20
456.3601660000000493
 30
0.0
 11
300.8914240000000291
 21
455.7737340000000472
 31
0.0
  0
LINE
  5
286
100
AcDbEntity
100
AcDbLine
  8
0
 62
0
370
0
  6
CONTINUOUS
 10
303.3412809999999808
 20
459.7056690000000003
 30
0.0
 11
300.6395760000000337
 21
457.0039640000000531
 31
0.0
  0
LINE
  5
287
100
AcDbEntity
100
AcDbLine
  8
0
 62
0
370
0
  6
CONTINUOUS
 10
306.0382710000000088
 20
457.0086790000000292
 30
0.0
 11
303.3412809999999808
 21
459.7056690000000003
 31
0.0
  0
LINE
  5
288
100
AcDbEntity
100
AcDbLine
  8
0
 62
0
370
0
  6
CONTINUOUS
 10
270.0796109999999999
 20
378.2503550000000132
 30
0.0
 11
270.0796109999999999
 21
380.8503550000000359
 31
0.0
  0
LINE
  5
289
100
AcDbEntity
100
AcDbLine
  8
0
 62
0
370
0
  6
CONTINUOUS
 10
270.0796109999999999
 20
375.2503550000000132
 30
0.0
 11
270.0796109999999999
 21
378.2503550000000132
 31
0.0
  0
LINE
  5
28A
100
AcDbEntity
100
AcDbLine
  8
0
 62
0
370
0
  6
CONTINUOUS
 10
336.4338790000000472
 20
393.8503550000000359
 30
0.0
 11
336.4338790000000472
 21
341.8503550000000359
 31
0.0
  0
LINE
  5
28B
100
AcDbEntity
100
AcDbLine
  8
0
 62
0
370
0
  6
CONTINUOUS
 10
339.4338790000000472
 20
393.8503550000000359
 30
0.0
 11
339.4338790000000472
 21
341.8503550000000359
 31
0.0
  0
LINE
  5
28C
100
AcDbEntity
100
AcDbLine
  8
0
 62
0
370
0
  6
CONTINUOUS
 10
336.4338790000000472
 20
341.8503550000000359
 30
0.0
 11
339.4338790000000472
 21
341.8503550000000359
 31
0.0
  0
LINE
  5
28D
100
AcDbEntity
100
AcDbLine
  8
0
 62
0
370
0
  6
CONTINUOUS
 10
336.4338790000000472
 20
393.8503550000000359
 30
0.0
 11
339.4338790000000472
 21
393.8503550000000359
 31
0.0
  0
LINE
  5
28E
100
AcDbEntity
100
AcDbLine
  8
0
 62
0
370
0
  6
CONTINUOUS
 10
292.8412809999999808
 20
344.8503550000000359
 30
0.0
 11
336.4338790000000472
 21
344.8503550000000359
 31
0.0
  0
LINE
  5
28F
100
AcDbEntity
100
AcDbLine
  8
0
 62
0
370
0
  6
CONTINUOUS
 10
292.8412809999999808
 20
341.8503550000000359
 30
0.0
 11
292.8412809999999808
 21
344.8503550000000359
 31
0.0
  0
LINE
  5
290
100
AcDbEntity
100
AcDbLine
  8
0
 62
0
370
0
  6
CONTINUOUS
 10
336.4338790000000472
 20
341.8503550000000359
 30
0.0
 11
336.4338790000000472
 21
344.8503550000000359
 31
0.0
  0
LINE
  5
291
100
AcDbEntity
100
AcDbLine
  8
0
 62
0
370
0
  6
CONTINUOUS
 10
292.8412809999999808
 20
341.8503550000000359
 30
0.0
 11
336.4338790000000472
 21
341.8503550000000359
 31
0.0
  0
LINE
  5
292
100
AcDbEntity
100
AcDbLine
  8
0
 62
0
370
0
  6
CONTINUOUS
 10
267.0796109999999999
 20
341.8503550000000359
 30
0.0
 11
267.0796109999999999
 21
393.8503550000000359
 31
0.0
  0
LINE
  5
293
100
AcDbEntity
100
AcDbLine
  8
0
 62
0
370
0
  6
CONTINUOUS
 10
267.0796109999999999
 20
393.8503550000000359
 30
0.0
 11
270.0796109999999999
 21
393.8503550000000359
 31
0.0
  0
LINE
  5
294
100
AcDbEntity
100
AcDbLine
  8
0
 62
0
370
0
  6
CONTINUOUS
 10
267.0796109999999999
 20
341.8503550000000359
 30
0.0
 11
270.0796109999999999
 21
341.8503550000000359
 31
0.0
  0
LINE
  5
295
100
AcDbEntity
100
AcDbLine
  8
0
 62
0
370
0
  6
CONTINUOUS
 10
313.6722089999999525
 20
347.8503550000000359
 30
0.0
 11
270.0796109999999999
 21
347.8503550000000359
 31
0.0
  0
LINE
  5
296
100
AcDbEntity
100
AcDbLine
  8
0
 62
0
370
0
  6
CONTINUOUS
 10
313.6722089999999525
 20
344.8503550000000359
 30
0.0
 11
313.6722089999999525
 21
347.8503550000000359
 31
0.0
  0
LINE
  5
297
100
AcDbEntity
100
AcDbLine
  8
0
 62
0
370
0
  6
CONTINUOUS
 10
270.0796109999999999
 20
344.8503550000000359
 30
0.0
 11
270.0796109999999999
 21
347.8503550000000359
 31
0.0
  0
LINE
  5
298
100
AcDbEntity
100
AcDbLine
  8
0
 62
0
370
0
  6
CONTINUOUS
 10
313.6722089999999525
 20
344.8503550000000359
 30
0.0
 11
270.0796109999999999
 21
344.8503550000000359
 31
0.0
  0
LINE
  5
299
100
AcDbEntity
100
AcDbLine
  8
0
 62
0
370
0
  6
CONTINUOUS
 10
274.8448779999999942
 20
347.8503550000000359
 30
0.0
 11
317.4834170000000313
 21
347.8503550000000359
 31
0.0
  0
LINE
  5
29A
100
AcDbEntity
100
AcDbLine
  8
0
 62
0
370
0
  6
CONTINUOUS
 10
274.8448779999999942
 20
376.8503550000000359
 30
0.0
 11
274.8448779999999942
 21
380.8503550000000359
 31
0.0
  0
LINE
  5
29B
100
AcDbEntity
100
AcDbLine
  8
0
 62
0
370
0
  6
CONTINUOUS
 10
322.0796109999999999
 20
374.2503550000000132
 30
0.0
 11
322.0796109999999999
 21
376.8503550000000359
 31
0.0
  0
LINE
  5
29C
100
AcDbEntity
100
AcDbLine
  8
0
 62
0
370
0
  6
CONTINUOUS
 10
274.8448779999999942
 20
380.8503550000000359
 30
0.0
 11
276.9339199999999437
 21
381.3717110000000048
 31
0.0
  0
LINE
  5
29D
100
AcDbEntity
100
AcDbLine
  8
0
 62
0
370
0
  6
CONTINUOUS
 10
276.9339199999999437
 20
381.3717110000000048
 30
0.0
 11
279.087519000000043
 21
383.8503550000000359
 31
0.0
  0
LINE
  5
29E
100
AcDbEntity
100
AcDbLine
  8
0
 62
0
370
0
  6
CONTINUOUS
 10
316.0692040000000134
 20
383.8503550000000359
 30
0.0
 11
317.4834170000000313
 21
380.8503550000000359
 31
0.0
  0
LINE
  5
29F
100
AcDbEntity
100
AcDbLine
  8
0
 62
0
370
0
  6
CONTINUOUS
 10
295.8412809999999808
 20
383.8503550000000359
 30
0.0
 11
310.8412809999999808
 21
383.8503550000000359
 31
0.0
  0
LINE
  5
2A0
100
AcDbEntity
100
AcDbLine
  8
0
 62
0
370
0
  6
CONTINUOUS
 10
298.3412809999999808
 20
385.8503550000000359
 30
0.0
 11
295.8412809999999808
 21
383.8503550000000359
 31
0.0
  0
LINE
  5
2A1
100
AcDbEntity
100
AcDbLine
  8
0
 62
0
370
0
  6
CONTINUOUS
 10
298.3412809999999808
 20
385.8503550000000359
 30
0.0
 11
308.3412809999999808
 21
385.8503550000000359
 31
0.0
  0
LINE
  5
2A2
100
AcDbEntity
100
AcDbLine
  8
0
 62
0
370
0
  6
CONTINUOUS
 10
308.3412809999999808
 20
385.8503550000000359
 30
0.0
 11
310.8412809999999808
 21
383.8503550000000359
 31
0.0
  0
LINE
  5
2A3
100
AcDbEntity
100
AcDbLine
  8
0
 62
0
370
0
  6
CONTINUOUS
 10
300.3412809999999808
 20
386.8503550000000359
 30
0.0
 11
306.3412809999999808
 21
386.8503550000000359
 31
0.0
  0
LINE
  5
2A4
100
AcDbEntity
100
AcDbLine
  8
0
 62
0
370
0
  6
CONTINUOUS
 10
306.3412809999999808
 20
385.8503550000000359
 30
0.0
 11
306.3412809999999808
 21
386.8503550000000359
 31
0.0
  0
LINE
  5
2A5
100
AcDbEntity
100
AcDbLine
  8
0
 62
0
370
0
  6
CONTINUOUS
 10
300.3412809999999808
 20
385.8503550000000359
 30
0.0
 11
300.3412809999999808
 21
386.8503550000000359
 31
0.0
  0
LINE
  5
2A6
100
AcDbEntity
100
AcDbLine
  8
0
 62
0
370
0
  6
CONTINUOUS
 10
292.8412809999999808
 20
389.8503550000000359
 30
0.0
 11
313.8412809999999808
 21
389.8503550000000359
 31
0.0
  0
LINE
  5
2A7
100
AcDbEntity
100
AcDbLine
  8
0
 62
0
370
0
  6
CONTINUOUS
 10
300.3412809999999808
 20
392.8503550000000359
 30
0.0
 11
298.8412809999999808
 21
391.8503550000000359
 31
0.0
  0
LINE
  5
2A8
100
AcDbEntity
100
AcDbLine
  8
0
 62
0
370
0
  6
CONTINUOUS
 10
306.3412809999999808
 20
392.8503550000000359
 30
0.0
 11
307.8412809999999808
 21
391.8503550000000359
 31
0.0
  0
LINE
  5
2A9
100
AcDbEntity
100
AcDbLine
  8
0
 62
0
370
0
  6
CONTINUOUS
 10
300.3412809999999808
 20
392.8503550000000359
 30
0.0
 11
306.3412809999999808
 21
392.8503550000000359
 31
0.0
  0
LINE
  5
2AA
100
AcDbEntity
100
AcDbLine
  8
0
 62
0
370
0
  6
CONTINUOUS
 10
292.8412809999999808
 20
389.8503550000000359
 30
0.0
 11
292.8412809999999808
 21
391.8503550000000359
 31
0.0
  0
LINE
  5
2AB
100
AcDbEntity
100
AcDbLine
  8
0
 62
0
370
0
  6
CONTINUOUS
 10
313.8412809999999808
 20
389.8503550000000359
 30
0.0
 11
313.8412809999999808
 21
391.8503550000000359
 31
0.0
  0
LINE
  5
2AC
100
AcDbEntity
100
AcDbLine
  8
0
 62
0
370
0
  6
CONTINUOUS
 10
299.3412809999999808
 20
386.8503550000000359
 30
0.0
 11
307.3412809999999808
 21
386.8503550000000359
 31
0.0
  0
LINE
  5
2AD
100
AcDbEntity
100
AcDbLine
  8
0
 62
0
370
0
  6
CONTINUOUS
 10
322.0796109999999999
 20
374.2503550000000132
 30
0.0
 11
322.0796109999999999
 21
371.2503550000000132
 31
0.0
  0
LINE
  5
2AE
100
AcDbEntity
100
AcDbLine
  8
0
 62
0
370
0
  6
CONTINUOUS
 10
292.8412809999999808
 20
386.8503550000000359
 30
0.0
 11
313.8412809999999808
 21
386.8503550000000359
 31
0.0
  0
LINE
  5
2AF
100
AcDbEntity
100
AcDbLine
  8
0
 62
0
370
0
  6
CONTINUOUS
 10
292.8412809999999808
 20
389.8503550000000359
 30
0.0
 11
336.4338790000000472
 21
389.8503550000000359
 31
0.0
  0
LINE
  5
2B0
100
AcDbEntity
100
AcDbLine
  8
0
 62
0
370
0
  6
CONTINUOUS
 10
292.8412809999999808
 20
386.8503550000000359
 30
0.0
 11
292.8412809999999808
 21
389.8503550000000359
 31
0.0
  0
LINE
  5
2B1
100
AcDbEntity
100
AcDbLine
  8
0
 62
0
370
0
  6
CONTINUOUS
 10
336.4338790000000472
 20
386.8503550000000359
 30
0.0
 11
336.4338790000000472
 21
389.8503550000000359
 31
0.0
  0
LINE
  5
2B2
100
AcDbEntity
100
AcDbLine
  8
0
 62
0
370
0
  6
CONTINUOUS
 10
292.8412809999999808
 20
386.8503550000000359
 30
0.0
 11
336.4338790000000472
 21
386.8503550000000359
 31
0.0
  0
LINE
  5
2B3
100
AcDbEntity
100
AcDbLine
  8
0
 62
0
370
0
  6
CONTINUOUS
 10
308.1412810000000491
 20
386.8503550000000359
 30
0.0
 11
313.5412810000000263
 21
386.8503550000000359
 31
0.0
  0
LINE
  5
2B4
100
AcDbEntity
100
AcDbLine
  8
0
 62
0
370
0
  6
CONTINUOUS
 10
293.1412810000000491
 20
386.8503550000000359
 30
0.0
 11
298.5412810000000263
 21
386.8503550000000359
 31
0.0
  0
LINE
  5
2B5
100
AcDbEntity
100
AcDbLine
  8
0
 62
0
370
0
  6
CONTINUOUS
 10
317.4834170000000313
 20
376.8503550000000359
 30
0.0
 11
317.4834170000000313
 21
380.8503550000000359
 31
0.0
  0
LINE
  5
2B6
100
AcDbEntity
100
AcDbLine
  8
0
 62
0
370
0
  6
CONTINUOUS
 10
309.3516889999999648
 20
376.8503550000000359
 30
0.0
 11
309.3516889999999648
 21
374.2503550000000132
 31
0.0
  0
LINE
  5
2B7
100
AcDbEntity
100
AcDbLine
  8
0
 62
0
370
0
  6
CONTINUOUS
 10
303.3412809999999808
 20
380.8503550000000359
 30
0.0
 11
301.9270669999999654
 21
383.8503550000000359
 31
0.0
  0
LINE
  5
2B8
100
AcDbEntity
100
AcDbLine
  8
0
 62
0
370
0
  6
CONTINUOUS
 10
313.5943290000000161
 20
376.8503550000000359
 30
0.0
 11
310.9426789999999983
 21
379.0301360000000273
 31
0.0
  0
LINE
  5
2B9
100
AcDbEntity
100
AcDbLine
  8
0
 62
0
370
0
  6
CONTINUOUS
 10
312.5336690000000317
 20
376.8503550000000359
 30
0.0
 11
309.8820190000000139
 21
379.0301360000000273
 31
0.0
  0
LINE
  5
2BA
100
AcDbEntity
100
AcDbLine
  8
0
 62
0
370
0
  6
CONTINUOUS
 10
309.8820190000000139
 20
379.0301360000000273
 30
0.0
 11
309.8820190000000139
 21
376.8503550000000359
 31
0.0
  0
LINE
  5
2BB
100
AcDbEntity
100
AcDbLine
  8
0
 62
0
370
0
  6
CONTINUOUS
 10
309.8820190000000139
 20
379.0301360000000273
 30
0.0
 11
310.9426789999999983
 21
379.0301360000000273
 31
0.0
  0
LINE
  5
2BC
100
AcDbEntity
100
AcDbLine
  8
0
 62
0
370
0
  6
CONTINUOUS
 10
270.0796109999999999
 20
376.8503550000000359
 30
0.0
 11
274.8448779999999942
 21
376.8503550000000359
 31
0.0
  0
LINE
  5
2BD
100
AcDbEntity
100
AcDbLine
  8
0
 62
0
370
0
  6
CONTINUOUS
 10
303.3412809999999808
 20
380.8503550000000359
 30
0.0
 11
317.4834170000000313
 21
380.8503550000000359
 31
0.0
  0
LINE
  5
2BE
100
AcDbEntity
100
AcDbLine
  8
0
 62
0
370
0
  6
CONTINUOUS
 10
303.3412809999999808
 20
376.8503550000000359
 30
0.0
 11
303.3412809999999808
 21
380.8503550000000359
 31
0.0
  0
LINE
  5
2BF
100
AcDbEntity
100
AcDbLine
  8
0
 62
0
370
0
  6
CONTINUOUS
 10
270.0796109999999999
 20
374.2503550000000132
 30
0.0
 11
303.3412809999999808
 21
374.2503550000000132
 31
0.0
  0
LINE
  5
2C0
100
AcDbEntity
100
AcDbLine
  8
0
 62
0
370
0
  6
CONTINUOUS
 10
270.0796109999999999
 20
371.2503550000000132
 30
0.0
 11
274.8448779999999942
 21
371.2503550000000132
 31
0.0
  0
LINE
  5
2C1
100
AcDbEntity
100
AcDbLine
  8
0
 62
0
370
0
  6
CONTINUOUS
 10
274.8448779999999942
 20
371.2503550000000132
 30
0.0
 11
303.3412809999999808
 21
371.2503550000000132
 31
0.0
  0
LINE
  5
2C2
100
AcDbEntity
100
AcDbLine
  8
0
 62
0
370
0
  6
CONTINUOUS
 10
303.3412809999999808
 20
371.2503550000000132
 30
0.0
 11
322.0796109999999999
 21
371.2503550000000132
 31
0.0
  0
LINE
  5
2C3
100
AcDbEntity
100
AcDbLine
  8
0
 62
0
370
0
  6
CONTINUOUS
 10
274.8448779999999942
 20
349.8503550000000359
 30
0.0
 11
303.3412809999999808
 21
349.8503550000000359
 31
0.0
  0
LINE
  5
2C4
100
AcDbEntity
100
AcDbLine
  8
0
 62
0
370
0
  6
CONTINUOUS
 10
303.3412809999999808
 20
349.8503550000000359
 30
0.0
 11
317.4834170000000313
 21
349.8503550000000359
 31
0.0
  0
LINE
  5
2C5
100
AcDbEntity
100
AcDbLine
  8
0
 62
0
370
0
  6
CONTINUOUS
 10
274.8448779999999942
 20
347.8503550000000359
 30
0.0
 11
274.8448779999999942
 21
349.8503550000000359
 31
0.0
  0
LINE
  5
2C6
100
AcDbEntity
100
AcDbLine
  8
0
 62
0
370
0
  6
CONTINUOUS
 10
274.8448779999999942
 20
349.8503550000000359
 30
0.0
 11
274.8448779999999942
 21
371.2503550000000132
 31
0.0
  0
LINE
  5
2C7
100
AcDbEntity
100
AcDbLine
  8
0
 62
0
370
0
  6
CONTINUOUS
 10
303.3412809999999808
 20
371.2503550000000132
 30
0.0
 11
303.3412809999999808
 21
349.8503550000000359
 31
0.0
  0
LINE
  5
2C8
100
AcDbEntity
100
AcDbLine
  8
0
 62
0
370
0
  6
CONTINUOUS
 10
303.3412809999999808
 20
349.8503550000000359
 30
0.0
 11
303.3412809999999808
 21
347.8503550000000359
 31
0.0
  0
LINE
  5
2C9
100
AcDbEntity
100
AcDbLine
  8
0
 62
0
370
0
  6
CONTINUOUS
 10
303.3412809999999808
 20
374.2503550000000132
 30
0.0
 11
309.3516889999999648
 21
374.2503550000000132
 31
0.0
  0
LINE
  5
2CA
100
AcDbEntity
100
AcDbLine
  8
0
 62
0
370
0
  6
CONTINUOUS
 10
309.3516889999999648
 20
374.2503550000000132
 30
0.0
 11
322.0796109999999999
 21
374.2503550000000132
 31
0.0
  0
LINE
  5
2CB
100
AcDbEntity
100
AcDbLine
  8
0
 62
0
370
0
  6
CONTINUOUS
 10
279.087519000000043
 20
383.8503550000000359
 30
0.0
 11
286.8656929999999647
 21
383.8503550000000359
 31
0.0
  0
LINE
  5
2CC
100
AcDbEntity
100
AcDbLine
  8
0
 62
0
370
0
  6
CONTINUOUS
 10
286.8656929999999647
 20
383.8503550000000359
 30
0.0
 11
301.9270669999999654
 21
383.8503550000000359
 31
0.0
  0
LINE
  5
2CD
100
AcDbEntity
100
AcDbLine
  8
0
 62
0
370
0
  6
CONTINUOUS
 10
301.9270669999999654
 20
383.8503550000000359
 30
0.0
 11
316.0692040000000134
 21
383.8503550000000359
 31
0.0
  0
LINE
  5
2CE
100
AcDbEntity
100
AcDbLine
  8
0
 62
0
370
0
  6
CONTINUOUS
 10
270.0796109999999999
 20
376.8503550000000359
 30
0.0
 11
270.0796109999999999
 21
393.8503550000000359
 31
0.0
  0
LINE
  5
2CF
100
AcDbEntity
100
AcDbLine
  8
0
 62
0
370
0
  6
CONTINUOUS
 10
270.0796109999999999
 20
341.8503550000000359
 30
0.0
 11
270.0796109999999999
 21
374.2503550000000132
 31
0.0
  0
LINE
  5
2D0
100
AcDbEntity
100
AcDbLine
  8
0
 62
0
370
0
  6
CONTINUOUS
 10
270.0796109999999999
 20
374.2503550000000132
 30
0.0
 11
270.0796109999999999
 21
376.8503550000000359
 31
0.0
  0
LINE
  5
2D1
100
AcDbEntity
100
AcDbLine
  8
0
 62
0
370
0
  6
CONTINUOUS
 10
303.3412809999999808
 20
376.8503550000000359
 30
0.0
 11
309.3516889999999648
 21
376.8503550000000359
 31
0.0
  0
LINE
  5
2D2
100
AcDbEntity
100
AcDbLine
  8
0
 62
0
370
0
  6
CONTINUOUS
 10
309.3516889999999648
 20
376.8503550000000359
 30
0.0
 11
309.8820190000000139
 21
376.8503550000000359
 31
0.0
  0
LINE
  5
2D3
100
AcDbEntity
100
AcDbLine
  8
0
 62
0
370
0
  6
CONTINUOUS
 10
309.8820190000000139
 20
376.8503550000000359
 30
0.0
 11
313.5943290000000161
 21
376.8503550000000359
 31
0.0
  0
LINE
  5
2D4
100
AcDbEntity
100
AcDbLine
  8
0
 62
0
370
0
  6
CONTINUOUS
 10
313.5943290000000161
 20
376.8503550000000359
 30
0.0
 11
322.0796109999999999
 21
376.8503550000000359
 31
0.0
  0
LINE
  5
2D5
100
AcDbEntity
100
AcDbLine
  8
0
 62
0
370
0
  6
CONTINUOUS
 10
317.4834170000000313
 20
347.8503550000000359
 30
0.0
 11
317.4834170000000313
 21
349.8503550000000359
 31
0.0
  0
LINE
  5
2D6
100
AcDbEntity
100
AcDbLine
  8
0
 62
0
370
0
  6
CONTINUOUS
 10
317.4834170000000313
 20
349.8503550000000359
 30
0.0
 11
317.4834170000000313
 21
371.2503550000000132
 31
0.0
  0
LINE
  5
2D7
100
AcDbEntity
100
AcDbLine
  8
0
 62
0
370
0
  6
CONTINUOUS
 10
292.8412809999999808
 20
391.8503550000000359
 30
0.0
 11
298.8412809999999808
 21
391.8503550000000359
 31
0.0
  0
LINE
  5
2D8
100
AcDbEntity
100
AcDbLine
  8
0
 62
0
370
0
  6
CONTINUOUS
 10
298.8412809999999808
 20
391.8503550000000359
 30
0.0
 11
307.8412809999999808
 21
391.8503550000000359
 31
0.0
  0
LINE
  5
2D9
100
AcDbEntity
100
AcDbLine
  8
0
 62
0
370
0
  6
CONTINUOUS
 10
307.8412809999999808
 20
391.8503550000000359
 30
0.0
 11
313.8412809999999808
 21
391.8503550000000359
 31
0.0
  0
LINE
  5
2DA
100
AcDbEntity
100
AcDbLine
  8
0
 62
0
370
0
  6
CONTINUOUS
 10
286.8656929999999647
 20
383.8503550000000359
 30
0.0
 11
276.9339199999999437
 21
381.3717110000000048
 31
0.0
  0
LINE
  5
2DB
100
AcDbEntity
100
AcDbLine
  8
0
 62
0
370
0
  6
CONTINUOUS
 10
276.9339199999999437
 20
381.3717110000000048
 30
0.0
 11
274.8448779999999942
 21
380.8503550000000359
 31
0.0
  0
MTEXT
  5
2DC
100
AcDbEntity
100
AcDbMText
  8
NULL
 62
0
370
0
  6
CONTINUOUS
 10
373.8882180000000517
 20
11.970442000000002
 30
0.0
 40
12.8000000000000007
 41
100.0
 71
7
 72
2
  1
8
  7
Courier
 50
0.0
 73
0
 44
1.0
  0
MTEXT
  5
2DD
100
AcDbEntity
100
AcDbMText
  8
0
 62
0
370
0
  6
CONTINUOUS
 10
166.4000000000000057
 20
47.3599999999999994
 30
0.0
 40
3.8399999999999999
 41
100.0
 71
7
 72
2
  1
4\~modulos\~unidos\~en\~fase
  7
Normal
 50
0.0
 73
0
 44
1.0
  0
DIMENSION
  5
2DE
100
AcDbEntity
  8
NULL
 62
256
370
-1
  6
ByLayer
100
AcDbDimension
 10
339.4338790000000472
 20
479.7310940255411538
 30
0.0
 11
194.7253430000000094
 21
481.6060940255411538
 31
0.0
 70
0
 71
5
 72
1
 41
1.0
 42
0.0
  1

  3
Standard
100
AcDbAlignedDimension
 13
50.016807
 23
464.9781510000000253
 33
0.0
 14
339.4338790000000472
 24
464.3018630000000257
 34
0.0
 50
0.0
100
AcDbRotatedDimension
  0
ENDSEC
  0
SECTION
  2
OBJECTS
  0
DICTIONARY
  5
C
100
AcDbDictionary
280
0
281
1
  3
ACAD_GROUP
350
D
  3
ACAD_LAYOUT
350
1A
  3
ACAD_MLINESTYLE
350
17
  3
ACAD_PLOTSETTINGS
350
19
  3
ACAD_PLOTSTYLENAME
350
E
  3
AcDbVariableDictionary
350
2DF
  0
DICTIONARY
  5
D
100
AcDbDictionary
280
0
281
1
  0
ACDBDICTIONARYWDFLT
  5
E
100
AcDbDictionary
281
1
  3
Normal
350
F
100
AcDbDictionaryWithDefault
340
F
  0
ACDBPLACEHOLDER
  5
F
  0
DICTIONARY
  5
17
100
AcDbDictionary
280
0
281
1
  3
Standard
350
18
  0
MLINESTYLE
  5
18
100
AcDbMlineStyle
  2
STANDARD
 70
0
  3

 62
256
 51
90.0
 52
90.0
 71
2
 49
0.5
 62
256
  6
BYLAYER
 49
-0.5
 62
256
  6
BYLAYER
  0
DICTIONARY
  5
19
100
AcDbDictionary
280
0
281
1
  0
DICTIONARY
  5
1A
100
AcDbDictionary
281
1
  3
Layout1
350
1E
  3
Layout2
350
26
  3
Model
350
22
  0
LAYOUT
  5
1E
100
AcDbPlotSettings
  1

  2
C:\Program Files\AutoCAD 2002\plotters\DWF ePlot (optimized for plotting).pc3
  4

  6

 40
0.0
 41
0.0
 42
0.0
 43
0.0
 44
0.0
 45
0.0
 46
0.0
 47
0.0
 48
0.0
 49
0.0
140
0.0
141
0.0
142
1.0
143
1.0
 70
688
 72
0
 73
0
 74
5
  7

 75
16
147
1.0
148
0.0
149
0.0
100
AcDbLayout
  1
Layout1
 70
1
 71
1
 10
0.0
 20
0.0
 11
420.0
 21
297.0
 12
0.0
 22
0.0
 32
0.0
 14
100000000000000000000.0
 24
100000000000000000000.0
 34
100000000000000000000.0
 15
-100000000000000000000.0
 25
-100000000000000000000.0
 35
-100000000000000000000.0
146
0.0
 13
0.0
 23
0.0
 33
0.0
 16
1.0
 26
0.0
 36
0.0
 17
0.0
 27
1.0
 37
0.0
 76
0
330
1B
  0
LAYOUT
  5
22
100
AcDbPlotSettings
  1

  2
C:\Program Files\AutoCAD 2002\plotters\DWF ePlot (optimized for plotting).pc3
  4

  6

 40
0.0
 41
0.0
 42
0.0
 43
0.0
 44
0.0
 45
0.0
 46
0.0
 47
0.0
 48
0.0
 49
0.0
140
0.0
141
0.0
142
1.0
143
1.0
 70
1712
 72
0
 73
0
 74
0
  7

 75
0
147
1.0
148
0.0
149
0.0
100
AcDbLayout
  1
Model
 70
1
 71
0
 10
0.0
 20
0.0
 11
12.0
 21
9.0
 12
0.0
 22
0.0
 32
0.0
 14
0.0
 24
0.0
 34
0.0
 15
0.0
 25
0.0
 35
0.0
146
0.0
 13
0.0
 23
0.0
 33
0.0
 16
1.0
 26
0.0
 36
0.0
 17
0.0
 27
1.0
 37
0.0
 76
0
330
1F
  0
LAYOUT
  5
26
100
AcDbPlotSettings
  1

  2
C:\Program Files\AutoCAD 2002\plotters\DWF ePlot (optimized for plotting).pc3
  4

  6

 40
0.0
 41
0.0
 42
0.0
 43
0.0
 44
0.0
 45
0.0
 46
0.0
 47
0.0
 48
0.0
 49
0.0
140
0.0
141
0.0
142
1.0
143
1.0
 70
688
 72
0
 73
0
 74
5
  7

 75
16
147
1.0
148
0.0
149
0.0
100
AcDbLayout
  1
Layout2
 70
1
 71
2
 10
0.0
 20
0.0
 11
12.0
 21
9.0
 12
0.0
 22
0.0
 32
0.0
 14
0.0
 24
0.0
 34
0.0
 15
0.0
 25
0.0
 35
0.0
146
0.0
 13
0.0
 23
0.0
 33
0.0
 16
1.0
 26
0.0
 36
0.0
 17
0.0
 27
1.0
 37
0.0
 76
0
330
23
  0
DICTIONARY
  5
2DF
100
AcDbDictionary
281
1
  3
DIMASSOC
350
2E1
  3
HIDETEXT
350
2E0
  0
DICTIONARYVAR
  5
2E0
100
DictionaryVariables
280
0
  1
2
  0
DICTIONARYVAR
  5
2E1
100
DictionaryVariables
280
0
  1
1
  0
ENDSEC
  0
EOF
