999
dxflib 2.0.2.1
  0
SECTION
  2
HEADER
  9
$ACADVER
  1
AC1015
  9
$HANDSEED
  5
FFFF
  9
$DIMADEC
 70
2
  9
$GRIDUNIT
 10
0.001
 20
0.001
  9
$DIMASZ
 40
2.5
  9
$DIMALT
 70
4
  9
$DIMGAP
 40
0.625
  9
$LUNITS
 70
2
  9
$AUPREC
 70
2
  9
$DIMRND
 40
0.01
  9
$INSUNITS
 70
4
  9
$DIMEXO
 40
0.625
  9
$DIMLUNIT
 70
2
  9
$GRIDMODE
 70
1
  9
$DIMTXT
 40
2.5
  9
$LUPREC
 70
1
  9
$DIMSTYLE
  2
Standard
  9
$PLIMMIN
 10
0.0
 20
0.0
  9
$PLIMMAX
 10
210.0
 20
297.0
  9
$PINSBASE
 10
2.5
 20
4.0
 30
0.0
  9
$DIMEXE
 40
1.25
  9
$DIMAUNIT
 70
0
  9
$AUNITS
 70
0
  0
ENDSEC
  0
SECTION
  2
TABLES
  0
TABLE
  2
VPORT
  5
8
100
AcDbSymbolTable
 70
1
  0
VPORT
  5
30
100
AcDbSymbolTableRecord
100
AcDbViewportTableRecord
  2
*Active
 70
0
 10
0.0
 20
0.0
 11
1.0
 21
1.0
 12
286.3055555555554861
 22
148.5
 13
0.0
 23
0.0
 14
10.0
 24
10.0
 15
10.0
 25
10.0
 16
0.0
 26
0.0
 36
1.0
 17
0.0
 27
0.0
 37
0.0
 40
297.0
 41
1.92798353909465
 42
50.0
 43
0.0
 44
0.0
 50
0.0
 51
0.0
 71
0
 72
100
 73
1
 74
3
 75
1
 76
1
 77
0
 78
0
281
0
 65
1
110
0.0
120
0.0
130
0.0
111
1.0
121
0.0
131
0.0
112
0.0
122
1.0
132
0.0
 79
0
146
0.0
  0
ENDTAB
  0
TABLE
  2
LTYPE
  5
5
100
AcDbSymbolTable
 70
3
  0
LTYPE
  5
14
100
AcDbSymbolTableRecord
100
AcDbLinetypeTableRecord
  2
ByBlock
 70
0
  3

 72
65
 73
0
 40
0.0
  0
LTYPE
  5
15
100
AcDbSymbolTableRecord
100
AcDbLinetypeTableRecord
  2
ByLayer
 70
0
  3

 72
65
 73
0
 40
0.0
  0
LTYPE
  5
16
100
AcDbSymbolTableRecord
100
AcDbLinetypeTableRecord
  2
CONTINUOUS
 70
0
  3
Solid line
 72
65
 73
0
 40
0.0
  0
LTYPE
  5
31
100
AcDbSymbolTableRecord
100
AcDbLinetypeTableRecord
  2
DOT
 70
0
  3
Dot . . . . . . . . . . . . . . . . . . . . . .
 72
65
 73
2
 40
6.3499999999999996
 49
0.0
 74
0
 49
-6.3499999999999996
 74
0
  0
LTYPE
  5
32
100
AcDbSymbolTableRecord
100
AcDbLinetypeTableRecord
  2
DOT2
 70
0
  3
Dot (.5x) .....................................
 72
65
 73
2
 40
3.1749999999999998
 49
0.0
 74
0
 49
-3.1749999999999998
 74
0
  0
LTYPE
  5
33
100
AcDbSymbolTableRecord
100
AcDbLinetypeTableRecord
  2
DOTX2
 70
0
  3
Dot (2x) .  .  .  .  .  .  .  .  .  .  .  .  .
 72
65
 73
2
 40
12.6999999999999993
 49
0.0
 74
0
 49
-12.6999999999999993
 74
0
  0
LTYPE
  5
34
100
AcDbSymbolTableRecord
100
AcDbLinetypeTableRecord
  2
DASHED
 70
0
  3
Dashed __ __ __ __ __ __ __ __ __ __ __ __ __ _
 72
65
 73
2
 40
19.0500000000000007
 49
12.6999999999999993
 74
0
 49
-6.3499999999999996
 74
0
  0
LTYPE
  5
35
100
AcDbSymbolTableRecord
100
AcDbLinetypeTableRecord
  2
DASHED2
 70
0
  3
Dashed (.5x) _ _ _ _ _ _ _ _ _ _ _ _ _ _ _ _ _
 72
65
 73
2
 40
9.5250000000000004
 49
6.3499999999999996
 74
0
 49
-3.1749999999999998
 74
0
  0
LTYPE
  5
36
100
AcDbSymbolTableRecord
100
AcDbLinetypeTableRecord
  2
DASHEDX2
 70
0
  3
Dashed (2x) ____  ____  ____  ____  ____  ___
 72
65
 73
2
 40
38.1000000000000014
 49
25.3999999999999986
 74
0
 49
-12.6999999999999993
 74
0
  0
LTYPE
  5
37
100
AcDbSymbolTableRecord
100
AcDbLinetypeTableRecord
  2
DASHDOT
 70
0
  3
Dash dot __ . __ . __ . __ . __ . __ . __ . __
 72
65
 73
4
 40
25.3999999999999986
 49
12.6999999999999993
 74
0
 49
-6.3499999999999996
 74
0
 49
0.0
 74
0
 49
-6.3499999999999996
 74
0
  0
LTYPE
  5
38
100
AcDbSymbolTableRecord
100
AcDbLinetypeTableRecord
  2
DASHDOT2
 70
0
  3
Dash dot (.5x) _._._._._._._._._._._._._._._.
 72
65
 73
4
 40
12.6999999999999993
 49
6.3499999999999996
 74
0
 49
-3.1749999999999998
 74
0
 49
0.0
 74
0
 49
-3.1749999999999998
 74
0
  0
LTYPE
  5
39
100
AcDbSymbolTableRecord
100
AcDbLinetypeTableRecord
  2
DASHDOTX2
 70
0
  3
Dash dot (2x) ____  .  ____  .  ____  .  ___
 72
65
 73
4
 40
50.7999999999999972
 49
25.3999999999999986
 74
0
 49
-12.6999999999999993
 74
0
 49
0.0
 74
0
 49
-12.6999999999999993
 74
0
  0
LTYPE
  5
3A
100
AcDbSymbolTableRecord
100
AcDbLinetypeTableRecord
  2
DIVIDE
 70
0
  3
Divide ____ . . ____ . . ____ . . ____ . . ____
 72
65
 73
6
 40
31.75
 49
12.6999999999999993
 74
0
 49
-6.3499999999999996
 74
0
 49
0.0
 74
0
 49
-6.3499999999999996
 74
0
 49
0.0
 74
0
 49
-6.3499999999999996
 74
0
  0
LTYPE
  5
3B
100
AcDbSymbolTableRecord
100
AcDbLinetypeTableRecord
  2
DIVIDE2
 70
0
  3
Divide (.5x) __..__..__..__..__..__..__..__.._
 72
65
 73
6
 40
15.875
 49
6.3499999999999996
 74
0
 49
-3.1749999999999998
 74
0
 49
0.0
 74
0
 49
-3.1749999999999998
 74
0
 49
0.0
 74
0
 49
-3.1749999999999998
 74
0
  0
LTYPE
  5
3C
100
AcDbSymbolTableRecord
100
AcDbLinetypeTableRecord
  2
DIVIDEX2
 70
0
  3
Divide (2x) ________  .  .  ________  .  .  _
 72
65
 73
6
 40
63.5
 49
25.3999999999999986
 74
0
 49
-12.6999999999999993
 74
0
 49
0.0
 74
0
 49
-12.6999999999999993
 74
0
 49
0.0
 74
0
 49
-12.6999999999999993
 74
0
  0
LTYPE
  5
3D
100
AcDbSymbolTableRecord
100
AcDbLinetypeTableRecord
  2
CENTER
 70
0
  3
Center ____ _ ____ _ ____ _ ____ _ ____ _ ____
 72
65
 73
4
 40
50.7999999999999972
 49
31.75
 74
0
 49
-6.3499999999999996
 74
0
 49
6.3499999999999996
 74
0
 49
-6.3499999999999996
 74
0
  0
LTYPE
  5
3E
100
AcDbSymbolTableRecord
100
AcDbLinetypeTableRecord
  2
CENTER2
 70
0
  3
Center (.5x) ___ _ ___ _ ___ _ ___ _ ___ _ ___
 72
65
 73
4
 40
28.5749999999999993
 49
19.0500000000000007
 74
0
 49
-3.1749999999999998
 74
0
 49
3.1749999999999998
 74
0
 49
-3.1749999999999998
 74
0
  0
LTYPE
  5
3F
100
AcDbSymbolTableRecord
100
AcDbLinetypeTableRecord
  2
CENTERX2
 70
0
  3
Center (2x) ________  __  ________  __  _____
 72
65
 73
4
 40
101.5999999999999943
 49
63.5
 74
0
 49
-12.6999999999999993
 74
0
 49
12.6999999999999993
 74
0
 49
-12.6999999999999993
 74
0
  0
LTYPE
  5
40
100
AcDbSymbolTableRecord
100
AcDbLinetypeTableRecord
  2
BORDER
 70
0
  3
Border __ __ . __ __ . __ __ . __ __ . __ __ .
 72
65
 73
6
 40
44.4500000000000028
 49
12.6999999999999993
 74
0
 49
-6.3499999999999996
 74
0
 49
12.6999999999999993
 74
0
 49
-6.3499999999999996
 74
0
 49
0.0
 74
0
 49
-6.3499999999999996
 74
0
  0
LTYPE
  5
41
100
AcDbSymbolTableRecord
100
AcDbLinetypeTableRecord
  2
BORDER2
 70
0
  3
Border (.5x) __.__.__.__.__.__.__.__.__.__.__.
 72
65
 73
6
 40
22.2250000000000014
 49
6.3499999999999996
 74
0
 49
-3.1749999999999998
 74
0
 49
6.3499999999999996
 74
0
 49
-3.1749999999999998
 74
0
 49
0.0
 74
0
 49
-3.1749999999999998
 74
0
  0
LTYPE
  5
42
100
AcDbSymbolTableRecord
100
AcDbLinetypeTableRecord
  2
BORDERX2
 70
0
  3
Border (2x) ____  ____  .  ____  ____  .  ___
 72
65
 73
6
 40
88.9000000000000057
 49
25.3999999999999986
 74
0
 49
-12.6999999999999993
 74
0
 49
25.3999999999999986
 74
0
 49
-12.6999999999999993
 74
0
 49
0.0
 74
0
 49
-12.6999999999999993
 74
0
  0
ENDTAB
  0
TABLE
  2
LAYER
  5
2
100
AcDbSymbolTable
 70
3
  0
LAYER
  5
10
100
AcDbSymbolTableRecord
100
AcDbLayerTableRecord
  2
0
 70
0
 62
7
  6
CONTINUOUS
390
F
  0
LAYER
  5
43
100
AcDbSymbolTableRecord
100
AcDbLayerTableRecord
  2
futaba
 70
0
 62
7
  6
CONTINUOUS
390
F
  0
LAYER
  5
44
100
AcDbSymbolTableRecord
100
AcDbLayerTableRecord
  2
cotas
 70
0
 62
5
  6
CONTINUOUS
370
-3
390
F
  0
ENDTAB
  0
TABLE
  2
STYLE
  5
3
100
AcDbSymbolTable
 70
1
  0
STYLE
  5
11
100
AcDbSymbolTableRecord
100
AcDbTextStyleTableRecord
  2
Standard
 70
0
 40
0.0
 41
1.0
 50
0.0
 71
0
 42
2.5
  3
txt
  4

  0
ENDTAB
  0
TABLE
  2
VIEW
  5
6
100
AcDbSymbolTable
 70
0
  0
ENDTAB
  0
TABLE
  2
UCS
  5
7
100
AcDbSymbolTable
 70
0
  0
ENDTAB
  0
TABLE
  2
APPID
  5
9
100
AcDbSymbolTable
 70
1
  0
APPID
  5
12
100
AcDbSymbolTableRecord
100
AcDbRegAppTableRecord
  2
ACAD
 70
0
  0
ENDTAB
  0
TABLE
  2
DIMSTYLE
  5
A
100
AcDbSymbolTable
 70
1
100
AcDbDimStyleTable
 71
0
  0
DIMSTYLE
105
27
100
AcDbSymbolTableRecord
100
AcDbDimStyleTableRecord
  2
Standard
 41
2.5
 42
0.625
 43
3.75
 44
1.25
 70
0
 73
0
 74
0
 77
1
 78
8
140
2.5
141
2.5
143
0.03937007874016
147
0.625
171
3
172
1
271
2
272
2
274
3
278
44
283
0
284
8
340
11
  0
ENDTAB
  0
TABLE
  2
BLOCK_RECORD
  5
1
100
AcDbSymbolTable
 70
1
  0
BLOCK_RECORD
  5
1F
100
AcDbSymbolTableRecord
100
AcDbBlockTableRecord
  2
*Model_Space
340
22
  0
BLOCK_RECORD
  5
1B
100
AcDbSymbolTableRecord
100
AcDbBlockTableRecord
  2
*Paper_Space
340
1E
  0
BLOCK_RECORD
  5
23
100
AcDbSymbolTableRecord
100
AcDbBlockTableRecord
  2
*Paper_Space0
340
26
  0
ENDTAB
  0
ENDSEC
  0
SECTION
  2
BLOCKS
  0
BLOCK
  5
20
100
AcDbEntity
  8
0
100
AcDbBlockBegin
  2
*Model_Space
 70
0
 10
0.0
 20
0.0
 30
0.0
  3
*Model_Space
  1

  0
ENDBLK
  5
21
100
AcDbEntity
  8
0
100
AcDbBlockEnd
  0
BLOCK
  5
1C
100
AcDbEntity
 67
1
  8
0
100
AcDbBlockBegin
  2
*Paper_Space
 70
0
 10
0.0
 20
0.0
 30
0.0
  3
*Paper_Space
  1

  0
ENDBLK
  5
1D
100
AcDbEntity
 67
1
  8
0
100
AcDbBlockEnd
  0
BLOCK
  5
24
100
AcDbEntity
  8
0
100
AcDbBlockBegin
  2
*Paper_Space0
 70
0
 10
0.0
 20
0.0
 30
0.0
  3
*Paper_Space0
  1

  0
ENDBLK
  5
25
100
AcDbEntity
  8
0
100
AcDbBlockEnd
  0
ENDSEC
  0
SECTION
  2
ENTITIES
  0
POINT
  5
45
100
AcDbEntity
100
AcDbPoint
  8
0
 62
0
370
0
  6
CONTINUOUS
 10
-5.0
 20
-6.0
 30
0.0
  0
LINE
  5
46
100
AcDbEntity
100
AcDbLine
  8
0
 62
0
370
0
  6
CONTINUOUS
 10
200.0
 20
63.999992000000006
 30
0.0
 11
200.0
 21
0.0
 31
0.0
  0
LINE
  5
47
100
AcDbEntity
100
AcDbLine
  8
0
 62
0
370
0
  6
CONTINUOUS
 10
198.7199919999999906
 20
62.7199920000000049
 30
0.0
 11
198.7199919999999906
 21
28.7999999999999972
 31
0.0
  0
POINT
  5
48
100
AcDbEntity
100
AcDbPoint
  8
0
 62
0
370
0
  6
CONTINUOUS
 10
198.7199919999999906
 20
27.5200000000000031
 30
0.0
  0
POINT
  5
49
100
AcDbEntity
100
AcDbPoint
  8
0
 62
0
370
0
  6
CONTINUOUS
 10
198.7199919999999906
 20
1.2800000000000002
 30
0.0
  0
LINE
  5
4A
100
AcDbEntity
100
AcDbLine
  8
0
 62
0
370
0
  6
CONTINUOUS
 10
198.7199919999999906
 20
1.2800000000000002
 30
0.0
 11
198.7199919999999906
 21
27.5200000000000031
 31
0.0
  0
MTEXT
  5
4B
100
AcDbEntity
100
AcDbMText
  8
0
 62
0
370
0
  6
CONTINUOUS
 10
182.0799920000000043
 20
15.3599999999999994
 30
0.0
 40
1.9199999999999999
 41
100.0
 71
7
 72
2
  1
PLANO\~No:
  7
Normal_fix
 50
0.0
 73
1
 44
1.0
  0
LINE
  5
4C
100
AcDbEntity
100
AcDbLine
  8
0
 62
0
370
0
  6
CONTINUOUS
 10
180.7999839999999949
 20
18.5599999999999987
 30
0.0
 11
180.7999839999999949
 21
1.2800000000000002
 31
0.0
  0
LINE
  5
4D
100
AcDbEntity
100
AcDbLine
  8
0
 62
0
370
0
  6
CONTINUOUS
 10
64.0
 20
63.999992000000006
 30
0.0
 11
200.0
 21
63.999992000000006
 31
0.0
  0
LINE
  5
4E
100
AcDbEntity
100
AcDbLine
  8
0
 62
0
370
0
  6
CONTINUOUS
 10
64.0
 20
0.0
 30
0.0
 11
64.0
 21
63.999992000000006
 31
0.0
  0
LINE
  5
4F
100
AcDbEntity
100
AcDbLine
  8
0
 62
0
370
0
  6
CONTINUOUS
 10
198.7199919999999906
 20
62.7199920000000049
 30
0.0
 11
159.9999919999999918
 21
62.7199920000000049
 31
0.0
  0
LINE
  5
50
100
AcDbEntity
100
AcDbLine
  8
0
 62
0
370
0
  6
CONTINUOUS
 10
159.9999919999999918
 20
62.7199920000000049
 30
0.0
 11
159.9999919999999918
 21
28.7999999999999972
 31
0.0
  0
LINE
  5
51
100
AcDbEntity
100
AcDbLine
  8
0
 62
0
370
0
  6
CONTINUOUS
 10
158.7199919999999906
 20
43.5200000000000031
 30
0.0
 11
158.7199919999999906
 21
28.7999999999999972
 31
0.0
  0
POINT
  5
52
100
AcDbEntity
100
AcDbPoint
  8
0
 62
0
370
0
  6
CONTINUOUS
 10
65.2800000000000011
 20
43.5200000000000031
 30
0.0
  0
LINE
  5
53
100
AcDbEntity
100
AcDbLine
  8
0
 62
0
370
0
  6
CONTINUOUS
 10
65.2800000000000011
 20
43.5200000000000031
 30
0.0
 11
158.7199919999999906
 21
43.5200000000000031
 31
0.0
  0
LINE
  5
54
100
AcDbEntity
100
AcDbLine
  8
0
 62
0
370
0
  6
CONTINUOUS
 10
158.7199919999999906
 20
62.7199920000000049
 30
0.0
 11
158.7199919999999906
 21
44.7999999999999972
 31
0.0
  0
LINE
  5
55
100
AcDbEntity
100
AcDbLine
  8
0
 62
0
370
0
  6
CONTINUOUS
 10
65.2800000000000011
 20
62.7199920000000049
 30
0.0
 11
158.7199919999999906
 21
62.7199920000000049
 31
0.0
  0
LINE
  5
56
100
AcDbEntity
100
AcDbLine
  8
0
 62
0
370
0
  6
CONTINUOUS
 10
158.7199919999999906
 20
44.7999999999999972
 30
0.0
 11
65.2800000000000011
 21
44.7999999999999972
 31
0.0
  0
LINE
  5
57
100
AcDbEntity
100
AcDbLine
  8
0
 62
0
370
0
  6
CONTINUOUS
 10
65.2800000000000011
 20
44.7999999999999972
 30
0.0
 11
65.2800000000000011
 21
62.7199920000000049
 31
0.0
  0
LINE
  5
58
100
AcDbEntity
100
AcDbLine
  8
0
 62
0
370
0
  6
CONTINUOUS
 10
65.2799919999999929
 20
28.7999999999999972
 30
0.0
 11
158.7199919999999906
 21
28.7999999999999972
 31
0.0
  0
LINE
  5
59
100
AcDbEntity
100
AcDbLine
  8
0
 62
0
370
0
  6
CONTINUOUS
 10
198.7199919999999906
 20
28.7999920000000031
 30
0.0
 11
159.9999919999999918
 21
28.7999920000000031
 31
0.0
  0
LINE
  5
5A
100
AcDbEntity
100
AcDbLine
  8
0
 62
0
370
0
  6
CONTINUOUS
 10
65.2799919999999929
 20
43.5200000000000031
 30
0.0
 11
65.2799919999999929
 21
28.7999999999999972
 31
0.0
  0
POINT
  5
5B
100
AcDbEntity
100
AcDbPoint
  8
0
 62
0
370
0
  6
CONTINUOUS
 10
65.2800000000000011
 20
27.5200000000000031
 30
0.0
  0
POINT
  5
5C
100
AcDbEntity
100
AcDbPoint
  8
0
 62
0
370
0
  6
CONTINUOUS
 10
65.2800000000000011
 20
1.2800000000000002
 30
0.0
  0
POINT
  5
5D
100
AcDbEntity
100
AcDbPoint
  8
0
 62
0
370
0
  6
CONTINUOUS
 10
147.1999920000000088
 20
27.5200000000000031
 30
0.0
  0
LINE
  5
5E
100
AcDbEntity
100
AcDbLine
  8
0
 62
0
370
0
  6
CONTINUOUS
 10
148.47999200000001
 20
27.5200000000000031
 30
0.0
 11
148.47999200000001
 21
1.2800000000000002
 31
0.0
  0
LINE
  5
5F
100
AcDbEntity
100
AcDbLine
  8
0
 62
0
370
0
  6
CONTINUOUS
 10
147.1999999999999886
 20
27.5200000000000031
 30
0.0
 11
147.1999999999999886
 21
1.2800000000000002
 31
0.0
  0
LINE
  5
60
100
AcDbEntity
100
AcDbLine
  8
0
 62
0
370
0
  6
CONTINUOUS
 10
148.47999200000001
 20
1.2800000000000002
 30
0.0
 11
198.7199919999999906
 21
1.2800000000000002
 31
0.0
  0
LINE
  5
61
100
AcDbEntity
100
AcDbLine
  8
0
 62
0
370
0
  6
CONTINUOUS
 10
198.7199919999999906
 20
27.5200000000000031
 30
0.0
 11
148.47999200000001
 21
27.5200000000000031
 31
0.0
  0
MTEXT
  5
62
100
AcDbEntity
100
AcDbMText
  8
0
 62
0
370
0
  6
CONTINUOUS
 10
67.2000000000000028
 20
23.6799999999999997
 30
0.0
 40
1.9199999999999999
 41
100.0
 71
7
 72
2
  1
PLANO:
  7
Normal
 50
0.0
 73
1
 44
1.0
  0
LINE
  5
63
100
AcDbEntity
100
AcDbLine
  8
0
 62
0
370
0
  6
CONTINUOUS
 10
65.2800000000000011
 20
21.7600000000000016
 30
0.0
 11
147.1999999999999886
 21
21.6125679999999996
 31
0.0
  0
LINE
  5
64
100
AcDbEntity
100
AcDbLine
  8
0
 62
0
370
0
  6
CONTINUOUS
 10
106.2399999999999949
 20
21.68628
 30
0.0
 11
106.2399999999999949
 21
1.2800000000000002
 31
0.0
  0
MTEXT
  5
65
100
AcDbEntity
100
AcDbMText
  8
0
 62
0
370
0
  6
CONTINUOUS
 10
149.7599999999999909
 20
19.8399999999999999
 30
0.0
 40
1.9199999999999999
 41
100.0
 71
7
 72
2
  1
FECHA:
  7
Normal_fix
 50
0.0
 73
1
 44
1.0
  0
LINE
  5
66
100
AcDbEntity
100
AcDbLine
  8
0
 62
0
370
0
  6
CONTINUOUS
 10
148.47999200000001
 20
18.5599999999999987
 30
0.0
 11
198.7199919999999906
 21
18.5599999999999987
 31
0.0
  0
MTEXT
  5
67
100
AcDbEntity
100
AcDbMText
  8
0
 62
0
370
0
  6
CONTINUOUS
 10
149.7599999999999909
 20
15.3599999999999994
 30
0.0
 40
1.9199999999999999
 41
100.0
 71
7
 72
2
  1
REF:
  7
Normal_fix
 50
0.0
 73
1
 44
1.0
  0
LINE
  5
68
100
AcDbEntity
100
AcDbLine
  8
0
 62
0
370
0
  6
CONTINUOUS
 10
148.47999200000001
 20
23.0399999999999991
 30
0.0
 11
198.7199919999999906
 21
23.0399999999999991
 31
0.0
  0
LINE
  5
69
100
AcDbEntity
100
AcDbLine
  8
0
 62
0
370
0
  6
CONTINUOUS
 10
184.7520800000000065
 20
47.9874000000000009
 30
0.0
 11
184.7520800000000065
 21
28.7999920000000031
 31
0.0
  0
LINE
  5
6A
100
AcDbEntity
100
AcDbLine
  8
0
 62
0
370
0
  6
CONTINUOUS
 10
184.7520800000000065
 20
47.9874000000000009
 30
0.0
 11
198.7199919999999906
 21
47.9874000000000009
 31
0.0
  0
ARC
  5
6B
100
AcDbEntity
  8
0
 62
0
370
0
  6
CONTINUOUS
100
AcDbCircle
 10
191.7274160000000052
 20
40.8273679999999999
 30
0.0
 40
1.5727519999999999
100
AcDbArc
 50
105.1414259999999956
 51
177.1518250000000023
  0
ARC
  5
6C
100
AcDbEntity
  8
0
 62
0
370
0
  6
CONTINUOUS
100
AcDbCircle
 10
191.7877839999999878
 20
40.4672399999999968
 30
0.0
 40
1.936472
100
AcDbArc
 50
39.7507739999999998
 51
104.082335999999998
  0
ARC
  5
6D
100
AcDbEntity
  8
0
 62
0
370
0
  6
CONTINUOUS
100
AcDbCircle
 10
189.9185439999999971
 20
39.844223999999997
 30
0.0
 40
3.8393999999999999
100
AcDbArc
 50
1.511741
 51
28.9984949999999984
  0
ARC
  5
6E
100
AcDbEntity
  8
0
 62
0
370
0
  6
CONTINUOUS
100
AcDbCircle
 10
195.1941119999999898
 20
39.5930159999999987
 30
0.0
 40
1.4800880000000001
100
AcDbArc
 50
166.2219540000000109
 51
199.2306670000000111
  0
ARC
  5
6F
100
AcDbEntity
  8
0
 62
0
370
0
  6
CONTINUOUS
100
AcDbCircle
 10
197.9733200000000011
 20
40.1972960000000015
 30
0.0
 40
4.3170479999999998
100
AcDbArc
 50
194.649169999999998
 51
215.9062649999999906
  0
ARC
  5
70
100
AcDbEntity
  8
0
 62
0
370
0
  6
CONTINUOUS
100
AcDbCircle
 10
192.3606080000000134
 20
34.9895199999999988
 30
0.0
 40
3.4115120000000001
100
AcDbArc
 50
27.1358870000000003
 51
51.6654359999999997
  0
ARC
  5
71
100
AcDbEntity
  8
0
 62
0
370
0
  6
CONTINUOUS
100
AcDbCircle
 10
190.7366079999999897
 20
34.5655199999999994
 30
0.0
 40
5.0632000000000001
100
AcDbArc
 50
7.4899529999999999
 51
23.0202850000000012
  0
ARC
  5
72
100
AcDbEntity
  8
0
 62
0
370
0
  6
CONTINUOUS
100
AcDbCircle
 10
194.1476639999999918
 20
34.7440720000000027
 30
0.0
 40
1.679432
100
AcDbArc
 50
310.4211429999999723
 51
16.6588290000000008
  0
ARC
  5
73
100
AcDbEntity
  8
0
 62
0
370
0
  6
CONTINUOUS
100
AcDbCircle
 10
194.7980719999999906
 20
34.0377119999999991
 30
0.0
 40
0.72092
100
AcDbArc
 50
218.8475039999999865
 51
307.4669489999999996
  0
ARC
  5
74
100
AcDbEntity
  8
0
 62
0
370
0
  6
CONTINUOUS
100
AcDbCircle
 10
194.889632000000006
 20
33.7460080000000033
 30
0.0
 40
0.6724560000000001
100
AcDbArc
 50
50.583835999999998
 51
193.8076320000000123
  0
ARC
  5
75
100
AcDbEntity
  8
0
 62
0
370
0
  6
CONTINUOUS
100
AcDbCircle
 10
196.8091119999999989
 20
33.5805199999999999
 30
0.0
 40
0.939568
100
AcDbArc
 50
187.0304720000000032
 51
222.5198059999999884
  0
ARC
  5
76
100
AcDbEntity
  8
0
 62
0
370
0
  6
CONTINUOUS
100
AcDbCircle
 10
198.0266080000000102
 20
34.8905200000000022
 30
0.0
 40
2.7260080000000002
100
AcDbArc
 50
225.5201869999999928
 51
239.3426360000000273
  0
ARC
  5
77
100
AcDbEntity
  8
0
 62
0
370
0
  6
CONTINUOUS
100
AcDbCircle
 10
196.4916080000000136
 20
32.2655200000000022
 30
0.0
 40
0.31532
100
AcDbArc
 50
297.3777160000000208
 51
62.6222950000000012
  0
ARC
  5
78
100
AcDbEntity
  8
0
 62
0
370
0
  6
CONTINUOUS
100
AcDbCircle
 10
197.6816080000000113
 20
28.0580160000000021
 30
0.0
 40
3.913656
100
AcDbArc
 50
119.4634250000000009
 51
136.6306610000000035
  0
ARC
  5
79
100
AcDbEntity
  8
0
 62
0
370
0
  6
CONTINUOUS
100
AcDbCircle
 10
194.2194159999999954
 20
31.4251679999999993
 30
0.0
 40
0.918072
100
AcDbArc
 50
211.4970399999999984
 51
312.2427670000000148
  0
ARC
  5
7A
100
AcDbEntity
  8
0
 62
0
370
0
  6
CONTINUOUS
100
AcDbCircle
 10
194.9473120000000108
 20
31.4522800000000018
 30
0.0
 40
1.593432
100
AcDbArc
 50
157.3653260000000103
 51
198.5438540000000103
  0
ARC
  5
7B
100
AcDbEntity
  8
0
 62
0
370
0
  6
CONTINUOUS
100
AcDbCircle
 10
187.9166079999999965
 20
33.1455199999999977
 30
0.0
 40
5.6639200000000001
100
AcDbArc
 50
349.0074769999999944
 51
5.2676970000000001
  0
ARC
  5
7C
100
AcDbEntity
  8
0
 62
0
370
0
  6
CONTINUOUS
100
AcDbCircle
 10
193.7766080000000102
 20
33.8055200000000013
 30
0.0
 40
0.260768
100
AcDbArc
 50
57.5288090000000096
 51
212.4711910000000046
  0
ARC
  5
7D
100
AcDbEntity
  8
0
 62
0
370
0
  6
CONTINUOUS
100
AcDbCircle
 10
189.0566080000000113
 20
32.8055200000000013
 30
0.0
 40
2.036664
100
AcDbArc
 50
162.2767639999999858
 51
187.3343810000000076
  0
ARC
  5
7E
100
AcDbEntity
  8
0
 62
0
370
0
  6
CONTINUOUS
100
AcDbCircle
 10
188.5901200000000131
 20
33.8559040000000024
 30
0.0
 40
0.410976
100
AcDbArc
 50
37.3985860000000017
 51
149.33433500000001
  0
ARC
  5
7F
100
AcDbEntity
  8
0
 62
0
370
0
  6
CONTINUOUS
100
AcDbCircle
 10
181.6366079999999954
 20
27.8655199999999965
 30
0.0
 40
9.5883280000000006
100
AcDbArc
 50
26.7788390000000014
 51
40.6012950000000004
  0
ARC
  5
80
100
AcDbEntity
  8
0
 62
0
370
0
  6
CONTINUOUS
100
AcDbCircle
 10
189.7404160000000104
 20
31.4207520000000002
 30
0.0
 40
0.8904879999999999
100
AcDbArc
 50
321.4263310000000047
 51
59.1833719999999985
  0
ARC
  5
81
100
AcDbEntity
  8
0
 62
0
370
0
  6
CONTINUOUS
100
AcDbCircle
 10
189.7727999999999895
 20
31.3931359999999984
 30
0.0
 40
0.847952
100
AcDbArc
 50
234.1855319999999665
 51
321.5210880000000202
  0
ARC
  5
82
100
AcDbEntity
  8
0
 62
0
370
0
  6
CONTINUOUS
100
AcDbCircle
 10
190.8466080000000034
 20
33.5405200000000008
 30
0.0
 40
2.8789120000000001
100
AcDbArc
 50
140.143462999999997
 51
156.9974060000000122
  0
ARC
  5
83
100
AcDbEntity
  8
0
 62
0
370
0
  6
CONTINUOUS
100
AcDbCircle
 10
185.1166080000000136
 20
37.0378240000000005
 30
0.0
 40
3.888512
100
AcDbArc
 50
334.8543700000000172
 51
350.9401550000000043
  0
ARC
  5
84
100
AcDbEntity
  8
0
 62
0
370
0
  6
CONTINUOUS
100
AcDbCircle
 10
190.8532800000000123
 20
35.898848000000001
 30
0.0
 40
1.968432
100
AcDbArc
 50
136.0291599999999903
 51
164.481078999999994
  0
ARC
  5
85
100
AcDbEntity
  8
0
 62
0
370
0
  6
CONTINUOUS
100
AcDbCircle
 10
185.8366080000000125
 20
40.6721840000000014
 30
0.0
 40
4.9563439999999996
100
AcDbArc
 50
316.5805359999999951
 51
328.811554000000001
  0
ARC
  5
86
100
AcDbEntity
  8
0
 62
0
370
0
  6
CONTINUOUS
100
AcDbCircle
 10
189.2116080000000125
 20
38.7055199999999999
 30
0.0
 40
1.0527200000000001
100
AcDbArc
 50
325.2532039999999824
 51
13.178191
  0
ARC
  5
87
100
AcDbEntity
  8
0
 62
0
370
0
  6
CONTINUOUS
100
AcDbCircle
 10
779.1766000000000076
 20
63.9655199999999979
 30
0.0
 40
589.4712399999999661
100
AcDbArc
 50
182.241973999999999
 51
182.4326320000000123
  0
ARC
  5
88
100
AcDbEntity
  8
0
 62
0
370
0
  6
CONTINUOUS
100
AcDbCircle
 10
191.2654960000000131
 20
34.4766320000000022
 30
0.0
 40
2.8476400000000002
100
AcDbArc
 50
289.0853579999999852
 51
323.5682980000000271
  0
ARC
  5
89
100
AcDbEntity
  8
0
 62
0
370
0
  6
CONTINUOUS
100
AcDbCircle
 10
197.4939119999999946
 20
42.3529359999999997
 30
0.0
 40
11.6497919999999997
100
AcDbArc
 50
220.5095829999999921
 51
232.2182620000000099
  0
ARC
  5
8A
100
AcDbEntity
  8
0
 62
0
370
0
  6
CONTINUOUS
100
AcDbCircle
 10
192.9766079999999988
 20
35.1655200000000008
 30
0.0
 40
1.9026320000000001
100
AcDbArc
 50
3.012788
 51
56.1428909999999988
  0
ARC
  5
8B
100
AcDbEntity
  8
0
 62
0
370
0
  6
CONTINUOUS
100
AcDbCircle
 10
190.8766080000000045
 20
38.4255199999999988
 30
0.0
 40
0.4
100
AcDbArc
 50
143.1300960000000089
 51
216.8699039999999911
  0
ARC
  5
8C
100
AcDbEntity
  8
0
 62
0
370
0
  6
CONTINUOUS
100
AcDbCircle
 10
194.1975600000000099
 20
35.3388479999999987
 30
0.0
 40
4.621696
100
AcDbArc
 50
141.9800419999999974
 51
155.3625790000000109
  0
ARC
  5
8D
100
AcDbEntity
  8
0
 62
0
370
0
  6
CONTINUOUS
100
AcDbCircle
 10
190.3566079999999943
 20
37.0055199999999971
 30
0.0
 40
0.444072
100
AcDbArc
 50
144.1623539999999934
 51
215.8376460000000066
  0
ARC
  5
8E
100
AcDbEntity
  8
0
 62
0
370
0
  6
CONTINUOUS
100
AcDbCircle
 10
192.1266080000000045
 20
34.6355199999999996
 30
0.0
 40
2.9981680000000002
100
AcDbArc
 50
135.2702639999999974
 51
187.8598479999999995
  0
ARC
  5
8F
100
AcDbEntity
  8
0
 62
0
370
0
  6
CONTINUOUS
100
AcDbCircle
 10
189.5143840000000068
 20
36.1166320000000027
 30
0.0
 40
4.0792320000000002
100
AcDbArc
 50
11.1507780000000007
 51
32.4520419999999987
  0
ARC
  5
90
100
AcDbEntity
  8
0
 62
0
370
0
  6
CONTINUOUS
100
AcDbCircle
 10
192.6966079999999977
 20
38.4255199999999988
 30
0.0
 40
0.28636
100
AcDbArc
 50
335.2248539999999934
 51
77.9052429999999987
  0
ARC
  5
91
100
AcDbEntity
  8
0
 62
0
370
0
  6
CONTINUOUS
100
AcDbCircle
 10
199.6334479999999871
 20
34.5149919999999995
 30
0.0
 40
8.7581360000000004
100
AcDbArc
 50
172.1873779999999954
 51
185.5660100000000057
  0
ARC
  5
92
100
AcDbEntity
  8
0
 62
0
370
0
  6
CONTINUOUS
100
AcDbCircle
 10
191.7855759999999918
 20
34.1441360000000032
 30
0.0
 40
2.7806479999999998
100
AcDbArc
 50
44.8593219999999988
 51
78.1493990000000025
  0
ARC
  5
93
100
AcDbEntity
  8
0
 62
0
370
0
  6
CONTINUOUS
100
AcDbCircle
 10
193.4206079999999872
 20
33.441519999999997
 30
0.0
 40
3.585512
100
AcDbArc
 50
91.6621319999999997
 51
107.262512000000001
  0
ARC
  5
94
100
AcDbEntity
  8
0
 62
0
370
0
  6
CONTINUOUS
100
AcDbCircle
 10
190.8188319999999862
 20
40.2188480000000013
 30
0.0
 40
0.380648
100
AcDbArc
 50
7.0420389999999999
 51
154.0333100000000002
  0
ARC
  5
95
100
AcDbEntity
  8
0
 62
0
370
0
  6
CONTINUOUS
100
AcDbCircle
 10
190.555560000000014
 20
37.4213039999999992
 30
0.0
 40
0.517424
100
AcDbArc
 50
202.2343140000000119
 51
274.5506899999999746
  0
ARC
  5
96
100
AcDbEntity
  8
0
 62
0
370
0
  6
CONTINUOUS
100
AcDbCircle
 10
192.6566080000000056
 20
31.7855199999999982
 30
0.0
 40
5.5188800000000002
100
AcDbArc
 50
111.9170840000000027
 51
121.2130200000000002
  0
ARC
  5
97
100
AcDbEntity
  8
0
 62
0
370
0
  6
CONTINUOUS
100
AcDbCircle
 10
190.2643999999999949
 20
32.8097679999999983
 30
0.0
 40
0.348184
100
AcDbArc
 50
278.6243590000000268
 51
74.6427000000000049
  0
ARC
  5
98
100
AcDbEntity
  8
0
 62
0
370
0
  6
CONTINUOUS
100
AcDbCircle
 10
188.6299439999999947
 20
34.4655199999999979
 30
0.0
 40
0.477264
100
AcDbArc
 50
155.2248539999999934
 51
224.0770870000000059
  0
ARC
  5
99
100
AcDbEntity
  8
0
 62
0
370
0
  6
CONTINUOUS
100
AcDbCircle
 10
186.2661760000000015
 20
32.2776879999999977
 30
0.0
 40
0.815656
100
AcDbArc
 50
314.2632449999999835
 51
19.1689760000000007
  0
ARC
  5
9A
100
AcDbEntity
  8
0
 62
0
370
0
  6
CONTINUOUS
100
AcDbCircle
 10
187.1108959999999968
 20
31.6255200000000016
 30
0.0
 40
0.283704
100
AcDbArc
 50
166.1223300000000052
 51
279.2726139999999759
  0
ARC
  5
9B
100
AcDbEntity
  8
0
 62
0
370
0
  6
CONTINUOUS
100
AcDbCircle
 10
192.7443039999999996
 20
45.8055200000000013
 30
0.0
 40
15.5020640000000007
100
AcDbArc
 50
248.8722689999999886
 51
256.9222720000000209
  0
ARC
  5
9C
100
AcDbEntity
  8
0
 62
0
370
0
  6
CONTINUOUS
100
AcDbCircle
 10
187.7451839999999947
 20
34.0683760000000007
 30
0.0
 40
0.49144
100
AcDbArc
 50
261.5655820000000062
 51
359.6669009999999957
  0
ARC
  5
9D
100
AcDbEntity
  8
0
 62
0
370
0
  6
CONTINUOUS
100
AcDbCircle
 10
187.7724000000000046
 20
32.163415999999998
 30
0.0
 40
1.422312
100
AcDbArc
 50
94.0034409999999951
 51
117.4563749999999942
  0
ARC
  5
9E
100
AcDbEntity
  8
0
 62
0
370
0
  6
CONTINUOUS
100
AcDbCircle
 10
191.996608000000009
 20
25.0005200000000016
 30
0.0
 40
6.1855200000000004
100
AcDbArc
 50
76.9185939999999988
 51
103.7120359999999977
  0
ARC
  5
9F
100
AcDbEntity
  8
0
 62
0
370
0
  6
CONTINUOUS
100
AcDbCircle
 10
191.4769839999999874
 20
33.8832560000000029
 30
0.0
 40
2.2177359999999999
100
AcDbArc
 50
243.6871949999999742
 51
288.9343870000000152
  0
ARC
  5
A0
100
AcDbEntity
  8
0
 62
0
370
0
  6
CONTINUOUS
100
AcDbCircle
 10
195.4066080000000056
 20
33.5955200000000005
 30
0.0
 40
0.487648
100
AcDbArc
 50
344.5387880000000109
 51
58.7759480000000067
  0
ARC
  5
A1
100
AcDbEntity
  8
0
 62
0
370
0
  6
CONTINUOUS
100
AcDbCircle
 10
191.3116080000000068
 20
35.6130160000000018
 30
0.0
 40
3.581896
100
AcDbArc
 50
339.9261169999999765
 51
354.4326479999999719
  0
ARC
  5
A2
100
AcDbEntity
  8
0
 62
0
370
0
  6
CONTINUOUS
100
AcDbCircle
 10
190.9063999999999908
 20
34.9599839999999986
 30
0.0
 40
3.2555040000000002
100
AcDbArc
 50
341.8895259999999894
 51
36.6991420000000019
  0
ARC
  5
A3
100
AcDbEntity
  8
0
 62
0
370
0
  6
CONTINUOUS
100
AcDbCircle
 10
194.3305119999999988
 20
34.3898719999999969
 30
0.0
 40
0.551432
100
AcDbArc
 50
221.3573000000000093
 51
258.9743040000000178
  0
ARC
  5
A4
100
AcDbEntity
  8
0
 62
0
370
0
  6
CONTINUOUS
100
AcDbCircle
 10
191.3844320000000039
 20
34.7768239999999977
 30
0.0
 40
2.5478399999999999
100
AcDbArc
 50
138.4866330000000119
 51
185.2003170000000125
  0
ARC
  5
A5
100
AcDbEntity
  8
0
 62
0
370
0
  6
CONTINUOUS
100
AcDbCircle
 10
192.1049999999999898
 20
39.9893920000000023
 30
0.0
 40
0.77536
100
AcDbArc
 50
311.9663699999999835
 51
62.0284580000000076
  0
ARC
  5
A6
100
AcDbEntity
  8
0
 62
0
370
0
  6
CONTINUOUS
100
AcDbCircle
 10
191.4766079999999988
 20
39.3455200000000005
 30
0.0
 40
0.481664
100
AcDbArc
 50
30.362410999999998
 51
138.366455000000002
  0
ARC
  5
A7
100
AcDbEntity
  8
0
 62
0
370
0
  6
CONTINUOUS
100
AcDbCircle
 10
190.7899439999999913
 20
38.984568000000003
 30
0.0
 40
0.395264
100
AcDbArc
 50
116.2053449999999941
 51
233.8203739999999584
  0
ARC
  5
A8
100
AcDbEntity
  8
0
 62
0
370
0
  6
CONTINUOUS
100
AcDbCircle
 10
191.5866080000000125
 20
38.3955199999999977
 30
0.0
 40
1.354176
100
AcDbArc
 50
110.308441000000002
 51
135.8235019999999906
  0
ARC
  5
A9
100
AcDbEntity
  8
0
 62
0
370
0
  6
CONTINUOUS
100
AcDbCircle
 10
190.3766080000000045
 20
40.1255200000000016
 30
0.0
 40
0.831864
100
AcDbArc
 50
324.2603760000000079
 51
9.6887869999999996
  0
ARC
  5
AA
100
AcDbEntity
  8
0
 62
0
370
0
  6
CONTINUOUS
100
AcDbCircle
 10
191.6288560000000132
 20
39.8881840000000025
 30
0.0
 40
1.2549999999999999
100
AcDbArc
 50
156.6539919999999881
 51
208.8717800000000011
  0
ARC
  5
AB
100
AcDbEntity
  8
0
 62
0
370
0
  6
CONTINUOUS
100
AcDbCircle
 10
191.9236640000000023
 20
38.1251120000000014
 30
0.0
 40
1.464208
100
AcDbArc
 50
62.6389619999999994
 51
91.2309800000000024
  0
ARC
  5
AC
100
AcDbEntity
  8
0
 62
0
370
0
  6
CONTINUOUS
100
AcDbCircle
 10
192.7424560000000042
 20
40.2142800000000022
 30
0.0
 40
1.0329680000000001
100
AcDbArc
 50
188.8350680000000068
 51
217.2301030000000139
  0
ARC
  5
AD
100
AcDbEntity
  8
0
 62
0
370
0
  6
CONTINUOUS
100
AcDbCircle
 10
192.2826560000000029
 20
40.1385440000000031
 30
0.0
 40
0.567008
100
AcDbArc
 50
70.8492889999999989
 51
190.299209999999988
  0
ARC
  5
AE
100
AcDbEntity
  8
0
 62
0
370
0
  6
CONTINUOUS
100
AcDbCircle
 10
190.7630159999999933
 20
40.0456799999999973
 30
0.0
 40
0.12
100
AcDbArc
 50
63.3159940000000034
 51
150.1225589999999954
  0
ARC
  5
AF
100
AcDbEntity
  8
0
 62
0
370
0
  6
CONTINUOUS
100
AcDbCircle
 10
190.6597680000000139
 20
39.8402559999999966
 30
0.0
 40
0.349912
100
AcDbArc
 50
344.2913510000000201
 51
63.3159940000000034
  0
ARC
  5
B0
100
AcDbEntity
  8
0
 62
0
370
0
  6
CONTINUOUS
100
AcDbCircle
 10
191.0766079999999931
 20
39.8655199999999965
 30
0.0
 40
0.481664
100
AcDbArc
 50
150.1225589999999954
 51
232.2633209999999906
  0
ARC
  5
B1
100
AcDbEntity
  8
0
 62
0
370
0
  6
CONTINUOUS
100
AcDbCircle
 10
192.3217600000000118
 20
40.099736
 30
0.0
 40
0.12
100
AcDbArc
 50
46.3694460000000035
 51
103.1804280000000063
  0
ARC
  5
B2
100
AcDbEntity
  8
0
 62
0
370
0
  6
CONTINUOUS
100
AcDbCircle
 10
192.3766080000000045
 20
39.8655199999999965
 30
0.0
 40
0.360552
100
AcDbArc
 50
103.1804280000000063
 51
235.6251679999999737
  0
ARC
  5
B3
100
AcDbEntity
  8
0
 62
0
370
0
  6
CONTINUOUS
100
AcDbCircle
 10
192.1366079999999954
 20
39.9055200000000028
 30
0.0
 40
0.388328
100
AcDbArc
 50
291.8327939999999785
 51
46.3694460000000035
  0
ARC
  5
B4
100
AcDbEntity
  8
0
 62
0
370
0
  6
CONTINUOUS
100
AcDbCircle
 10
192.6148159999999905
 20
38.8493920000000017
 30
0.0
 40
0.12
100
AcDbArc
 50
294.0325930000000199
 51
308.9663090000000238
  0
ARC
  5
B5
100
AcDbEntity
  8
0
 62
0
370
0
  6
CONTINUOUS
100
AcDbCircle
 10
192.4423280000000034
 20
39.0626639999999981
 30
0.0
 40
0.394296
100
AcDbArc
 50
308.9663090000000238
 51
66.9649579999999958
  0
ARC
  5
B6
100
AcDbEntity
  8
0
 62
0
370
0
  6
CONTINUOUS
100
AcDbCircle
 10
191.0317520000000115
 20
38.7015039999999999
 30
0.0
 40
0.12
100
AcDbArc
 50
244.8093409999999892
 51
261.6190189999999802
  0
ARC
  5
B7
100
AcDbEntity
  8
0
 62
0
370
0
  6
CONTINUOUS
100
AcDbCircle
 10
191.7511519999999905
 20
40.2309759999999983
 30
0.0
 40
1.810208
100
AcDbArc
 50
225.2441560000000038
 51
244.8093409999999892
  0
ARC
  5
B8
100
AcDbEntity
  8
0
 62
0
370
0
  6
CONTINUOUS
100
AcDbCircle
 10
191.8888159999999914
 20
38.6369919999999993
 30
0.0
 40
0.12
100
AcDbArc
 50
110.9201199999999972
 51
120.3219600000000042
  0
ARC
  5
B9
100
AcDbEntity
  8
0
 62
0
370
0
  6
CONTINUOUS
100
AcDbCircle
 10
191.1966079999999977
 20
39.8205200000000019
 30
0.0
 40
1.251088
100
AcDbArc
 50
261.6190189999999802
 51
300.32195999999999
  0
ARC
  5
BA
100
AcDbEntity
  8
0
 62
0
370
0
  6
CONTINUOUS
100
AcDbCircle
 10
190.5880400000000066
 20
42.0397999999999996
 30
0.0
 40
3.5229599999999999
100
AcDbArc
 50
290.9201350000000161
 51
304.7597959999999944
  0
ARC
  5
BB
100
AcDbEntity
  8
0
 62
0
370
0
  6
CONTINUOUS
100
AcDbCircle
 10
191.1884159999999895
 20
38.5809440000000023
 30
0.0
 40
0.4
100
AcDbArc
 50
218.7462920000000111
 51
251.5650789999999688
  0
ARC
  5
BC
100
AcDbEntity
  8
0
 62
0
370
0
  6
CONTINUOUS
100
AcDbCircle
 10
191.4166079999999965
 20
39.2655200000000022
 30
0.0
 40
1.1216079999999999
100
AcDbArc
 50
251.5650789999999688
 51
291.9911190000000261
  0
ARC
  5
BD
100
AcDbEntity
  8
0
 62
0
370
0
  6
CONTINUOUS
100
AcDbCircle
 10
188.7766080000000102
 20
36.6455199999999977
 30
0.0
 40
2.6923599999999999
100
AcDbArc
 50
38.7462919999999968
 51
48.6138800000000018
  0
ARC
  5
BE
100
AcDbEntity
  8
0
 62
0
370
0
  6
CONTINUOUS
100
AcDbCircle
 10
194.2362720000000138
 20
35.288488000000001
 30
0.0
 40
3.7926959999999998
100
AcDbArc
 50
114.4963300000000004
 51
129.2501070000000141
  0
ARC
  5
BF
100
AcDbEntity
  8
0
 62
0
370
0
  6
CONTINUOUS
100
AcDbCircle
 10
190.2138239999999882
 20
33.9427840000000032
 30
0.0
 40
1.4808399999999999
100
AcDbArc
 50
263.5004579999999805
 51
273.9800420000000258
  0
ARC
  5
C0
100
AcDbEntity
  8
0
 62
0
370
0
  6
CONTINUOUS
100
AcDbCircle
 10
198.2129199999999969
 20
28.3132960000000011
 30
0.0
 40
3.9962399999999998
100
AcDbArc
 50
113.2315830000000005
 51
127.926872000000003
  0
ARC
  5
C1
100
AcDbEntity
  8
0
 62
0
370
0
  6
CONTINUOUS
100
AcDbCircle
 10
190.2794000000000096
 20
39.8654879999999991
 30
0.0
 40
0.727176
100
AcDbArc
 50
337.9531559999999786
 51
350.5036929999999984
  0
MTEXT
  5
C2
100
AcDbEntity
100
AcDbMText
  8
0
 62
0
370
0
  6
CONTINUOUS
 10
191.7556559999999877
 20
45.4791600000000003
 30
0.0
 40
1.28
 41
100.0
 71
8
 72
2
  1
Powered\~by
  7
Normal
 50
0.0
 73
1
 44
1.0
  0
MTEXT
  5
C3
100
AcDbEntity
100
AcDbMText
  8
0
 62
0
370
0
  6
CONTINUOUS
 10
191.7556559999999877
 20
43.6871599999999987
 30
0.0
 40
1.28
 41
100.0
 71
8
 72
2
  1
LINUX
  7
Normal
 50
0.0
 73
1
 44
1.0
  0
LINE
  5
C4
100
AcDbEntity
100
AcDbLine
  8
0
 62
0
370
0
  6
CONTINUOUS
 10
65.2800000000000011
 20
27.5200000000000031
 30
0.0
 11
147.1999920000000088
 21
27.5200000000000031
 31
0.0
  0
LINE
  5
C5
100
AcDbEntity
100
AcDbLine
  8
0
 62
0
370
0
  6
CONTINUOUS
 10
65.2800000000000011
 20
1.2800000000000002
 30
0.0
 11
147.1999920000000088
 21
1.2800000000000002
 31
0.0
  0
LINE
  5
C6
100
AcDbEntity
100
AcDbLine
  8
0
 62
0
370
0
  6
CONTINUOUS
 10
65.2800000000000011
 20
27.5200000000000031
 30
0.0
 11
65.2800000000000011
 21
1.2800000000000002
 31
0.0
  0
LINE
  5
C7
100
AcDbEntity
100
AcDbLine
  8
0
 62
0
370
0
  6
CONTINUOUS
 10
200.0
 20
0.0
 30
0.0
 11
64.0
 21
0.0
 31
0.0
  0
LINE
  5
C8
100
AcDbEntity
100
AcDbLine
  8
0
 62
0
370
0
  6
CONTINUOUS
 10
0.0
 20
0.0
 30
0.0
 11
184.4261510000000044
 21
0.0
 31
0.0
  0
LINE
  5
C9
100
AcDbEntity
100
AcDbLine
  8
0
 62
0
370
0
  6
CONTINUOUS
 10
0.0
 20
283.0
 30
0.0
 11
200.0
 21
283.0
 31
0.0
  0
LINE
  5
CA
100
AcDbEntity
100
AcDbLine
  8
0
 62
0
370
0
  6
CONTINUOUS
 10
200.0
 20
283.0
 30
0.0
 11
200.0
 21
0.0
 31
0.0
  0
MTEXT
  5
CB
100
AcDbEntity
100
AcDbMText
  8
0
 62
0
370
0
  6
CONTINUOUS
 10
85.7066599999999994
 20
56.302818000000002
 30
0.0
 40
3.2000000000000002
 41
100.0
 71
7
 72
2
  1
PROYECTO\~CUBE\~3.0
  7
Normal_fix
 50
0.0
 73
1
 44
1.0
  0
MTEXT
  5
CC
100
AcDbEntity
100
AcDbMText
  8
0
 62
0
370
0
  6
CONTINUOUS
 10
80.6915220000000062
 20
49.6433910000000012
 30
0.0
 40
3.2000000000000002
 41
100.0
 71
7
 72
2
  1
MODULOS\~Y1.\~Primera\~generacion
  7
Normal
 50
0.0
 73
1
 44
1.0
  0
CIRCLE
  5
CD
100
AcDbEntity
100
AcDbCircle
  8
0
 62
0
370
0
  6
CONTINUOUS
 10
163.0
 20
57.0
 30
0.0
 40
1.0
  0
CIRCLE
  5
CE
100
AcDbEntity
100
AcDbCircle
  8
0
 62
0
370
0
  6
CONTINUOUS
 10
164.9831049999999948
 20
54.748935000000003
 30
0.0
 40
1.0
  0
CIRCLE
  5
CF
100
AcDbEntity
100
AcDbCircle
  8
0
 62
0
370
0
  6
CONTINUOUS
 10
167.7821199999999919
 20
53.6693449999999999
 30
0.0
 40
1.0
  0
CIRCLE
  5
D0
100
AcDbEntity
100
AcDbCircle
  8
0
 62
0
370
0
  6
CONTINUOUS
 10
170.771727999999996
 20
53.9188430000000025
 30
0.0
 40
1.0
  0
CIRCLE
  5
D1
100
AcDbEntity
100
AcDbCircle
  8
0
 62
0
370
0
  6
CONTINUOUS
 10
172.8958529999999882
 20
56.037354999999998
 30
0.0
 40
1.0
  0
CIRCLE
  5
D2
100
AcDbEntity
100
AcDbCircle
  8
0
 62
0
370
0
  6
CONTINUOUS
 10
177.8251840000000072
 20
58.9395229999999941
 30
0.0
 40
1.0
  0
CIRCLE
  5
D3
100
AcDbEntity
100
AcDbCircle
  8
0
 62
0
370
0
  6
CONTINUOUS
 10
180.3842640000000017
 20
57.3739199999999983
 30
0.0
 40
1.0
  0
CIRCLE
  5
D4
100
AcDbEntity
100
AcDbCircle
  8
0
 62
0
370
0
  6
CONTINUOUS
 10
182.4955339999999921
 20
55.2425970000000035
 30
0.0
 40
1.0
  0
CIRCLE
  5
D5
100
AcDbEntity
100
AcDbCircle
  8
0
 62
0
370
0
  6
CONTINUOUS
 10
184.9140120000000138
 20
53.4675009999999986
 30
0.0
 40
1.0
  0
CIRCLE
  5
D6
100
AcDbEntity
100
AcDbCircle
  8
0
 62
0
370
0
  6
CONTINUOUS
 10
187.8167369999999892
 20
52.7097479999999976
 30
0.0
 40
1.0
  0
CIRCLE
  5
D7
100
AcDbEntity
100
AcDbCircle
  8
0
 62
0
370
0
  6
CONTINUOUS
 10
190.737733999999989
 20
53.3936869999999999
 30
0.0
 40
1.0
  0
CIRCLE
  5
D8
100
AcDbEntity
100
AcDbCircle
  8
0
 62
0
370
0
  6
CONTINUOUS
 10
192.946234000000004
 20
55.4240890000000022
 30
0.0
 40
1.0
  0
LINE
  5
D9
100
AcDbEntity
100
AcDbLine
  8
0
 62
0
370
0
  6
CONTINUOUS
 10
163.6610349999999983
 20
56.249645000000001
 30
0.0
 11
164.3220699999999965
 21
55.499290000000002
 31
0.0
  0
LINE
  5
DA
100
AcDbEntity
100
AcDbLine
  8
0
 62
0
370
0
  6
CONTINUOUS
 10
165.9161100000000033
 20
54.3890719999999988
 30
0.0
 11
166.8491150000000118
 21
54.0292090000000016
 31
0.0
  0
LINE
  5
DB
100
AcDbEntity
100
AcDbLine
  8
0
 62
0
370
0
  6
CONTINUOUS
 10
168.7786560000000122
 20
53.7525109999999984
 30
0.0
 11
169.7751920000000041
 21
53.8356769999999969
 31
0.0
  0
LINE
  5
DC
100
AcDbEntity
100
AcDbLine
  8
0
 62
0
370
0
  6
CONTINUOUS
 10
171.4797690000000046
 20
54.6250140000000002
 30
0.0
 11
172.1878110000000106
 21
55.3311840000000004
 31
0.0
  0
LINE
  5
DD
100
AcDbEntity
100
AcDbLine
  8
0
 62
0
370
0
  6
CONTINUOUS
 10
173.5642860000000098
 20
56.7811269999999979
 30
0.0
 11
174.2327200000000005
 21
57.5248989999999978
 31
0.0
  0
LINE
  5
DE
100
AcDbEntity
100
AcDbLine
  8
0
 62
0
370
0
  6
CONTINUOUS
 10
175.8758300000000077
 20
58.4922880000000021
 30
0.0
 11
176.8505069999999932
 21
58.7159050000000065
 31
0.0
  0
LINE
  5
DF
100
AcDbEntity
100
AcDbLine
  8
0
 62
0
370
0
  6
CONTINUOUS
 10
178.6782110000000046
 20
58.4176549999999963
 30
0.0
 11
179.5312370000000044
 21
57.8957880000000031
 31
0.0
  0
LINE
  5
E0
100
AcDbEntity
100
AcDbLine
  8
0
 62
0
370
0
  6
CONTINUOUS
 10
181.0880200000000002
 20
56.6634790000000024
 30
0.0
 11
181.7917769999999962
 21
55.9530379999999994
 31
0.0
  0
LINE
  5
E1
100
AcDbEntity
100
AcDbLine
  8
0
 62
0
370
0
  6
CONTINUOUS
 10
183.3016930000000002
 20
54.650897999999998
 30
0.0
 11
184.1078530000000057
 21
54.059199999999997
 31
0.0
  0
LINE
  5
E2
100
AcDbEntity
100
AcDbLine
  8
0
 62
0
370
0
  6
CONTINUOUS
 10
185.8815869999999961
 20
53.2149169999999998
 30
0.0
 11
186.8491620000000069
 21
52.962333000000001
 31
0.0
  0
LINE
  5
E3
100
AcDbEntity
100
AcDbLine
  8
0
 62
0
370
0
  6
CONTINUOUS
 10
188.7904020000000003
 20
52.9377279999999999
 30
0.0
 11
189.7640680000000089
 21
53.1657080000000022
 31
0.0
  0
LINE
  5
E4
100
AcDbEntity
100
AcDbLine
  8
0
 62
0
370
0
  6
CONTINUOUS
 10
191.4739010000000121
 20
54.0704879999999974
 30
0.0
 11
192.2100670000000093
 21
54.7472879999999975
 31
0.0
  0
CIRCLE
  5
E5
100
AcDbEntity
100
AcDbCircle
  8
0
 62
0
370
0
  6
CONTINUOUS
 10
174.9011529999999937
 20
58.2686700000000002
 30
0.0
 40
1.0
  0
ARC
  5
E6
100
AcDbEntity
  8
0
 62
0
370
0
  6
CONTINUOUS
100
AcDbCircle
 10
171.1806210000000021
 20
41.345911000000001
 30
0.0
 40
3.2000000000000002
100
AcDbArc
 50
26.5650520000000014
 51
180.0
  0
ARC
  5
E7
100
AcDbEntity
  8
0
 62
0
370
0
  6
CONTINUOUS
100
AcDbCircle
 10
171.0206210000000056
 20
40.2259069999999994
 30
0.0
 40
3.0400040000000002
100
AcDbArc
 50
180.0
 51
0.0
  0
LINE
  5
E8
100
AcDbEntity
100
AcDbLine
  8
0
 62
0
370
0
  6
CONTINUOUS
 10
174.0606129999999894
 20
42.7859070000000017
 30
0.0
 11
175.0206210000000056
 21
42.7859070000000017
 31
0.0
  0
LINE
  5
E9
100
AcDbEntity
100
AcDbLine
  8
0
 62
0
370
0
  6
CONTINUOUS
 10
167.0206210000000056
 20
41.345911000000001
 30
0.0
 11
167.0206210000000056
 21
40.2259069999999994
 31
0.0
  0
LINE
  5
EA
100
AcDbEntity
100
AcDbLine
  8
0
 62
0
370
0
  6
CONTINUOUS
 10
167.9806210000000135
 20
41.345911000000001
 30
0.0
 11
167.9806210000000135
 21
40.2259069999999994
 31
0.0
  0
LINE
  5
EB
100
AcDbEntity
100
AcDbLine
  8
0
 62
0
370
0
  6
CONTINUOUS
 10
174.9014329999999973
 20
43.2063149999999965
 30
0.0
 11
175.0206210000000056
 21
42.7859070000000017
 31
0.0
  0
LINE
  5
EC
100
AcDbEntity
100
AcDbLine
  8
0
 62
0
370
0
  6
CONTINUOUS
 10
174.0606129999999894
 20
40.2259069999999994
 30
0.0
 11
171.1806210000000021
 21
40.2259069999999994
 31
0.0
  0
LINE
  5
ED
100
AcDbEntity
100
AcDbLine
  8
0
 62
0
370
0
  6
CONTINUOUS
 10
171.1806210000000021
 20
40.2259069999999994
 30
0.0
 11
171.1806210000000021
 21
41.1859070000000003
 31
0.0
  0
LINE
  5
EE
100
AcDbEntity
100
AcDbLine
  8
0
 62
0
370
0
  6
CONTINUOUS
 10
171.1806210000000021
 20
41.1859070000000003
 30
0.0
 11
175.0206210000000056
 21
41.1859070000000003
 31
0.0
  0
LINE
  5
EF
100
AcDbEntity
100
AcDbLine
  8
0
 62
0
370
0
  6
CONTINUOUS
 10
175.0206210000000056
 20
41.1859070000000003
 30
0.0
 11
175.0206210000000056
 21
40.2259069999999994
 31
0.0
  0
LINE
  5
F0
100
AcDbEntity
100
AcDbLine
  8
0
 62
0
370
0
  6
CONTINUOUS
 10
174.0606129999999894
 20
36.7059070000000034
 30
0.0
 11
175.0206210000000056
 21
36.7059070000000034
 31
0.0
  0
LINE
  5
F1
100
AcDbEntity
100
AcDbLine
  8
0
 62
0
370
0
  6
CONTINUOUS
 10
175.0206210000000056
 20
36.7059070000000034
 30
0.0
 11
175.0206210000000056
 21
40.2259069999999994
 31
0.0
  0
LINE
  5
F2
100
AcDbEntity
100
AcDbLine
  8
0
 62
0
370
0
  6
CONTINUOUS
 10
174.0606249999999875
 20
37.626215000000002
 30
0.0
 11
174.0606129999999894
 21
36.7059070000000034
 31
0.0
  0
ARC
  5
F3
100
AcDbEntity
  8
0
 62
0
370
0
  6
CONTINUOUS
100
AcDbCircle
 10
171.0206210000000056
 20
40.2259069999999994
 30
0.0
 40
4.0
100
AcDbArc
 50
180.0
 51
319.4642029999999977
  0
ARC
  5
F4
100
AcDbEntity
  8
0
 62
0
370
0
  6
CONTINUOUS
100
AcDbCircle
 10
173.2053050000000098
 20
35.8194190000000035
 30
0.0
 40
3.2000000000000002
100
AcDbArc
 50
26.5650520000000014
 51
180.0
  0
ARC
  5
F5
100
AcDbEntity
  8
0
 62
0
370
0
  6
CONTINUOUS
100
AcDbCircle
 10
173.0453050000000133
 20
34.6994189999999989
 30
0.0
 40
3.0400040000000002
100
AcDbArc
 50
180.0
 51
0.0
  0
LINE
  5
F6
100
AcDbEntity
100
AcDbLine
  8
0
 62
0
370
0
  6
CONTINUOUS
 10
176.0852969999999971
 20
37.2594149999999971
 30
0.0
 11
177.0453050000000133
 21
37.2594149999999971
 31
0.0
  0
LINE
  5
F7
100
AcDbEntity
100
AcDbLine
  8
0
 62
0
370
0
  6
CONTINUOUS
 10
169.0453050000000133
 20
35.8194190000000035
 30
0.0
 11
169.0453050000000133
 21
34.6994189999999989
 31
0.0
  0
LINE
  5
F8
100
AcDbEntity
100
AcDbLine
  8
0
 62
0
370
0
  6
CONTINUOUS
 10
170.0053049999999928
 20
35.8194190000000035
 30
0.0
 11
170.0053049999999928
 21
34.6994189999999989
 31
0.0
  0
LINE
  5
F9
100
AcDbEntity
100
AcDbLine
  8
0
 62
0
370
0
  6
CONTINUOUS
 10
176.926117000000005
 20
37.6798270000000031
 30
0.0
 11
177.0453050000000133
 21
37.2594149999999971
 31
0.0
  0
LINE
  5
FA
100
AcDbEntity
100
AcDbLine
  8
0
 62
0
370
0
  6
CONTINUOUS
 10
176.0852969999999971
 20
34.6994189999999989
 30
0.0
 11
173.2053050000000098
 21
34.6994189999999989
 31
0.0
  0
LINE
  5
FB
100
AcDbEntity
100
AcDbLine
  8
0
 62
0
370
0
  6
CONTINUOUS
 10
173.2053050000000098
 20
34.6994189999999989
 30
0.0
 11
173.2053050000000098
 21
35.6594150000000027
 31
0.0
  0
LINE
  5
FC
100
AcDbEntity
100
AcDbLine
  8
0
 62
0
370
0
  6
CONTINUOUS
 10
173.2053050000000098
 20
35.6594150000000027
 30
0.0
 11
177.0453050000000133
 21
35.6594150000000027
 31
0.0
  0
LINE
  5
FD
100
AcDbEntity
100
AcDbLine
  8
0
 62
0
370
0
  6
CONTINUOUS
 10
177.0453050000000133
 20
35.6594150000000027
 30
0.0
 11
177.0453050000000133
 21
34.6994189999999989
 31
0.0
  0
LINE
  5
FE
100
AcDbEntity
100
AcDbLine
  8
0
 62
0
370
0
  6
CONTINUOUS
 10
176.0852969999999971
 20
31.1794190000000029
 30
0.0
 11
177.0453050000000133
 21
31.1794190000000029
 31
0.0
  0
LINE
  5
FF
100
AcDbEntity
100
AcDbLine
  8
0
 62
0
370
0
  6
CONTINUOUS
 10
177.0453050000000133
 20
31.1794190000000029
 30
0.0
 11
177.0453050000000133
 21
34.6994189999999989
 31
0.0
  0
LINE
  5
100
100
AcDbEntity
100
AcDbLine
  8
0
 62
0
370
0
  6
CONTINUOUS
 10
176.0853089999999952
 20
32.0997229999999973
 30
0.0
 11
176.0852969999999971
 21
31.1794190000000029
 31
0.0
  0
ARC
  5
101
100
AcDbEntity
  8
0
 62
0
370
0
  6
CONTINUOUS
100
AcDbCircle
 10
173.0453050000000133
 20
34.6994189999999989
 30
0.0
 40
4.0
100
AcDbArc
 50
180.0
 51
319.4642029999999977
  0
ARC
  5
102
100
AcDbEntity
  8
0
 62
0
370
0
  6
CONTINUOUS
100
AcDbCircle
 10
171.1806210000000021
 20
41.345911000000001
 30
0.0
 40
4.1600000000000001
100
AcDbArc
 50
26.5650520000000014
 51
180.0
  0
ARC
  5
103
100
AcDbEntity
  8
0
 62
0
370
0
  6
CONTINUOUS
100
AcDbCircle
 10
173.2053050000000098
 20
35.8194190000000035
 30
0.0
 40
4.1600000000000001
100
AcDbArc
 50
26.5650520000000014
 51
180.0
  0
MTEXT
  5
104
100
AcDbEntity
100
AcDbMText
  8
0
 62
0
370
0
  6
CONTINUOUS
 10
67.2000000000000028
 20
38.3999999999999986
 30
0.0
 40
1.9199999999999999
 41
100.0
 71
7
 72
2
  1
PIEZA:
  7
Normal_fix
 50
0.0
 73
1
 44
1.0
  0
MTEXT
  5
105
100
AcDbEntity
100
AcDbMText
  8
0
 62
0
370
0
  6
CONTINUOUS
 10
149.7599999999999909
 20
24.3200000000000003
 30
0.0
 40
1.9199999999999999
 41
100.0
 71
7
 72
2
  1
ESCALA:
  7
Normal_fix
 50
0.0
 73
1
 44
1.0
  0
MTEXT
  5
106
100
AcDbEntity
100
AcDbMText
  8
0
 62
0
370
0
  6
CONTINUOUS
 10
172.3800799999999924
 20
24.4359420000000007
 30
0.0
 40
1.9199999999999999
 41
100.0
 71
7
 72
2
  1
1:1
  7
Normal
 50
0.0
 73
1
 44
1.0
  0
MTEXT
  5
107
100
AcDbEntity
100
AcDbMText
  8
0
 62
0
370
0
  6
CONTINUOUS
 10
172.47999200000001
 20
19.8399999999999999
 30
0.0
 40
1.9199999999999999
 41
100.0
 71
7
 72
2
  1
Marzo\~de\~2003
  7
Normal
 50
0.0
 73
1
 44
1.0
  0
MTEXT
  5
108
100
AcDbEntity
100
AcDbMText
  8
0
 62
0
370
0
  6
CONTINUOUS
 10
161.5999919999999861
 20
6.4000000000000004
 30
0.0
 40
3.2000000000000002
 41
100.0
 71
7
 72
2
  1
23-03-03
  7
Normal
 50
0.0
 73
1
 44
1.0
  0
MTEXT
  5
109
100
AcDbEntity
100
AcDbMText
  8
0
 62
0
370
0
  6
CONTINUOUS
 10
67.2000000000000028
 20
19.1999999999999993
 30
0.0
 40
1.28
 41
100.0
 71
7
 72
2
  1
AUTOR:
  7
Normal
 50
0.0
 73
1
 44
1.0
  0
MTEXT
  5
10A
100
AcDbEntity
100
AcDbMText
  8
0
 62
0
370
0
  6
CONTINUOUS
 10
107.519999999999996
 20
19.1999999999999993
 30
0.0
 40
1.28
 41
100.0
 71
7
 72
2
  1
Version:
  7
Normal
 50
0.0
 73
1
 44
1.0
  0
LINE
  5
10B
100
AcDbEntity
100
AcDbLine
  8
0
 62
0
370
0
  6
CONTINUOUS
 10
159.9999919999999918
 20
47.9874000000000009
 30
0.0
 11
198.7199919999999906
 21
47.9874000000000009
 31
0.0
  0
MTEXT
  5
10C
100
AcDbEntity
100
AcDbMText
  8
futaba
 62
0
370
0
  6
CONTINUOUS
 10
29.5422889999999967
 20
268.4984600000000228
 30
0.0
 40
6.0
 41
100.0
 71
7
 72
2
  1
Pieza\~F
  7
Normal
 50
0.0
 73
1
 44
1.0
  0
LINE
  5
10D
100
AcDbEntity
100
AcDbLine
  8
0
 62
0
370
0
  6
CONTINUOUS
 10
46.2002960000000016
 20
245.6966989999999953
 30
0.0
 11
32.7652670000000015
 21
232.2616700000000094
 31
0.0
  0
LINE
  5
10E
100
AcDbEntity
100
AcDbLine
  8
0
 62
0
370
0
  6
CONTINUOUS
 10
61.2616699999999952
 20
203.7652669999999944
 30
0.0
 11
32.7652670000000015
 21
232.2616700000000094
 31
0.0
  0
CIRCLE
  5
10F
100
AcDbEntity
100
AcDbCircle
  8
0
 62
0
370
0
  6
CONTINUOUS
 10
33.5430840000000003
 20
238.8377629999999954
 30
0.0
 40
1.5
  0
CIRCLE
  5
110
100
AcDbEntity
100
AcDbCircle
  8
0
 62
0
370
0
  6
CONTINUOUS
 10
40.331310000000002
 20
245.6259880000000067
 30
0.0
 40
1.5
  0
CIRCLE
  5
111
100
AcDbEntity
100
AcDbCircle
  8
0
 62
0
370
0
  6
CONTINUOUS
 10
74.6259880000000067
 20
211.331310000000002
 30
0.0
 40
1.5
  0
CIRCLE
  5
112
100
AcDbEntity
100
AcDbCircle
  8
0
 62
0
370
0
  6
CONTINUOUS
 10
67.8377629999999954
 20
204.5430839999999932
 30
0.0
 40
1.5
  0
LINE
  5
113
100
AcDbEntity
100
AcDbLine
  8
0
 62
0
370
0
  6
CONTINUOUS
 10
28.0
 20
251.0
 30
0.0
 11
28.0
 21
199.0
 31
0.0
  0
LINE
  5
114
100
AcDbEntity
100
AcDbLine
  8
0
 62
0
370
0
  6
CONTINUOUS
 10
28.0
 20
199.0
 30
0.0
 11
80.0
 21
199.0
 31
0.0
  0
LINE
  5
115
100
AcDbEntity
100
AcDbLine
  8
0
 62
0
370
0
  6
CONTINUOUS
 10
74.6966989999999953
 20
217.2002960000000087
 30
0.0
 11
61.2616699999999952
 21
203.7652669999999944
 31
0.0
  0
LINE
  5
116
100
AcDbEntity
100
AcDbLine
  8
0
 62
0
370
0
  6
CONTINUOUS
 10
28.0
 20
251.0
 30
0.0
 11
40.8969949999999969
 21
251.0
 31
0.0
  0
LINE
  5
117
100
AcDbEntity
100
AcDbLine
  8
0
 62
0
370
0
  6
CONTINUOUS
 10
80.0
 20
211.896995000000004
 30
0.0
 11
80.0
 21
199.0
 31
0.0
  0
LINE
  5
118
100
AcDbEntity
100
AcDbLine
  8
0
 62
0
370
0
  6
CONTINUOUS
 10
74.6966989999999953
 20
217.2002960000000087
 30
0.0
 11
80.0
 21
211.896995000000004
 31
0.0
  0
LINE
  5
119
100
AcDbEntity
100
AcDbLine
  8
0
 62
0
370
0
  6
CONTINUOUS
 10
46.2002960000000016
 20
245.6966989999999953
 30
0.0
 11
40.8969949999999969
 21
251.0
 31
0.0
  0
LINE
  5
11A
100
AcDbEntity
100
AcDbLine
  8
0
 62
0
370
0
  6
CONTINUOUS
 10
28.0
 20
160.5999999999999943
 30
0.0
 11
80.0
 21
160.5999999999999943
 31
0.0
  0
LINE
  5
11B
100
AcDbEntity
100
AcDbLine
  8
0
 62
0
370
0
  6
CONTINUOUS
 10
28.0
 20
157.5999999999999943
 30
0.0
 11
80.0
 21
157.5999999999999943
 31
0.0
  0
LINE
  5
11C
100
AcDbEntity
100
AcDbLine
  8
0
 62
0
370
0
  6
CONTINUOUS
 10
40.8969949999999969
 20
160.5999999999999943
 30
0.0
 11
40.8969949999999969
 21
157.5999999999999943
 31
0.0
  0
LINE
  5
11D
100
AcDbEntity
100
AcDbLine
  8
0
 62
0
370
0
  6
CONTINUOUS
 10
46.2002960000000016
 20
160.5999999999999943
 30
0.0
 11
46.2002960000000016
 21
157.5999999999999943
 31
0.0
  0
LINE
  5
11E
100
AcDbEntity
100
AcDbLine
  8
0
 62
0
370
0
  6
CONTINUOUS
 10
61.2616699999999952
 20
160.5999999999999943
 30
0.0
 11
61.2616699999999952
 21
157.5999999999999943
 31
0.0
  0
LINE
  5
11F
100
AcDbEntity
100
AcDbLine
  8
0
 62
0
370
0
  6
CONTINUOUS
 10
74.6966989999999953
 20
160.5999999999999943
 30
0.0
 11
74.6966989999999953
 21
157.5999999999999943
 31
0.0
  0
LINE
  5
120
100
AcDbEntity
100
AcDbLine
  8
0
 62
0
370
0
  6
CONTINUOUS
 10
80.0
 20
160.5999999999999943
 30
0.0
 11
80.0
 21
157.5999999999999943
 31
0.0
  0
LINE
  5
121
100
AcDbEntity
100
AcDbLine
  8
0
 62
0
370
0
  6
CONTINUOUS
 10
28.0
 20
160.5999999999999943
 30
0.0
 11
28.0
 21
157.5999999999999943
 31
0.0
  0
MTEXT
  5
122
100
AcDbEntity
100
AcDbMText
  8
0
 62
0
370
0
  6
CONTINUOUS
 10
86.4000000000000057
 20
38.3999999999999986
 30
0.0
 40
3.2000000000000002
 41
100.0
 71
7
 72
2
  1
F
  7
Normal
 50
0.0
 73
1
 44
1.0
  0
MTEXT
  5
123
100
AcDbEntity
100
AcDbMText
  8
0
 62
0
370
0
  6
CONTINUOUS
 10
67.2000000000000028
 20
32.0
 30
0.0
 40
1.9199999999999999
 41
100.0
 71
7
 72
2
  1
EMPLAZAMIENTO:
  7
Normal
 50
0.0
 73
1
 44
1.0
  0
MTEXT
  5
124
100
AcDbEntity
100
AcDbMText
  8
0
 62
0
370
0
  6
CONTINUOUS
 10
90.1636869999999959
 20
31.7687420000000031
 30
0.0
 40
3.2000000000000002
 41
100.0
 71
7
 72
2
  1
Atornillada\~al\~servo
  7
Normal
 50
0.0
 73
1
 44
1.0
  0
MTEXT
  5
125
100
AcDbEntity
100
AcDbMText
  8
0
 62
0
370
0
  6
CONTINUOUS
 10
83.2000000000000028
 20
23.6799999999999997
 30
0.0
 40
1.9199999999999999
 41
100.0
 71
7
 72
2
  1
Pieza\~F\~con\~servo\~y\~sin\~el.\~Tornillos\~empleados
  7
Normal
 50
0.0
 73
1
 44
1.0
  0
MTEXT
  5
126
100
AcDbEntity
100
AcDbMText
  8
0
 62
0
370
0
  6
CONTINUOUS
 10
186.9441089999999974
 20
5.9852209999999992
 30
0.0
 40
6.4000000000000004
 41
100.0
 71
7
 72
2
  1
2
  7
Courier
 50
0.0
 73
1
 44
1.0
  0
LINE
  5
127
100
AcDbEntity
100
AcDbLine
  8
0
 62
0
370
0
  6
CONTINUOUS
 10
0.0
 20
283.0
 30
0.0
 11
0.0
 21
0.0
 31
0.0
  0
CIRCLE
  5
128
100
AcDbEntity
100
AcDbCircle
  8
0
 62
0
370
0
  6
CONTINUOUS
 10
27.7000000000000028
 20
103.8305830000000043
 30
0.0
 40
2.7000000000000002
  0
CIRCLE
  5
129
100
AcDbEntity
100
AcDbCircle
  8
0
 62
0
370
0
  6
CONTINUOUS
 10
27.7000000000000028
 20
103.8305830000000043
 30
0.0
 40
1.5
  0
CIRCLE
  5
12A
100
AcDbEntity
100
AcDbCircle
  8
0
 62
0
370
0
  6
CONTINUOUS
 10
38.2226890000000026
 20
103.8305830000000043
 30
0.0
 40
2.7000000000000002
  0
LINE
  5
12B
100
AcDbEntity
100
AcDbLine
  8
0
 62
0
370
0
  6
CONTINUOUS
 10
35.569389000000001
 20
103.3305830000000043
 30
0.0
 11
40.875988999999997
 21
103.3305830000000043
 31
0.0
  0
LINE
  5
12C
100
AcDbEntity
100
AcDbLine
  8
0
 62
0
370
0
  6
CONTINUOUS
 10
35.569389000000001
 20
104.3305830000000043
 30
0.0
 11
40.875988999999997
 21
104.3305830000000043
 31
0.0
  0
CIRCLE
  5
12D
100
AcDbEntity
100
AcDbCircle
  8
0
 62
0
370
0
  6
CONTINUOUS
 10
70.1513000000000062
 20
103.8305830000000043
 30
0.0
 40
1.25
  0
CIRCLE
  5
12E
100
AcDbEntity
100
AcDbCircle
  8
0
 62
0
370
0
  6
CONTINUOUS
 10
70.1513000000000062
 20
103.8305830000000043
 30
0.0
 40
2.75
  0
CIRCLE
  5
12F
100
AcDbEntity
100
AcDbCircle
  8
0
 62
0
370
0
  6
CONTINUOUS
 10
79.6255390000000034
 20
103.8305830000000043
 30
0.0
 40
2.75
  0
LINE
  5
130
100
AcDbEntity
100
AcDbLine
  8
0
 62
0
370
0
  6
CONTINUOUS
 10
78.3255390000000062
 20
104.2305829999999958
 30
0.0
 11
78.3255390000000062
 21
103.4305829999999986
 31
0.0
  0
LINE
  5
131
100
AcDbEntity
100
AcDbLine
  8
0
 62
0
370
0
  6
CONTINUOUS
 10
80.9255390000000006
 20
104.2305829999999958
 30
0.0
 11
80.9255390000000006
 21
103.4305829999999986
 31
0.0
  0
LINE
  5
132
100
AcDbEntity
100
AcDbLine
  8
0
 62
0
370
0
  6
CONTINUOUS
 10
79.2255389999999977
 20
105.1305830000000014
 30
0.0
 11
80.0255389999999949
 21
105.1305830000000014
 31
0.0
  0
LINE
  5
133
100
AcDbEntity
100
AcDbLine
  8
0
 62
0
370
0
  6
CONTINUOUS
 10
79.2255389999999977
 20
102.5305829999999929
 30
0.0
 11
80.0255389999999949
 21
102.5305829999999929
 31
0.0
  0
LINE
  5
134
100
AcDbEntity
100
AcDbLine
  8
0
 62
0
370
0
  6
CONTINUOUS
 10
79.2255389999999977
 20
105.1305830000000014
 30
0.0
 11
79.2255389999999977
 21
104.2305829999999958
 31
0.0
  0
LINE
  5
135
100
AcDbEntity
100
AcDbLine
  8
0
 62
0
370
0
  6
CONTINUOUS
 10
79.2255389999999977
 20
103.4305829999999986
 30
0.0
 11
79.2255389999999977
 21
102.5305829999999929
 31
0.0
  0
LINE
  5
136
100
AcDbEntity
100
AcDbLine
  8
0
 62
0
370
0
  6
CONTINUOUS
 10
80.0255389999999949
 20
103.4305829999999986
 30
0.0
 11
80.0255389999999949
 21
102.5305829999999929
 31
0.0
  0
LINE
  5
137
100
AcDbEntity
100
AcDbLine
  8
0
 62
0
370
0
  6
CONTINUOUS
 10
80.0255389999999949
 20
105.1305830000000014
 30
0.0
 11
80.0255389999999949
 21
104.2305829999999958
 31
0.0
  0
LINE
  5
138
100
AcDbEntity
100
AcDbLine
  8
0
 62
0
370
0
  6
CONTINUOUS
 10
78.3255390000000062
 20
104.2305829999999958
 30
0.0
 11
79.2255389999999977
 21
104.2305829999999958
 31
0.0
  0
LINE
  5
139
100
AcDbEntity
100
AcDbLine
  8
0
 62
0
370
0
  6
CONTINUOUS
 10
80.0255389999999949
 20
104.2305829999999958
 30
0.0
 11
80.9255390000000006
 21
104.2305829999999958
 31
0.0
  0
LINE
  5
13A
100
AcDbEntity
100
AcDbLine
  8
0
 62
0
370
0
  6
CONTINUOUS
 10
80.0255389999999949
 20
103.4305829999999986
 30
0.0
 11
80.9255390000000006
 21
103.4305829999999986
 31
0.0
  0
LINE
  5
13B
100
AcDbEntity
100
AcDbLine
  8
0
 62
0
370
0
  6
CONTINUOUS
 10
78.3255390000000062
 20
103.4305829999999986
 30
0.0
 11
79.2255389999999977
 21
103.4305829999999986
 31
0.0
  0
LINE
  5
13C
100
AcDbEntity
100
AcDbLine
  8
0
 62
0
370
0
  6
CONTINUOUS
 10
25.0
 20
82.8651090000000039
 30
0.0
 11
26.1999999999999993
 21
84.8651090000000039
 31
0.0
  0
LINE
  5
13D
100
AcDbEntity
100
AcDbLine
  8
0
 62
0
370
0
  6
CONTINUOUS
 10
30.3999999999999986
 20
82.8651090000000039
 30
0.0
 11
29.2000000000000028
 21
84.8651090000000039
 31
0.0
  0
LINE
  5
13E
100
AcDbEntity
100
AcDbLine
  8
0
 62
0
370
0
  6
CONTINUOUS
 10
26.1999999999999993
 20
84.8651090000000039
 30
0.0
 11
26.1999999999999993
 21
92.8651090000000039
 31
0.0
  0
LINE
  5
13F
100
AcDbEntity
100
AcDbLine
  8
0
 62
0
370
0
  6
CONTINUOUS
 10
26.1999999999999993
 20
92.8651090000000039
 30
0.0
 11
29.2000000000000028
 21
92.8651090000000039
 31
0.0
  0
LINE
  5
140
100
AcDbEntity
100
AcDbLine
  8
0
 62
0
370
0
  6
CONTINUOUS
 10
26.1999999999999993
 20
84.8651090000000039
 30
0.0
 11
29.2000000000000028
 21
84.8651090000000039
 31
0.0
  0
LINE
  5
141
100
AcDbEntity
100
AcDbLine
  8
0
 62
0
370
0
  6
CONTINUOUS
 10
29.2000000000000028
 20
92.8651090000000039
 30
0.0
 11
29.2000000000000028
 21
84.8651090000000039
 31
0.0
  0
LINE
  5
142
100
AcDbEntity
100
AcDbLine
  8
0
 62
0
370
0
  6
CONTINUOUS
 10
25.0
 20
82.8651090000000039
 30
0.0
 11
30.3999999999999986
 21
82.8651090000000039
 31
0.0
  0
LINE
  5
143
100
AcDbEntity
100
AcDbLine
  8
0
 62
0
370
0
  6
CONTINUOUS
 10
27.7000000000000028
 20
84.8651090000000039
 30
0.0
 11
27.7000000000000028
 21
85.3984420000000028
 31
0.0
  0
LINE
  5
144
100
AcDbEntity
100
AcDbLine
  8
0
 62
0
370
0
  6
CONTINUOUS
 10
27.7000000000000028
 20
84.8651090000000039
 30
0.0
 11
26.1999999999999993
 21
85.1317760000000021
 31
0.0
  0
LINE
  5
145
100
AcDbEntity
100
AcDbLine
  8
0
 62
0
370
0
  6
CONTINUOUS
 10
29.2000000000000028
 20
85.1317760000000021
 30
0.0
 11
26.1999999999999993
 21
85.6651090000000011
 31
0.0
  0
LINE
  5
146
100
AcDbEntity
100
AcDbLine
  8
0
 62
0
370
0
  6
CONTINUOUS
 10
29.2000000000000028
 20
85.6651090000000011
 30
0.0
 11
26.1999999999999993
 21
86.198442
 31
0.0
  0
LINE
  5
147
100
AcDbEntity
100
AcDbLine
  8
0
 62
0
370
0
  6
CONTINUOUS
 10
29.2000000000000028
 20
86.198442
 30
0.0
 11
26.1999999999999993
 21
86.7317759999999964
 31
0.0
  0
LINE
  5
148
100
AcDbEntity
100
AcDbLine
  8
0
 62
0
370
0
  6
CONTINUOUS
 10
29.2000000000000028
 20
86.7317759999999964
 30
0.0
 11
26.1999999999999993
 21
87.2651089999999954
 31
0.0
  0
LINE
  5
149
100
AcDbEntity
100
AcDbLine
  8
0
 62
0
370
0
  6
CONTINUOUS
 10
29.2000000000000028
 20
87.2651089999999954
 30
0.0
 11
26.1999999999999993
 21
87.7984419999999943
 31
0.0
  0
LINE
  5
14A
100
AcDbEntity
100
AcDbLine
  8
0
 62
0
370
0
  6
CONTINUOUS
 10
29.2000000000000028
 20
87.7984419999999943
 30
0.0
 11
26.1999999999999993
 21
88.331776000000005
 31
0.0
  0
LINE
  5
14B
100
AcDbEntity
100
AcDbLine
  8
0
 62
0
370
0
  6
CONTINUOUS
 10
29.2000000000000028
 20
88.331776000000005
 30
0.0
 11
26.1999999999999993
 21
88.8651090000000039
 31
0.0
  0
LINE
  5
14C
100
AcDbEntity
100
AcDbLine
  8
0
 62
0
370
0
  6
CONTINUOUS
 10
29.2000000000000028
 20
88.8651090000000039
 30
0.0
 11
26.1999999999999993
 21
89.3984420000000028
 31
0.0
  0
LINE
  5
14D
100
AcDbEntity
100
AcDbLine
  8
0
 62
0
370
0
  6
CONTINUOUS
 10
29.2000000000000028
 20
89.3984420000000028
 30
0.0
 11
26.1999999999999993
 21
89.9317759999999993
 31
0.0
  0
LINE
  5
14E
100
AcDbEntity
100
AcDbLine
  8
0
 62
0
370
0
  6
CONTINUOUS
 10
29.2000000000000028
 20
89.9317759999999993
 30
0.0
 11
26.1999999999999993
 21
90.4651089999999982
 31
0.0
  0
LINE
  5
14F
100
AcDbEntity
100
AcDbLine
  8
0
 62
0
370
0
  6
CONTINUOUS
 10
29.2000000000000028
 20
90.4651089999999982
 30
0.0
 11
26.1999999999999993
 21
90.9984419999999972
 31
0.0
  0
LINE
  5
150
100
AcDbEntity
100
AcDbLine
  8
0
 62
0
370
0
  6
CONTINUOUS
 10
29.2000000000000028
 20
90.9984419999999972
 30
0.0
 11
26.1999999999999993
 21
91.5317759999999936
 31
0.0
  0
LINE
  5
151
100
AcDbEntity
100
AcDbLine
  8
0
 62
0
370
0
  6
CONTINUOUS
 10
29.2000000000000028
 20
91.5317759999999936
 30
0.0
 11
26.1999999999999993
 21
92.0651090000000067
 31
0.0
  0
LINE
  5
152
100
AcDbEntity
100
AcDbLine
  8
0
 62
0
370
0
  6
CONTINUOUS
 10
29.2000000000000028
 20
92.0651090000000067
 30
0.0
 11
26.1999999999999993
 21
92.5984420000000057
 31
0.0
  0
LINE
  5
153
100
AcDbEntity
100
AcDbLine
  8
0
 62
0
370
0
  6
CONTINUOUS
 10
29.2000000000000028
 20
92.5984420000000057
 30
0.0
 11
27.7000000000000028
 21
92.8651090000000039
 31
0.0
  0
LINE
  5
154
100
AcDbEntity
100
AcDbLine
  8
0
 62
0
370
0
  6
CONTINUOUS
 10
72.9013000000000062
 20
82.8651090000000039
 30
0.0
 11
67.4013000000000062
 21
82.8651090000000039
 31
0.0
  0
LINE
  5
155
100
AcDbEntity
100
AcDbLine
  8
0
 62
0
370
0
  6
CONTINUOUS
 10
72.9013000000000062
 20
84.5651090000000067
 30
0.0
 11
67.4013000000000062
 21
84.5651090000000067
 31
0.0
  0
LINE
  5
156
100
AcDbEntity
100
AcDbLine
  8
0
 62
0
370
0
  6
CONTINUOUS
 10
72.9013000000000062
 20
82.8651090000000039
 30
0.0
 11
72.9013000000000062
 21
84.5651090000000067
 31
0.0
  0
LINE
  5
157
100
AcDbEntity
100
AcDbLine
  8
0
 62
0
370
0
  6
CONTINUOUS
 10
67.4013000000000062
 20
84.5651090000000067
 30
0.0
 11
67.4013000000000062
 21
82.8651090000000039
 31
0.0
  0
LINE
  5
158
100
AcDbEntity
100
AcDbLine
  8
0
 62
0
370
0
  6
CONTINUOUS
 10
71.4013000000000062
 20
92.5651090000000067
 30
0.0
 11
68.9013000000000062
 21
92.5651090000000067
 31
0.0
  0
LINE
  5
159
100
AcDbEntity
100
AcDbLine
  8
0
 62
0
370
0
  6
CONTINUOUS
 10
71.4013000000000062
 20
92.5651090000000067
 30
0.0
 11
71.4013000000000062
 21
84.5651090000000067
 31
0.0
  0
LINE
  5
15A
100
AcDbEntity
100
AcDbLine
  8
0
 62
0
370
0
  6
CONTINUOUS
 10
71.4013000000000062
 20
84.5651090000000067
 30
0.0
 11
68.9013000000000062
 21
84.5651090000000067
 31
0.0
  0
LINE
  5
15B
100
AcDbEntity
100
AcDbLine
  8
0
 62
0
370
0
  6
CONTINUOUS
 10
68.9013000000000062
 20
92.5651090000000067
 30
0.0
 11
68.9013000000000062
 21
84.5651090000000067
 31
0.0
  0
LINE
  5
15C
100
AcDbEntity
100
AcDbLine
  8
0
 62
0
370
0
  6
CONTINUOUS
 10
68.9013000000000062
 20
84.9412590000000023
 30
0.0
 11
71.4013000000000062
 21
85.9667369999999949
 31
0.0
  0
LINE
  5
15D
100
AcDbEntity
100
AcDbLine
  8
0
 62
0
370
0
  6
CONTINUOUS
 10
68.9013000000000062
 20
85.8301479999999941
 30
0.0
 11
71.4013000000000062
 21
86.8556260000000009
 31
0.0
  0
LINE
  5
15E
100
AcDbEntity
100
AcDbLine
  8
0
 62
0
370
0
  6
CONTINUOUS
 10
68.9013000000000062
 20
86.7190370000000001
 30
0.0
 11
71.4013000000000062
 21
87.7445150000000069
 31
0.0
  0
LINE
  5
15F
100
AcDbEntity
100
AcDbLine
  8
0
 62
0
370
0
  6
CONTINUOUS
 10
68.9013000000000062
 20
87.6079260000000062
 30
0.0
 11
71.4013000000000062
 21
88.6334039999999987
 31
0.0
  0
LINE
  5
160
100
AcDbEntity
100
AcDbLine
  8
0
 62
0
370
0
  6
CONTINUOUS
 10
68.9013000000000062
 20
88.496814999999998
 30
0.0
 11
71.4013000000000062
 21
89.5222930000000048
 31
0.0
  0
LINE
  5
161
100
AcDbEntity
100
AcDbLine
  8
0
 62
0
370
0
  6
CONTINUOUS
 10
68.9013000000000062
 20
89.385704000000004
 30
0.0
 11
71.4013000000000062
 21
90.4111819999999966
 31
0.0
  0
LINE
  5
162
100
AcDbEntity
100
AcDbLine
  8
0
 62
0
370
0
  6
CONTINUOUS
 10
68.9013000000000062
 20
90.2745929999999959
 30
0.0
 11
71.4013000000000062
 21
91.3000710000000026
 31
0.0
  0
LINE
  5
163
100
AcDbEntity
100
AcDbLine
  8
0
 62
0
370
0
  6
CONTINUOUS
 10
68.9013000000000062
 20
91.1634820000000019
 30
0.0
 11
71.4013000000000062
 21
92.1889599999999945
 31
0.0
  0
LINE
  5
164
100
AcDbEntity
100
AcDbLine
  8
0
 62
0
370
0
  6
CONTINUOUS
 10
70.1513000000000062
 20
84.5651090000000067
 30
0.0
 11
71.4013000000000062
 21
85.0778490000000005
 31
0.0
  0
LINE
  5
165
100
AcDbEntity
100
AcDbLine
  8
0
 62
0
370
0
  6
CONTINUOUS
 10
68.9013000000000062
 20
92.0523699999999963
 30
0.0
 11
70.1513000000000062
 21
92.5651090000000067
 31
0.0
  0
MTEXT
  5
166
100
AcDbEntity
100
AcDbMText
  8
0
 62
0
370
0
  6
CONTINUOUS
 10
22.922619000000001
 20
74.9457050000000038
 30
0.0
 40
3.2000000000000002
 41
100.0
 71
7
 72
2
  1
Piezas
  7
Normal
 50
0.0
 73
1
 44
1.0
  0
MTEXT
  5
167
100
AcDbEntity
100
AcDbMText
  8
0
 62
0
370
0
  6
CONTINUOUS
 10
66.3391270000000048
 20
75.5248899999999992
 30
0.0
 40
3.2000000000000002
 41
100.0
 71
7
 72
2
  1
Eje\~del\~servo
  7
Normal
 50
0.0
 73
1
 44
1.0
  0
MTEXT
  5
168
100
AcDbEntity
100
AcDbMText
  8
0
 62
0
370
0
  6
CONTINUOUS
 10
42.7163480000000035
 20
126.5561659999999904
 30
0.0
 40
3.2000000000000002
 41
100.0
 71
7
 72
2
  1
TORNILLOS
  7
Normal
 50
0.0
 73
1
 44
1.0
  0
CIRCLE
  5
169
100
AcDbEntity
100
AcDbCircle
  8
0
 62
0
370
0
  6
CONTINUOUS
 10
134.3372589999999889
 20
238.8377629999999954
 30
0.0
 40
1.5
  0
CIRCLE
  5
16A
100
AcDbEntity
100
AcDbCircle
  8
0
 62
0
370
0
  6
CONTINUOUS
 10
141.1254849999999976
 20
245.6259880000000067
 30
0.0
 40
1.5
  0
CIRCLE
  5
16B
100
AcDbEntity
100
AcDbCircle
  8
0
 62
0
370
0
  6
CONTINUOUS
 10
175.4201630000000023
 20
211.331310000000002
 30
0.0
 40
1.5
  0
CIRCLE
  5
16C
100
AcDbEntity
100
AcDbCircle
  8
0
 62
0
370
0
  6
CONTINUOUS
 10
168.631937999999991
 20
204.5430839999999932
 30
0.0
 40
1.5
  0
LINE
  5
16D
100
AcDbEntity
100
AcDbLine
  8
0
 62
0
370
0
  6
CONTINUOUS
 10
128.7941749999999956
 20
251.0
 30
0.0
 11
128.7941749999999956
 21
199.0
 31
0.0
  0
LINE
  5
16E
100
AcDbEntity
100
AcDbLine
  8
0
 62
0
370
0
  6
CONTINUOUS
 10
128.7941749999999956
 20
199.0
 30
0.0
 11
180.7941749999999956
 21
199.0
 31
0.0
  0
LINE
  5
16F
100
AcDbEntity
100
AcDbLine
  8
0
 62
0
370
0
  6
CONTINUOUS
 10
128.7941749999999956
 20
251.0
 30
0.0
 11
141.6911699999999996
 21
251.0
 31
0.0
  0
LINE
  5
170
100
AcDbEntity
100
AcDbLine
  8
0
 62
0
370
0
  6
CONTINUOUS
 10
180.7941749999999956
 20
211.896995000000004
 30
0.0
 11
180.7941749999999956
 21
199.0
 31
0.0
  0
LINE
  5
171
100
AcDbEntity
100
AcDbLine
  8
0
 62
0
370
0
  6
CONTINUOUS
 10
159.7223930000000109
 20
234.3829900000000066
 30
0.0
 11
145.5802569999999889
 21
220.240854000000013
 31
0.0
  0
LINE
  5
172
100
AcDbEntity
100
AcDbLine
  8
0
 62
0
370
0
  6
CONTINUOUS
 10
151.9442180000000064
 20
242.1611650000000111
 30
0.0
 11
137.8020830000000103
 21
228.0190289999999891
 31
0.0
  0
LINE
  5
173
100
AcDbEntity
100
AcDbLine
  8
0
 62
0
370
0
  6
CONTINUOUS
 10
149.7906189999999924
 20
244.3147639999999967
 30
0.0
 11
135.6484829999999988
 21
230.1726280000000031
 31
0.0
  0
MTEXT
  5
174
100
AcDbEntity
100
AcDbMText
  8
0
 62
0
370
0
  6
CONTINUOUS
 10
153.5956759999999974
 20
234.8439769999999953
 30
0.0
 40
4.0
 41
100.0
 71
7
 72
2
  1
Futaba
  7
Normal
 50
225.0
 73
1
 44
1.0
  0
MTEXT
  5
175
100
AcDbEntity
100
AcDbMText
  8
0
 62
0
370
0
  6
CONTINUOUS
 10
149.6358779999999911
 20
238.8037750000000017
 30
0.0
 40
4.0
 41
100.0
 71
7
 72
2
  1
S3003
  7
Normal
 50
225.0
 73
1
 44
1.0
  0
LINE
  5
176
100
AcDbEntity
100
AcDbLine
  8
0
 62
0
370
0
  6
CONTINUOUS
 10
137.4485290000000077
 20
241.4540580000000034
 30
0.0
 11
138.5091889999999921
 21
242.5147179999999878
 31
0.0
  0
LINE
  5
177
100
AcDbEntity
100
AcDbLine
  8
0
 62
0
370
0
  6
CONTINUOUS
 10
138.5091889999999921
 20
242.5147179999999878
 30
0.0
 11
141.1608400000000074
 21
239.8630670000000009
 31
0.0
  0
LINE
  5
178
100
AcDbEntity
100
AcDbLine
  8
0
 62
0
370
0
  6
CONTINUOUS
 10
137.4485290000000077
 20
241.4540580000000034
 30
0.0
 11
140.1001799999999946
 21
238.8024069999999881
 31
0.0
  0
LINE
  5
179
100
AcDbEntity
100
AcDbLine
  8
0
 62
0
370
0
  6
CONTINUOUS
 10
172.3088930000000119
 20
208.7150139999999965
 30
0.0
 11
171.248232999999999
 21
207.6543540000000121
 31
0.0
  0
CIRCLE
  5
17A
100
AcDbEntity
100
AcDbCircle
  8
0
 62
0
370
0
  6
CONTINUOUS
 10
141.1254840000000002
 20
245.6259880000000067
 30
0.0
 40
2.2000000000000002
  0
CIRCLE
  5
17B
100
AcDbEntity
100
AcDbCircle
  8
0
 62
0
370
0
  6
CONTINUOUS
 10
134.3372589999999889
 20
238.8377629999999954
 30
0.0
 40
2.2000000000000002
  0
ARC
  5
17C
100
AcDbEntity
  8
0
 62
0
370
0
  6
CONTINUOUS
100
AcDbCircle
 10
147.7015769999999861
 20
244.9895919999999876
 30
0.0
 40
1.0
100
AcDbArc
 50
45.0
 51
135.0
  0
ARC
  5
17D
100
AcDbEntity
  8
0
 62
0
370
0
  6
CONTINUOUS
100
AcDbCircle
 10
134.9736550000000079
 20
232.2616700000000094
 30
0.0
 40
1.0
100
AcDbArc
 50
135.0
 51
225.0
  0
ARC
  5
17E
100
AcDbEntity
  8
0
 62
0
370
0
  6
CONTINUOUS
100
AcDbCircle
 10
141.6911699999999996
 20
249.585786000000013
 30
0.0
 40
1.0
100
AcDbArc
 50
45.0
 51
135.0
  0
ARC
  5
17F
100
AcDbEntity
  8
0
 62
0
370
0
  6
CONTINUOUS
100
AcDbCircle
 10
130.3774610000000109
 20
238.2720769999999959
 30
0.0
 40
1.0
100
AcDbArc
 50
135.0
 51
225.0
  0
CIRCLE
  5
180
100
AcDbEntity
100
AcDbCircle
  8
0
 62
0
370
0
  6
CONTINUOUS
 10
175.4201630000000023
 20
211.3313090000000045
 30
0.0
 40
2.2000000000000002
  0
CIRCLE
  5
181
100
AcDbEntity
100
AcDbCircle
  8
0
 62
0
370
0
  6
CONTINUOUS
 10
168.631937999999991
 20
204.5430839999999932
 30
0.0
 40
2.2000000000000002
  0
ARC
  5
182
100
AcDbEntity
  8
0
 62
0
370
0
  6
CONTINUOUS
100
AcDbCircle
 10
179.3799610000000087
 20
211.8969940000000065
 30
0.0
 40
1.0
100
AcDbArc
 50
315.0
 51
45.0
  0
ARC
  5
183
100
AcDbEntity
  8
0
 62
0
370
0
  6
CONTINUOUS
100
AcDbCircle
 10
168.066252999999989
 20
200.5832859999999869
 30
0.0
 40
1.0
100
AcDbArc
 50
225.0
 51
315.0
  0
ARC
  5
184
100
AcDbEntity
  8
0
 62
0
370
0
  6
CONTINUOUS
100
AcDbCircle
 10
174.7837670000000116
 20
217.9074019999999905
 30
0.0
 40
1.0
100
AcDbArc
 50
315.0
 51
45.0
  0
CIRCLE
  5
185
100
AcDbEntity
100
AcDbCircle
  8
0
 62
0
370
0
  6
CONTINUOUS
 10
162.055845000000005
 20
217.9074019999999905
 30
0.0
 40
10.5
  0
CIRCLE
  5
186
100
AcDbEntity
100
AcDbCircle
  8
0
 62
0
370
0
  6
CONTINUOUS
 10
162.055845000000005
 20
217.9074019999999905
 30
0.0
 40
1.3999999999999999
  0
CIRCLE
  5
187
100
AcDbEntity
100
AcDbCircle
  8
0
 62
0
370
0
  6
CONTINUOUS
 10
162.055845000000005
 20
217.9074019999999905
 30
0.0
 40
3.0
  0
CIRCLE
  5
188
100
AcDbEntity
100
AcDbCircle
  8
0
 62
0
370
0
  6
CONTINUOUS
 10
162.055845000000005
 20
217.9074019999999905
 30
0.0
 40
4.5
  0
LINE
  5
189
100
AcDbEntity
100
AcDbLine
  8
0
 62
0
370
0
  6
CONTINUOUS
 10
165.2378260000000125
 20
221.0893820000000005
 30
0.0
 11
164.1771650000000022
 21
220.0287219999999877
 31
0.0
  0
LINE
  5
18A
100
AcDbEntity
100
AcDbLine
  8
0
 62
0
370
0
  6
CONTINUOUS
 10
164.1771650000000022
 20
215.7860819999999933
 30
0.0
 11
165.2378260000000125
 21
214.7254210000000114
 31
0.0
  0
LINE
  5
18B
100
AcDbEntity
100
AcDbLine
  8
0
 62
0
370
0
  6
CONTINUOUS
 10
166.555845000000005
 20
217.9074019999999905
 30
0.0
 11
165.055845000000005
 21
217.9074019999999905
 31
0.0
  0
LINE
  5
18C
100
AcDbEntity
100
AcDbLine
  8
0
 62
0
370
0
  6
CONTINUOUS
 10
162.055845000000005
 20
220.9074019999999905
 30
0.0
 11
162.055845000000005
 21
222.4074019999999905
 31
0.0
  0
LINE
  5
18D
100
AcDbEntity
100
AcDbLine
  8
0
 62
0
370
0
  6
CONTINUOUS
 10
158.873864999999995
 20
221.0893820000000005
 30
0.0
 11
159.9345250000000078
 21
220.0287219999999877
 31
0.0
  0
LINE
  5
18E
100
AcDbEntity
100
AcDbLine
  8
0
 62
0
370
0
  6
CONTINUOUS
 10
162.055845000000005
 20
213.4074019999999905
 30
0.0
 11
162.055845000000005
 21
214.9074019999999905
 31
0.0
  0
LINE
  5
18F
100
AcDbEntity
100
AcDbLine
  8
0
 62
0
370
0
  6
CONTINUOUS
 10
159.055845000000005
 20
217.9074019999999905
 30
0.0
 11
157.555845000000005
 21
217.9074019999999905
 31
0.0
  0
LINE
  5
190
100
AcDbEntity
100
AcDbLine
  8
0
 62
0
370
0
  6
CONTINUOUS
 10
159.9345250000000078
 20
215.7860819999999933
 30
0.0
 11
158.873864999999995
 21
214.7254210000000114
 31
0.0
  0
LINE
  5
191
100
AcDbEntity
100
AcDbLine
  8
0
 62
0
370
0
  6
CONTINUOUS
 10
174.7837670000000116
 20
219.3216150000000084
 30
0.0
 11
172.5215450000000033
 21
217.0593939999999975
 31
0.0
  0
LINE
  5
192
100
AcDbEntity
100
AcDbLine
  8
0
 62
0
370
0
  6
CONTINUOUS
 10
162.903852999999998
 20
207.4417019999999923
 30
0.0
 11
160.6416319999999871
 21
205.1794800000000123
 31
0.0
  0
LINE
  5
193
100
AcDbEntity
100
AcDbLine
  8
0
 62
0
370
0
  6
CONTINUOUS
 10
169.9918319999999881
 20
211.0320749999999919
 30
0.0
 11
172.3088930000000119
 21
208.7150139999999965
 31
0.0
  0
LINE
  5
194
100
AcDbEntity
100
AcDbLine
  8
0
 62
0
370
0
  6
CONTINUOUS
 10
168.9311720000000037
 20
209.9714150000000075
 30
0.0
 11
171.248232999999999
 21
207.6543540000000121
 31
0.0
  0
LINE
  5
195
100
AcDbEntity
100
AcDbLine
  8
0
 62
0
370
0
  6
CONTINUOUS
 10
142.3982770000000073
 20
250.2928929999999923
 30
0.0
 11
141.6911699999999996
 21
251.0
 31
0.0
  0
LINE
  5
196
100
AcDbEntity
100
AcDbLine
  8
0
 62
0
370
0
  6
CONTINUOUS
 10
180.0870690000000138
 20
212.6041020000000117
 30
0.0
 11
180.7941749999999956
 21
211.896995000000004
 31
0.0
  0
LINE
  5
197
100
AcDbEntity
100
AcDbLine
  8
0
 62
0
370
0
  6
CONTINUOUS
 10
133.55944199999999
 20
184.0
 30
0.0
 11
176.1979809999999986
 21
184.0
 31
0.0
  0
LINE
  5
198
100
AcDbEntity
100
AcDbLine
  8
0
 62
0
370
0
  6
CONTINUOUS
 10
133.55944199999999
 20
182.0
 30
0.0
 11
176.1979809999999986
 21
182.0
 31
0.0
  0
LINE
  5
199
100
AcDbEntity
100
AcDbLine
  8
0
 62
0
370
0
  6
CONTINUOUS
 10
133.55944199999999
 20
155.0
 30
0.0
 11
133.55944199999999
 21
151.0
 31
0.0
  0
LINE
  5
19A
100
AcDbEntity
100
AcDbLine
  8
0
 62
0
370
0
  6
CONTINUOUS
 10
176.1979809999999986
 20
155.0
 30
0.0
 11
176.1979809999999986
 21
151.0
 31
0.0
  0
LINE
  5
19B
100
AcDbEntity
100
AcDbLine
  8
0
 62
0
370
0
  6
CONTINUOUS
 10
128.7941749999999956
 20
157.5999999999999943
 30
0.0
 11
147.701578000000012
 21
157.5999999999999943
 31
0.0
  0
LINE
  5
19C
100
AcDbEntity
100
AcDbLine
  8
0
 62
0
370
0
  6
CONTINUOUS
 10
176.1979809999999986
 20
157.5999999999999943
 30
0.0
 11
180.7941749999999956
 21
157.5999999999999943
 31
0.0
  0
LINE
  5
19D
100
AcDbEntity
100
AcDbLine
  8
0
 62
0
370
0
  6
CONTINUOUS
 10
180.7941749999999956
 20
157.5999999999999943
 30
0.0
 11
180.7941749999999956
 21
155.0
 31
0.0
  0
LINE
  5
19E
100
AcDbEntity
100
AcDbLine
  8
0
 62
0
370
0
  6
CONTINUOUS
 10
176.1979809999999986
 20
184.0
 30
0.0
 11
176.1979809999999986
 21
157.5999999999999943
 31
0.0
  0
LINE
  5
19F
100
AcDbEntity
100
AcDbLine
  8
0
 62
0
370
0
  6
CONTINUOUS
 10
147.701578000000012
 20
184.0
 30
0.0
 11
147.701578000000012
 21
157.5999999999999943
 31
0.0
  0
LINE
  5
1A0
100
AcDbEntity
100
AcDbLine
  8
0
 62
0
370
0
  6
CONTINUOUS
 10
147.701578000000012
 20
155.0
 30
0.0
 11
147.701578000000012
 21
151.0
 31
0.0
  0
LINE
  5
1A1
100
AcDbEntity
100
AcDbLine
  8
0
 62
0
370
0
  6
CONTINUOUS
 10
141.1608400000000074
 20
152.8202190000000087
 30
0.0
 11
138.5091889999999921
 21
155.0
 31
0.0
  0
LINE
  5
1A2
100
AcDbEntity
100
AcDbLine
  8
0
 62
0
370
0
  6
CONTINUOUS
 10
140.1001799999999946
 20
152.8202190000000087
 30
0.0
 11
137.4485290000000077
 21
155.0
 31
0.0
  0
LINE
  5
1A3
100
AcDbEntity
100
AcDbLine
  8
0
 62
0
370
0
  6
CONTINUOUS
 10
141.1608400000000074
 20
155.0
 30
0.0
 11
141.1608400000000074
 21
152.8202190000000087
 31
0.0
  0
LINE
  5
1A4
100
AcDbEntity
100
AcDbLine
  8
0
 62
0
370
0
  6
CONTINUOUS
 10
140.1001799999999946
 20
152.8202190000000087
 30
0.0
 11
141.1608400000000074
 21
152.8202190000000087
 31
0.0
  0
LINE
  5
1A5
100
AcDbEntity
100
AcDbLine
  8
0
 62
0
370
0
  6
CONTINUOUS
 10
128.7941749999999956
 20
157.5999999999999943
 30
0.0
 11
128.7941749999999956
 21
155.0
 31
0.0
  0
LINE
  5
1A6
100
AcDbEntity
100
AcDbLine
  8
0
 62
0
370
0
  6
CONTINUOUS
 10
128.7941749999999956
 20
155.0
 30
0.0
 11
147.701578000000012
 21
155.0
 31
0.0
  0
LINE
  5
1A7
100
AcDbEntity
100
AcDbLine
  8
0
 62
0
370
0
  6
CONTINUOUS
 10
176.1979809999999986
 20
155.0
 30
0.0
 11
180.7941749999999956
 21
155.0
 31
0.0
  0
LINE
  5
1A8
100
AcDbEntity
100
AcDbLine
  8
0
 62
0
370
0
  6
CONTINUOUS
 10
133.55944199999999
 20
151.0
 30
0.0
 11
135.6484839999999963
 21
150.4786440000000027
 31
0.0
  0
LINE
  5
1A9
100
AcDbEntity
100
AcDbLine
  8
0
 62
0
370
0
  6
CONTINUOUS
 10
147.701578000000012
 20
151.0
 30
0.0
 11
149.7906189999999924
 21
150.4786440000000027
 31
0.0
  0
LINE
  5
1AA
100
AcDbEntity
100
AcDbLine
  8
0
 62
0
370
0
  6
CONTINUOUS
 10
135.6484839999999963
 20
150.4786440000000027
 30
0.0
 11
149.7906189999999924
 21
150.4786440000000027
 31
0.0
  0
LINE
  5
1AB
100
AcDbEntity
100
AcDbLine
  8
0
 62
0
370
0
  6
CONTINUOUS
 10
135.6484839999999963
 20
150.4786440000000027
 30
0.0
 11
137.8020830000000103
 21
148.0
 31
0.0
  0
LINE
  5
1AC
100
AcDbEntity
100
AcDbLine
  8
0
 62
0
370
0
  6
CONTINUOUS
 10
149.7906189999999924
 20
150.4786440000000027
 30
0.0
 11
151.9442180000000064
 21
148.0
 31
0.0
  0
LINE
  5
1AD
100
AcDbEntity
100
AcDbLine
  8
0
 62
0
370
0
  6
CONTINUOUS
 10
149.7906189999999924
 20
150.4786440000000027
 30
0.0
 11
159.7223930000000109
 21
148.0
 31
0.0
  0
LINE
  5
1AE
100
AcDbEntity
100
AcDbLine
  8
0
 62
0
370
0
  6
CONTINUOUS
 10
174.7837680000000091
 20
148.0
 30
0.0
 11
176.1979809999999986
 21
151.0
 31
0.0
  0
LINE
  5
1AF
100
AcDbEntity
100
AcDbLine
  8
0
 62
0
370
0
  6
CONTINUOUS
 10
133.55944199999999
 20
151.0
 30
0.0
 11
176.1979809999999986
 21
151.0
 31
0.0
  0
LINE
  5
1B0
100
AcDbEntity
100
AcDbLine
  8
0
 62
0
370
0
  6
CONTINUOUS
 10
137.8020830000000103
 20
148.0
 30
0.0
 11
174.7837680000000091
 21
148.0
 31
0.0
  0
LINE
  5
1B1
100
AcDbEntity
100
AcDbLine
  8
0
 62
0
370
0
  6
CONTINUOUS
 10
154.555845000000005
 20
148.0
 30
0.0
 11
169.555845000000005
 21
148.0
 31
0.0
  0
LINE
  5
1B2
100
AcDbEntity
100
AcDbLine
  8
0
 62
0
370
0
  6
CONTINUOUS
 10
157.055845000000005
 20
146.0
 30
0.0
 11
154.555845000000005
 21
148.0
 31
0.0
  0
LINE
  5
1B3
100
AcDbEntity
100
AcDbLine
  8
0
 62
0
370
0
  6
CONTINUOUS
 10
157.055845000000005
 20
146.0
 30
0.0
 11
167.055845000000005
 21
146.0
 31
0.0
  0
LINE
  5
1B4
100
AcDbEntity
100
AcDbLine
  8
0
 62
0
370
0
  6
CONTINUOUS
 10
167.055845000000005
 20
146.0
 30
0.0
 11
169.555845000000005
 21
148.0
 31
0.0
  0
LINE
  5
1B5
100
AcDbEntity
100
AcDbLine
  8
0
 62
0
370
0
  6
CONTINUOUS
 10
159.055845000000005
 20
145.0
 30
0.0
 11
165.055845000000005
 21
145.0
 31
0.0
  0
LINE
  5
1B6
100
AcDbEntity
100
AcDbLine
  8
0
 62
0
370
0
  6
CONTINUOUS
 10
165.055845000000005
 20
146.0
 30
0.0
 11
165.055845000000005
 21
145.0
 31
0.0
  0
LINE
  5
1B7
100
AcDbEntity
100
AcDbLine
  8
0
 62
0
370
0
  6
CONTINUOUS
 10
159.055845000000005
 20
146.0
 30
0.0
 11
159.055845000000005
 21
145.0
 31
0.0
  0
LINE
  5
1B8
100
AcDbEntity
100
AcDbLine
  8
0
 62
0
370
0
  6
CONTINUOUS
 10
158.055845000000005
 20
145.0
 30
0.0
 11
158.055845000000005
 21
142.0
 31
0.0
  0
LINE
  5
1B9
100
AcDbEntity
100
AcDbLine
  8
0
 62
0
370
0
  6
CONTINUOUS
 10
166.055845000000005
 20
145.0
 30
0.0
 11
166.055845000000005
 21
142.0
 31
0.0
  0
LINE
  5
1BA
100
AcDbEntity
100
AcDbLine
  8
0
 62
0
370
0
  6
CONTINUOUS
 10
151.555845000000005
 20
142.0
 30
0.0
 11
172.555845000000005
 21
142.0
 31
0.0
  0
LINE
  5
1BB
100
AcDbEntity
100
AcDbLine
  8
0
 62
0
370
0
  6
CONTINUOUS
 10
151.555845000000005
 20
140.0
 30
0.0
 11
172.555845000000005
 21
140.0
 31
0.0
  0
LINE
  5
1BC
100
AcDbEntity
100
AcDbLine
  8
0
 62
0
370
0
  6
CONTINUOUS
 10
159.055845000000005
 20
139.0
 30
0.0
 11
157.555845000000005
 21
140.0
 31
0.0
  0
LINE
  5
1BD
100
AcDbEntity
100
AcDbLine
  8
0
 62
0
370
0
  6
CONTINUOUS
 10
165.055845000000005
 20
139.0
 30
0.0
 11
166.555845000000005
 21
140.0
 31
0.0
  0
LINE
  5
1BE
100
AcDbEntity
100
AcDbLine
  8
0
 62
0
370
0
  6
CONTINUOUS
 10
159.055845000000005
 20
139.0
 30
0.0
 11
165.055845000000005
 21
139.0
 31
0.0
  0
LINE
  5
1BF
100
AcDbEntity
100
AcDbLine
  8
0
 62
0
370
0
  6
CONTINUOUS
 10
151.555845000000005
 20
142.0
 30
0.0
 11
151.555845000000005
 21
140.0
 31
0.0
  0
LINE
  5
1C0
100
AcDbEntity
100
AcDbLine
  8
0
 62
0
370
0
  6
CONTINUOUS
 10
172.555845000000005
 20
142.0
 30
0.0
 11
172.555845000000005
 21
140.0
 31
0.0
  0
LINE
  5
1C1
100
AcDbEntity
100
AcDbLine
  8
0
 62
0
370
0
  6
CONTINUOUS
 10
158.055845000000005
 20
145.0
 30
0.0
 11
166.055845000000005
 21
145.0
 31
0.0
  0
ARC
  5
1C2
100
AcDbEntity
  8
0
 62
0
370
0
  6
CONTINUOUS
100
AcDbCircle
 10
162.055845000000005
 20
205.1794800000000123
 30
0.0
 40
1.0
100
AcDbArc
 50
225.0
 51
315.0
  0
LINE
  5
1C3
100
AcDbEntity
100
AcDbLine
  8
0
 62
0
370
0
  6
CONTINUOUS
 10
171.3907590000000027
 20
222.7146229999999889
 30
0.0
 11
175.4908739999999909
 21
218.6145089999999982
 31
0.0
  0
LINE
  5
1C4
100
AcDbEntity
100
AcDbLine
  8
0
 62
0
370
0
  6
CONTINUOUS
 10
175.4908739999999909
 20
217.2002950000000112
 30
0.0
 11
171.3907590000000027
 21
213.1001799999999946
 31
0.0
  0
LINE
  5
1C5
100
AcDbEntity
100
AcDbLine
  8
0
 62
0
370
0
  6
CONTINUOUS
 10
162.7629520000000127
 20
204.4723730000000046
 30
0.0
 11
167.3591460000000097
 21
199.8761790000000076
 31
0.0
  0
LINE
  5
1C6
100
AcDbEntity
100
AcDbLine
  8
0
 62
0
370
0
  6
CONTINUOUS
 10
180.0870679999999879
 20
211.1898869999999988
 30
0.0
 11
168.7733599999999967
 21
199.8761790000000076
 31
0.0
  0
LINE
  5
1C7
100
AcDbEntity
100
AcDbLine
  8
0
 62
0
370
0
  6
CONTINUOUS
 10
175.4908739999999909
 20
217.2002950000000112
 30
0.0
 11
180.0870679999999879
 21
212.6041010000000142
 31
0.0
  0
LINE
  5
1C8
100
AcDbEntity
100
AcDbLine
  8
0
 62
0
370
0
  6
CONTINUOUS
 10
134.2665489999999977
 20
232.9687759999999912
 30
0.0
 11
129.6703550000000007
 21
237.5649699999999882
 31
0.0
  0
LINE
  5
1C9
100
AcDbEntity
100
AcDbLine
  8
0
 62
0
370
0
  6
CONTINUOUS
 10
142.3982770000000073
 20
250.2928919999999948
 30
0.0
 11
146.9944710000000043
 21
245.6966979999999978
 31
0.0
  0
LINE
  5
1CA
100
AcDbEntity
100
AcDbLine
  8
0
 62
0
370
0
  6
CONTINUOUS
 10
140.9840639999999894
 20
250.2928919999999948
 30
0.0
 11
129.6703550000000007
 21
238.9791840000000036
 31
0.0
  0
LINE
  5
1CB
100
AcDbEntity
100
AcDbLine
  8
0
 62
0
370
0
  6
CONTINUOUS
 10
152.7209320000000048
 20
213.1001799999999946
 30
0.0
 11
133.55944199999999
 21
232.2616700000000094
 31
0.0
  0
LINE
  5
1CC
100
AcDbEntity
100
AcDbLine
  8
0
 62
0
370
0
  6
CONTINUOUS
 10
134.2665489999999977
 20
232.9687759999999912
 30
0.0
 11
133.55944199999999
 21
232.2616700000000094
 31
0.0
  0
LINE
  5
1CD
100
AcDbEntity
100
AcDbLine
  8
0
 62
0
370
0
  6
CONTINUOUS
 10
148.4086839999999938
 20
245.6966989999999953
 30
0.0
 11
166.8630670000000009
 21
227.2423159999999882
 31
0.0
  0
LINE
  5
1CE
100
AcDbEntity
100
AcDbLine
  8
0
 62
0
370
0
  6
CONTINUOUS
 10
146.9944710000000043
 20
245.6966979999999978
 30
0.0
 11
134.2665489999999977
 21
232.9687759999999912
 31
0.0
  0
LINE
  5
1CF
100
AcDbEntity
100
AcDbLine
  8
0
 62
0
370
0
  6
CONTINUOUS
 10
162.055845000000005
 20
203.7652659999999969
 30
0.0
 11
157.2486240000000066
 21
208.5724879999999928
 31
0.0
  0
LINE
  5
1D0
100
AcDbEntity
100
AcDbLine
  8
0
 62
0
370
0
  6
CONTINUOUS
 10
166.8630670000000009
 20
208.5724879999999928
 30
0.0
 11
162.055845000000005
 21
203.7652659999999969
 31
0.0
  0
LINE
  5
1D1
100
AcDbEntity
100
AcDbLine
  8
0
 62
0
370
0
  6
CONTINUOUS
 10
133.55944199999999
 20
184.0
 30
0.0
 11
133.55944199999999
 21
160.5999999999999943
 31
0.0
  0
LINE
  5
1D2
100
AcDbEntity
100
AcDbLine
  8
0
 62
0
370
0
  6
CONTINUOUS
 10
141.6911699999999996
 20
160.5999999999999943
 30
0.0
 11
141.6911699999999996
 21
155.0
 31
0.0
  0
LINE
  5
1D3
100
AcDbEntity
100
AcDbLine
  8
0
 62
0
370
0
  6
CONTINUOUS
 10
128.7941749999999956
 20
160.5999999999999943
 30
0.0
 11
147.701578000000012
 21
160.5999999999999943
 31
0.0
  0
LINE
  5
1D4
100
AcDbEntity
100
AcDbLine
  8
0
 62
0
370
0
  6
CONTINUOUS
 10
176.1979809999999986
 20
160.5999999999999943
 30
0.0
 11
180.7941749999999956
 21
160.5999999999999943
 31
0.0
  0
LINE
  5
1D5
100
AcDbEntity
100
AcDbLine
  8
0
 62
0
370
0
  6
CONTINUOUS
 10
128.7941749999999956
 20
160.5999999999999943
 30
0.0
 11
128.7941749999999956
 21
157.5999999999999943
 31
0.0
  0
LINE
  5
1D6
100
AcDbEntity
100
AcDbLine
  8
0
 62
0
370
0
  6
CONTINUOUS
 10
180.7941749999999956
 20
157.5999999999999943
 30
0.0
 11
180.7941749999999956
 21
160.5999999999999943
 31
0.0
  0
LINE
  5
1D7
100
AcDbEntity
100
AcDbLine
  8
0
 62
0
370
0
  6
CONTINUOUS
 10
164.805845000000005
 20
114.0
 30
0.0
 11
159.305845000000005
 21
114.0
 31
0.0
  0
LINE
  5
1D8
100
AcDbEntity
100
AcDbLine
  8
0
 62
0
370
0
  6
CONTINUOUS
 10
164.805845000000005
 20
115.7000000000000028
 30
0.0
 11
159.305845000000005
 21
115.7000000000000028
 31
0.0
  0
LINE
  5
1D9
100
AcDbEntity
100
AcDbLine
  8
0
 62
0
370
0
  6
CONTINUOUS
 10
164.805845000000005
 20
114.0
 30
0.0
 11
164.805845000000005
 21
115.7000000000000028
 31
0.0
  0
LINE
  5
1DA
100
AcDbEntity
100
AcDbLine
  8
0
 62
0
370
0
  6
CONTINUOUS
 10
159.305845000000005
 20
115.7000000000000028
 30
0.0
 11
159.305845000000005
 21
114.0
 31
0.0
  0
LINE
  5
1DB
100
AcDbEntity
100
AcDbLine
  8
0
 62
0
370
0
  6
CONTINUOUS
 10
163.305845000000005
 20
123.6999999999999886
 30
0.0
 11
160.805845000000005
 21
123.6999999999999886
 31
0.0
  0
LINE
  5
1DC
100
AcDbEntity
100
AcDbLine
  8
0
 62
0
370
0
  6
CONTINUOUS
 10
163.305845000000005
 20
123.6999999999999886
 30
0.0
 11
163.305845000000005
 21
115.7000000000000028
 31
0.0
  0
LINE
  5
1DD
100
AcDbEntity
100
AcDbLine
  8
0
 62
0
370
0
  6
CONTINUOUS
 10
163.305845000000005
 20
115.7000000000000028
 30
0.0
 11
160.805845000000005
 21
115.7000000000000028
 31
0.0
  0
LINE
  5
1DE
100
AcDbEntity
100
AcDbLine
  8
0
 62
0
370
0
  6
CONTINUOUS
 10
160.805845000000005
 20
123.6999999999999886
 30
0.0
 11
160.805845000000005
 21
115.7000000000000028
 31
0.0
  0
LINE
  5
1DF
100
AcDbEntity
100
AcDbLine
  8
0
 62
0
370
0
  6
CONTINUOUS
 10
160.805845000000005
 20
116.0761499999999984
 30
0.0
 11
163.305845000000005
 21
117.1016280000000052
 31
0.0
  0
LINE
  5
1E0
100
AcDbEntity
100
AcDbLine
  8
0
 62
0
370
0
  6
CONTINUOUS
 10
160.805845000000005
 20
116.9650390000000044
 30
0.0
 11
163.305845000000005
 21
117.990516999999997
 31
0.0
  0
LINE
  5
1E1
100
AcDbEntity
100
AcDbLine
  8
0
 62
0
370
0
  6
CONTINUOUS
 10
160.805845000000005
 20
117.8539279999999962
 30
0.0
 11
163.305845000000005
 21
118.879406000000003
 31
0.0
  0
LINE
  5
1E2
100
AcDbEntity
100
AcDbLine
  8
0
 62
0
370
0
  6
CONTINUOUS
 10
160.805845000000005
 20
118.7428170000000023
 30
0.0
 11
163.305845000000005
 21
119.7682949999999948
 31
0.0
  0
LINE
  5
1E3
100
AcDbEntity
100
AcDbLine
  8
0
 62
0
370
0
  6
CONTINUOUS
 10
160.805845000000005
 20
119.6317059999999941
 30
0.0
 11
163.305845000000005
 21
120.6571840000000009
 31
0.0
  0
LINE
  5
1E4
100
AcDbEntity
100
AcDbLine
  8
0
 62
0
370
0
  6
CONTINUOUS
 10
160.805845000000005
 20
120.5205950000000001
 30
0.0
 11
163.305845000000005
 21
121.5460730000000069
 31
0.0
  0
LINE
  5
1E5
100
AcDbEntity
100
AcDbLine
  8
0
 62
0
370
0
  6
CONTINUOUS
 10
160.805845000000005
 20
121.4094840000000062
 30
0.0
 11
163.305845000000005
 21
122.4349620000000129
 31
0.0
  0
LINE
  5
1E6
100
AcDbEntity
100
AcDbLine
  8
0
 62
0
370
0
  6
CONTINUOUS
 10
160.805845000000005
 20
122.298372999999998
 30
0.0
 11
163.305845000000005
 21
123.3238509999999906
 31
0.0
  0
LINE
  5
1E7
100
AcDbEntity
100
AcDbLine
  8
0
 62
0
370
0
  6
CONTINUOUS
 10
162.055845000000005
 20
115.7000000000000028
 30
0.0
 11
163.305845000000005
 21
116.2127399999999966
 31
0.0
  0
LINE
  5
1E8
100
AcDbEntity
100
AcDbLine
  8
0
 62
0
370
0
  6
CONTINUOUS
 10
160.805845000000005
 20
123.1872610000000066
 30
0.0
 11
162.055845000000005
 21
123.6999999999999886
 31
0.0
  0
LINE
  5
1E9
100
AcDbEntity
100
AcDbLine
  8
0
 62
0
370
0
  6
CONTINUOUS
 10
131.6372590000000002
 20
101.5236160000000041
 30
0.0
 11
132.8372589999999889
 21
103.5236160000000041
 31
0.0
  0
LINE
  5
1EA
100
AcDbEntity
100
AcDbLine
  8
0
 62
0
370
0
  6
CONTINUOUS
 10
137.0372590000000059
 20
101.5236160000000041
 30
0.0
 11
135.8372589999999889
 21
103.5236160000000041
 31
0.0
  0
LINE
  5
1EB
100
AcDbEntity
100
AcDbLine
  8
0
 62
0
370
0
  6
CONTINUOUS
 10
132.8372589999999889
 20
103.5236160000000041
 30
0.0
 11
132.8372589999999889
 21
111.5236160000000041
 31
0.0
  0
LINE
  5
1EC
100
AcDbEntity
100
AcDbLine
  8
0
 62
0
370
0
  6
CONTINUOUS
 10
132.8372589999999889
 20
111.5236160000000041
 30
0.0
 11
135.8372589999999889
 21
111.5236160000000041
 31
0.0
  0
LINE
  5
1ED
100
AcDbEntity
100
AcDbLine
  8
0
 62
0
370
0
  6
CONTINUOUS
 10
132.8372589999999889
 20
103.5236160000000041
 30
0.0
 11
135.8372589999999889
 21
103.5236160000000041
 31
0.0
  0
LINE
  5
1EE
100
AcDbEntity
100
AcDbLine
  8
0
 62
0
370
0
  6
CONTINUOUS
 10
135.8372589999999889
 20
111.5236160000000041
 30
0.0
 11
135.8372589999999889
 21
103.5236160000000041
 31
0.0
  0
LINE
  5
1EF
100
AcDbEntity
100
AcDbLine
  8
0
 62
0
370
0
  6
CONTINUOUS
 10
131.6372590000000002
 20
101.5236160000000041
 30
0.0
 11
137.0372590000000059
 21
101.5236160000000041
 31
0.0
  0
LINE
  5
1F0
100
AcDbEntity
100
AcDbLine
  8
0
 62
0
370
0
  6
CONTINUOUS
 10
134.3372589999999889
 20
103.5236160000000041
 30
0.0
 11
134.3372589999999889
 21
104.056949000000003
 31
0.0
  0
LINE
  5
1F1
100
AcDbEntity
100
AcDbLine
  8
0
 62
0
370
0
  6
CONTINUOUS
 10
134.3372589999999889
 20
103.5236160000000041
 30
0.0
 11
132.8372589999999889
 21
103.7902820000000048
 31
0.0
  0
LINE
  5
1F2
100
AcDbEntity
100
AcDbLine
  8
0
 62
0
370
0
  6
CONTINUOUS
 10
135.8372589999999889
 20
103.7902820000000048
 30
0.0
 11
132.8372589999999889
 21
104.3236160000000012
 31
0.0
  0
LINE
  5
1F3
100
AcDbEntity
100
AcDbLine
  8
0
 62
0
370
0
  6
CONTINUOUS
 10
135.8372589999999889
 20
104.3236160000000012
 30
0.0
 11
132.8372589999999889
 21
104.8569490000000002
 31
0.0
  0
LINE
  5
1F4
100
AcDbEntity
100
AcDbLine
  8
0
 62
0
370
0
  6
CONTINUOUS
 10
135.8372589999999889
 20
104.8569490000000002
 30
0.0
 11
132.8372589999999889
 21
105.3902819999999991
 31
0.0
  0
LINE
  5
1F5
100
AcDbEntity
100
AcDbLine
  8
0
 62
0
370
0
  6
CONTINUOUS
 10
135.8372589999999889
 20
105.3902819999999991
 30
0.0
 11
132.8372589999999889
 21
105.9236159999999956
 31
0.0
  0
LINE
  5
1F6
100
AcDbEntity
100
AcDbLine
  8
0
 62
0
370
0
  6
CONTINUOUS
 10
135.8372589999999889
 20
105.9236159999999956
 30
0.0
 11
132.8372589999999889
 21
106.4569489999999945
 31
0.0
  0
LINE
  5
1F7
100
AcDbEntity
100
AcDbLine
  8
0
 62
0
370
0
  6
CONTINUOUS
 10
135.8372589999999889
 20
106.4569489999999945
 30
0.0
 11
132.8372589999999889
 21
106.9902819999999934
 31
0.0
  0
LINE
  5
1F8
100
AcDbEntity
100
AcDbLine
  8
0
 62
0
370
0
  6
CONTINUOUS
 10
135.8372589999999889
 20
106.9902819999999934
 30
0.0
 11
132.8372589999999889
 21
107.5236160000000041
 31
0.0
  0
LINE
  5
1F9
100
AcDbEntity
100
AcDbLine
  8
0
 62
0
370
0
  6
CONTINUOUS
 10
135.8372589999999889
 20
107.5236160000000041
 30
0.0
 11
132.8372589999999889
 21
108.056949000000003
 31
0.0
  0
LINE
  5
1FA
100
AcDbEntity
100
AcDbLine
  8
0
 62
0
370
0
  6
CONTINUOUS
 10
135.8372589999999889
 20
108.056949000000003
 30
0.0
 11
132.8372589999999889
 21
108.590282000000002
 31
0.0
  0
LINE
  5
1FB
100
AcDbEntity
100
AcDbLine
  8
0
 62
0
370
0
  6
CONTINUOUS
 10
135.8372589999999889
 20
108.590282000000002
 30
0.0
 11
132.8372589999999889
 21
109.1236159999999984
 31
0.0
  0
LINE
  5
1FC
100
AcDbEntity
100
AcDbLine
  8
0
 62
0
370
0
  6
CONTINUOUS
 10
135.8372589999999889
 20
109.1236159999999984
 30
0.0
 11
132.8372589999999889
 21
109.6569489999999973
 31
0.0
  0
LINE
  5
1FD
100
AcDbEntity
100
AcDbLine
  8
0
 62
0
370
0
  6
CONTINUOUS
 10
135.8372589999999889
 20
109.6569489999999973
 30
0.0
 11
132.8372589999999889
 21
110.1902819999999963
 31
0.0
  0
LINE
  5
1FE
100
AcDbEntity
100
AcDbLine
  8
0
 62
0
370
0
  6
CONTINUOUS
 10
135.8372589999999889
 20
110.1902819999999963
 30
0.0
 11
132.8372589999999889
 21
110.7236160000000069
 31
0.0
  0
LINE
  5
1FF
100
AcDbEntity
100
AcDbLine
  8
0
 62
0
370
0
  6
CONTINUOUS
 10
135.8372589999999889
 20
110.7236160000000069
 30
0.0
 11
132.8372589999999889
 21
111.2569490000000059
 31
0.0
  0
LINE
  5
200
100
AcDbEntity
100
AcDbLine
  8
0
 62
0
370
0
  6
CONTINUOUS
 10
135.8372589999999889
 20
111.2569490000000059
 30
0.0
 11
134.3372589999999889
 21
111.5236160000000041
 31
0.0
  0
LINE
  5
201
100
AcDbEntity
100
AcDbLine
  8
0
 62
0
370
0
  6
CONTINUOUS
 10
165.9319380000000024
 20
101.5236160000000041
 30
0.0
 11
167.131937999999991
 21
103.5236160000000041
 31
0.0
  0
LINE
  5
202
100
AcDbEntity
100
AcDbLine
  8
0
 62
0
370
0
  6
CONTINUOUS
 10
171.3319380000000081
 20
101.5236160000000041
 30
0.0
 11
170.131937999999991
 21
103.5236160000000041
 31
0.0
  0
LINE
  5
203
100
AcDbEntity
100
AcDbLine
  8
0
 62
0
370
0
  6
CONTINUOUS
 10
167.131937999999991
 20
103.5236160000000041
 30
0.0
 11
167.131937999999991
 21
111.5236160000000041
 31
0.0
  0
LINE
  5
204
100
AcDbEntity
100
AcDbLine
  8
0
 62
0
370
0
  6
CONTINUOUS
 10
167.131937999999991
 20
111.5236160000000041
 30
0.0
 11
170.131937999999991
 21
111.5236160000000041
 31
0.0
  0
LINE
  5
205
100
AcDbEntity
100
AcDbLine
  8
0
 62
0
370
0
  6
CONTINUOUS
 10
167.131937999999991
 20
103.5236160000000041
 30
0.0
 11
170.131937999999991
 21
103.5236160000000041
 31
0.0
  0
LINE
  5
206
100
AcDbEntity
100
AcDbLine
  8
0
 62
0
370
0
  6
CONTINUOUS
 10
170.131937999999991
 20
111.5236160000000041
 30
0.0
 11
170.131937999999991
 21
103.5236160000000041
 31
0.0
  0
LINE
  5
207
100
AcDbEntity
100
AcDbLine
  8
0
 62
0
370
0
  6
CONTINUOUS
 10
165.9319380000000024
 20
101.5236160000000041
 30
0.0
 11
171.3319380000000081
 21
101.5236160000000041
 31
0.0
  0
LINE
  5
208
100
AcDbEntity
100
AcDbLine
  8
0
 62
0
370
0
  6
CONTINUOUS
 10
168.631937999999991
 20
103.5236160000000041
 30
0.0
 11
168.631937999999991
 21
104.056949000000003
 31
0.0
  0
LINE
  5
209
100
AcDbEntity
100
AcDbLine
  8
0
 62
0
370
0
  6
CONTINUOUS
 10
168.631937999999991
 20
103.5236160000000041
 30
0.0
 11
167.131937999999991
 21
103.7902820000000048
 31
0.0
  0
LINE
  5
20A
100
AcDbEntity
100
AcDbLine
  8
0
 62
0
370
0
  6
CONTINUOUS
 10
170.131937999999991
 20
103.7902820000000048
 30
0.0
 11
167.131937999999991
 21
104.3236160000000012
 31
0.0
  0
LINE
  5
20B
100
AcDbEntity
100
AcDbLine
  8
0
 62
0
370
0
  6
CONTINUOUS
 10
170.131937999999991
 20
104.3236160000000012
 30
0.0
 11
167.131937999999991
 21
104.8569490000000002
 31
0.0
  0
LINE
  5
20C
100
AcDbEntity
100
AcDbLine
  8
0
 62
0
370
0
  6
CONTINUOUS
 10
170.131937999999991
 20
104.8569490000000002
 30
0.0
 11
167.131937999999991
 21
105.3902819999999991
 31
0.0
  0
LINE
  5
20D
100
AcDbEntity
100
AcDbLine
  8
0
 62
0
370
0
  6
CONTINUOUS
 10
170.131937999999991
 20
105.3902819999999991
 30
0.0
 11
167.131937999999991
 21
105.9236159999999956
 31
0.0
  0
LINE
  5
20E
100
AcDbEntity
100
AcDbLine
  8
0
 62
0
370
0
  6
CONTINUOUS
 10
170.131937999999991
 20
105.9236159999999956
 30
0.0
 11
167.131937999999991
 21
106.4569489999999945
 31
0.0
  0
LINE
  5
20F
100
AcDbEntity
100
AcDbLine
  8
0
 62
0
370
0
  6
CONTINUOUS
 10
170.131937999999991
 20
106.4569489999999945
 30
0.0
 11
167.131937999999991
 21
106.9902819999999934
 31
0.0
  0
LINE
  5
210
100
AcDbEntity
100
AcDbLine
  8
0
 62
0
370
0
  6
CONTINUOUS
 10
170.131937999999991
 20
106.9902819999999934
 30
0.0
 11
167.131937999999991
 21
107.5236160000000041
 31
0.0
  0
LINE
  5
211
100
AcDbEntity
100
AcDbLine
  8
0
 62
0
370
0
  6
CONTINUOUS
 10
170.131937999999991
 20
107.5236160000000041
 30
0.0
 11
167.131937999999991
 21
108.056949000000003
 31
0.0
  0
LINE
  5
212
100
AcDbEntity
100
AcDbLine
  8
0
 62
0
370
0
  6
CONTINUOUS
 10
170.131937999999991
 20
108.056949000000003
 30
0.0
 11
167.131937999999991
 21
108.590282000000002
 31
0.0
  0
LINE
  5
213
100
AcDbEntity
100
AcDbLine
  8
0
 62
0
370
0
  6
CONTINUOUS
 10
170.131937999999991
 20
108.590282000000002
 30
0.0
 11
167.131937999999991
 21
109.1236159999999984
 31
0.0
  0
LINE
  5
214
100
AcDbEntity
100
AcDbLine
  8
0
 62
0
370
0
  6
CONTINUOUS
 10
170.131937999999991
 20
109.1236159999999984
 30
0.0
 11
167.131937999999991
 21
109.6569489999999973
 31
0.0
  0
LINE
  5
215
100
AcDbEntity
100
AcDbLine
  8
0
 62
0
370
0
  6
CONTINUOUS
 10
170.131937999999991
 20
109.6569489999999973
 30
0.0
 11
167.131937999999991
 21
110.1902819999999963
 31
0.0
  0
LINE
  5
216
100
AcDbEntity
100
AcDbLine
  8
0
 62
0
370
0
  6
CONTINUOUS
 10
170.131937999999991
 20
110.1902819999999963
 30
0.0
 11
167.131937999999991
 21
110.7236160000000069
 31
0.0
  0
LINE
  5
217
100
AcDbEntity
100
AcDbLine
  8
0
 62
0
370
0
  6
CONTINUOUS
 10
170.131937999999991
 20
110.7236160000000069
 30
0.0
 11
167.131937999999991
 21
111.2569490000000059
 31
0.0
  0
LINE
  5
218
100
AcDbEntity
100
AcDbLine
  8
0
 62
0
370
0
  6
CONTINUOUS
 10
170.131937999999991
 20
111.2569490000000059
 30
0.0
 11
168.631937999999991
 21
111.5236160000000041
 31
0.0
  0
LINE
  5
219
100
AcDbEntity
100
AcDbLine
  8
0
 62
0
370
0
  6
CONTINUOUS
 10
65.2800000000000011
 20
11.4831399999999988
 30
0.0
 11
106.2399999999999949
 21
11.4831399999999988
 31
0.0
  0
LINE
  5
21A
100
AcDbEntity
100
AcDbLine
  8
0
 62
0
370
0
  6
CONTINUOUS
 10
65.2800000000000011
 20
11.4831399999999988
 30
0.0
 11
106.2399999999999949
 21
11.4831399999999988
 31
0.0
  0
MTEXT
  5
21B
100
AcDbEntity
100
AcDbMText
  8
0
 62
0
370
0
  6
CONTINUOUS
 10
114.790071999999995
 20
10.9159849999999992
 30
0.0
 40
3.2000000000000002
 41
100.0
 71
7
 72
2
  1
----
  7
Normal
 50
0.0
 73
1
 44
1.0
  0
MTEXT
  5
21C
100
AcDbEntity
100
AcDbMText
  8
futaba
 62
7
370
0
  6
DASHDOT
 10
117.984683000000004
 20
268.4984600000000228
 30
0.0
 40
6.0
 41
100.0
 71
7
 72
2
  1
Pieza\~F\~con\~Futaba
  7
Normal
 50
0.0
 73
1
 44
1.0
  0
MTEXT
  5
21D
100
AcDbEntity
100
AcDbMText
  8
0
 62
7
370
0
  6
DASHDOT
 10
69.0306779999999947
 20
12.8777509999999999
 30
0.0
 40
1.6000000000000001
 41
100.0
 71
7
 72
2
  1
Juan\~Gonzalez\~Gomez
  7
Normal
 50
0.0
 73
1
 44
1.0
  0
MTEXT
  5
21E
100
AcDbEntity
100
AcDbMText
  8
0
 62
7
370
0
  6
DASHDOT
 10
68.6569049999999947
 20
5.0644869999999997
 30
0.0
 40
3.2000000000000002
 41
100.0
 71
7
 72
2
  1
LICENCIA\~GPL
  7
Normal
 50
0.0
 73
1
 44
1.0
  0
LINE
  5
21F
100
AcDbEntity
100
AcDbLine
  8
0
 62
5
370
0
  6
CONTINUOUS
 10
5.0
 20
134.0
 30
0.0
 11
105.0
 21
134.0
 31
0.0
  0
LINE
  5
220
100
AcDbEntity
100
AcDbLine
  8
0
 62
5
370
0
  6
CONTINUOUS
 10
105.0
 20
134.0
 30
0.0
 11
105.0
 21
69.0
 31
0.0
  0
LINE
  5
221
100
AcDbEntity
100
AcDbLine
  8
0
 62
5
370
0
  6
CONTINUOUS
 10
105.0
 20
69.0
 30
0.0
 11
5.0
 21
69.0
 31
0.0
  0
LINE
  5
222
100
AcDbEntity
100
AcDbLine
  8
0
 62
5
370
0
  6
CONTINUOUS
 10
5.0
 20
69.0
 30
0.0
 11
5.0
 21
134.0
 31
0.0
  0
LINE
  5
223
100
AcDbEntity
100
AcDbLine
  8
0
 62
5
370
0
  6
DASHDOT2
 10
162.055845000000005
 20
264.0
 30
0.0
 11
162.055845000000005
 21
119.0
 31
0.0
  0
LINE
  5
224
100
AcDbEntity
100
AcDbLine
  8
0
 62
5
370
0
  6
DASHDOT2
 10
134.3372589999999889
 20
264.0
 30
0.0
 11
134.3372589999999889
 21
107.1402939999999973
 31
0.0
  0
LINE
  5
225
100
AcDbEntity
100
AcDbLine
  8
0
 62
5
370
0
  6
DASHDOT2
 10
168.631937999999991
 20
264.0
 30
0.0
 11
168.631937999999991
 21
107.1402939999999973
 31
0.0
  0
DIMENSION
  5
226
100
AcDbEntity
  8
cotas
 62
256
370
-1
  6
ByLayer
100
AcDbDimension
 10
21.5266797642441077
 20
199.0
 30
0.0
 11
19.6516797642441077
 21
225.0
 31
0.0
 70
0
 71
5
 72
1
 41
1.0
 42
0.0
  1

  3
Standard
100
AcDbAlignedDimension
 13
28.0
 23
251.0
 33
0.0
 14
28.0
 24
199.0
 34
0.0
 50
90.0
100
AcDbRotatedDimension
  0
DIMENSION
  5
227
100
AcDbEntity
  8
cotas
 62
256
370
-1
  6
ByLayer
100
AcDbDimension
 10
40.8969949999999969
 20
255.2696267190618187
 30
0.0
 11
34.448497500000002
 21
257.1446267190618187
 31
0.0
 70
0
 71
5
 72
1
 41
1.0
 42
0.0
  1

  3
Standard
100
AcDbAlignedDimension
 13
28.0
 23
251.0
 33
0.0
 14
40.8969949999999969
 24
251.0
 34
0.0
 50
0.0
100
AcDbRotatedDimension
  0
DIMENSION
  5
228
100
AcDbEntity
  8
cotas
 62
256
370
-1
  6
ByLayer
100
AcDbDimension
 10
64.2612793495780181
 20
210.2408879939815733
 30
0.0
 11
61.874793963073401
 21
210.5060530369265166
 31
0.0
 70
1
 71
5
 72
1
 41
1.0
 42
0.0
  1

  3
Standard
100
AcDbAlignedDimension
 13
66.7771028282201655
 23
203.4824238282201634
 33
0.0
 14
68.898423171779811
 24
205.6037441717798231
 34
0.0
  0
DIMENSION
  5
229
100
AcDbEntity
  8
cotas
 62
256
370
-1
  6
ByLayer
100
AcDbDimension
 10
86.5715520628700972
 20
199.0
 30
0.0
 11
84.6965520628700972
 21
205.448497500000002
 31
0.0
 70
0
 71
5
 72
1
 41
1.0
 42
0.0
  1

  3
Standard
100
AcDbAlignedDimension
 13
80.0
 23
211.896995000000004
 33
0.0
 14
80.0
 24
199.0
 34
0.0
 50
90.0
100
AcDbRotatedDimension
  0
DIMENSION
  5
22A
100
AcDbEntity
  8
cotas
 62
256
370
-1
  6
ByLayer
100
AcDbDimension
 10
80.0
 20
164.3521571709265743
 30
0.0
 11
54.0
 21
166.2271571709265743
 31
0.0
 70
0
 71
5
 72
1
 41
1.0
 42
0.0
  1

  3
Standard
100
AcDbAlignedDimension
 13
28.0
 23
160.5999999999999943
 33
0.0
 14
80.0
 24
160.5999999999999943
 34
0.0
 50
0.0
100
AcDbRotatedDimension
  0
DIMENSION
  5
22B
100
AcDbEntity
  8
cotas
 62
256
370
-1
  6
ByLayer
100
AcDbDimension
 10
23.2796209037333561
 20
157.5999999999999943
 30
0.0
 11
21.4046209037333561
 21
159.0999999999999943
 31
0.0
 70
0
 71
5
 72
1
 41
1.0
 42
0.0
  1

  3
Standard
100
AcDbAlignedDimension
 13
28.0
 23
160.5999999999999943
 33
0.0
 14
28.0
 24
157.5999999999999943
 34
0.0
 50
90.0
100
AcDbRotatedDimension
  0
DIMENSION
  5
22C
100
AcDbEntity
  8
cotas
 62
256
370
-1
  6
ByLayer
100
AcDbDimension
 10
23.0
 20
102.3305830000000327
 30
0.0
 11
21.125
 21
103.8305830000000185
 31
0.0
 70
0
 71
5
 72
1
 41
1.0
 42
0.0
  1

  3
Standard
100
AcDbAlignedDimension
 13
27.7000000000000028
 23
105.3305829999999901
 33
0.0
 14
27.7000000000000028
 24
102.3305830000000327
 34
0.0
 50
90.0
100
AcDbRotatedDimension
  0
DIMENSION
  5
22D
100
AcDbEntity
  8
cotas
 62
256
370
-1
  6
ByLayer
100
AcDbDimension
 10
46.0
 20
101.1305830000000299
 30
0.0
 11
44.125
 21
103.8305830000000185
 31
0.0
 70
0
 71
5
 72
1
 41
1.0
 42
0.0
  1

  3
Standard
100
AcDbAlignedDimension
 13
38.2226890000000026
 23
106.5305829999999929
 33
0.0
 14
38.2226890000000026
 24
101.1305830000000299
 34
0.0
 50
90.0
100
AcDbRotatedDimension
  0
DIMENSION
  5
22E
100
AcDbEntity
  8
cotas
 62
256
370
-1
  6
ByLayer
100
AcDbDimension
 10
23.0
 20
82.8651090000000039
 30
0.0
 11
21.125
 21
87.8651090000000039
 31
0.0
 70
0
 71
5
 72
1
 41
1.0
 42
0.0
  1

  3
Standard
100
AcDbAlignedDimension
 13
26.1999999999999993
 23
92.8651090000000039
 33
0.0
 14
25.0
 24
82.8651090000000039
 34
0.0
 50
90.0
100
AcDbRotatedDimension
  0
DIMENSION
  5
22F
100
AcDbEntity
  8
cotas
 62
256
370
-1
  6
ByLayer
100
AcDbDimension
 10
78.0
 20
82.8651090000000039
 30
0.0
 11
76.125
 21
87.7151090000000124
 31
0.0
 70
0
 71
5
 72
1
 41
1.0
 42
0.0
  1

  3
Standard
100
AcDbAlignedDimension
 13
71.4013000000000062
 23
92.5651090000000067
 33
0.0
 14
72.9013000000000062
 24
82.8651090000000039
 34
0.0
 50
90.0
100
AcDbRotatedDimension
  0
DIMENSION
  5
230
100
AcDbEntity
  8
cotas
 62
256
370
-1
  6
ByLayer
100
AcDbDimension
 10
65.0
 20
102.5805829999998764
 30
0.0
 11
63.125
 21
103.8305830000000043
 31
0.0
 70
0
 71
5
 72
1
 41
1.0
 42
0.0
  1

  3
Standard
100
AcDbAlignedDimension
 13
70.1513000000000062
 23
105.0805830000001322
 33
0.0
 14
70.1513000000000062
 24
102.5805829999998764
 34
0.0
 50
90.0
100
AcDbRotatedDimension
  0
DIMENSION
  5
231
100
AcDbEntity
  8
cotas
 62
256
370
-1
  6
ByLayer
100
AcDbDimension
 10
87.2856310957039341
 20
101.0805830000000043
 30
0.0
 11
85.4106310957039341
 21
103.8305830000000043
 31
0.0
 70
0
 71
5
 72
1
 41
1.0
 42
0.0
  1

  3
Standard
100
AcDbAlignedDimension
 13
79.6255390000000034
 23
106.5805830000000043
 33
0.0
 14
79.6255390000000034
 24
101.0805830000000043
 34
0.0
 50
90.0
100
AcDbRotatedDimension
  0
ENDSEC
  0
SECTION
  2
OBJECTS
  0
DICTIONARY
  5
C
100
AcDbDictionary
280
0
281
1
  3
ACAD_GROUP
350
D
  3
ACAD_LAYOUT
350
1A
  3
ACAD_MLINESTYLE
350
17
  3
ACAD_PLOTSETTINGS
350
19
  3
ACAD_PLOTSTYLENAME
350
E
  3
AcDbVariableDictionary
350
232
  0
DICTIONARY
  5
D
100
AcDbDictionary
280
0
281
1
  0
ACDBDICTIONARYWDFLT
  5
E
100
AcDbDictionary
281
1
  3
Normal
350
F
100
AcDbDictionaryWithDefault
340
F
  0
ACDBPLACEHOLDER
  5
F
  0
DICTIONARY
  5
17
100
AcDbDictionary
280
0
281
1
  3
Standard
350
18
  0
MLINESTYLE
  5
18
100
AcDbMlineStyle
  2
STANDARD
 70
0
  3

 62
256
 51
90.0
 52
90.0
 71
2
 49
0.5
 62
256
  6
BYLAYER
 49
-0.5
 62
256
  6
BYLAYER
  0
DICTIONARY
  5
19
100
AcDbDictionary
280
0
281
1
  0
DICTIONARY
  5
1A
100
AcDbDictionary
281
1
  3
Layout1
350
1E
  3
Layout2
350
26
  3
Model
350
22
  0
LAYOUT
  5
1E
100
AcDbPlotSettings
  1

  2
C:\Program Files\AutoCAD 2002\plotters\DWF ePlot (optimized for plotting).pc3
  4

  6

 40
0.0
 41
0.0
 42
0.0
 43
0.0
 44
0.0
 45
0.0
 46
0.0
 47
0.0
 48
0.0
 49
0.0
140
0.0
141
0.0
142
1.0
143
1.0
 70
688
 72
0
 73
0
 74
5
  7

 75
16
147
1.0
148
0.0
149
0.0
100
AcDbLayout
  1
Layout1
 70
1
 71
1
 10
0.0
 20
0.0
 11
420.0
 21
297.0
 12
0.0
 22
0.0
 32
0.0
 14
100000000000000000000.0
 24
100000000000000000000.0
 34
100000000000000000000.0
 15
-100000000000000000000.0
 25
-100000000000000000000.0
 35
-100000000000000000000.0
146
0.0
 13
0.0
 23
0.0
 33
0.0
 16
1.0
 26
0.0
 36
0.0
 17
0.0
 27
1.0
 37
0.0
 76
0
330
1B
  0
LAYOUT
  5
22
100
AcDbPlotSettings
  1

  2
C:\Program Files\AutoCAD 2002\plotters\DWF ePlot (optimized for plotting).pc3
  4

  6

 40
0.0
 41
0.0
 42
0.0
 43
0.0
 44
0.0
 45
0.0
 46
0.0
 47
0.0
 48
0.0
 49
0.0
140
0.0
141
0.0
142
1.0
143
1.0
 70
1712
 72
0
 73
0
 74
0
  7

 75
0
147
1.0
148
0.0
149
0.0
100
AcDbLayout
  1
Model
 70
1
 71
0
 10
0.0
 20
0.0
 11
12.0
 21
9.0
 12
0.0
 22
0.0
 32
0.0
 14
0.0
 24
0.0
 34
0.0
 15
0.0
 25
0.0
 35
0.0
146
0.0
 13
0.0
 23
0.0
 33
0.0
 16
1.0
 26
0.0
 36
0.0
 17
0.0
 27
1.0
 37
0.0
 76
0
330
1F
  0
LAYOUT
  5
26
100
AcDbPlotSettings
  1

  2
C:\Program Files\AutoCAD 2002\plotters\DWF ePlot (optimized for plotting).pc3
  4

  6

 40
0.0
 41
0.0
 42
0.0
 43
0.0
 44
0.0
 45
0.0
 46
0.0
 47
0.0
 48
0.0
 49
0.0
140
0.0
141
0.0
142
1.0
143
1.0
 70
688
 72
0
 73
0
 74
5
  7

 75
16
147
1.0
148
0.0
149
0.0
100
AcDbLayout
  1
Layout2
 70
1
 71
2
 10
0.0
 20
0.0
 11
12.0
 21
9.0
 12
0.0
 22
0.0
 32
0.0
 14
0.0
 24
0.0
 34
0.0
 15
0.0
 25
0.0
 35
0.0
146
0.0
 13
0.0
 23
0.0
 33
0.0
 16
1.0
 26
0.0
 36
0.0
 17
0.0
 27
1.0
 37
0.0
 76
0
330
23
  0
DICTIONARY
  5
232
100
AcDbDictionary
281
1
  3
DIMASSOC
350
234
  3
HIDETEXT
350
233
  0
DICTIONARYVAR
  5
233
100
DictionaryVariables
280
0
  1
2
  0
DICTIONARYVAR
  5
234
100
DictionaryVariables
280
0
  1
1
  0
ENDSEC
  0
EOF
